<svg width="22" height="24" viewBox="0 0 22 24" fill="none" xmlns="http://www.w3.org/2000/svg">
<g clip-path="url(#clip0_41_269)">
<path d="M15.2337 -0.5C15.2849 -0.5 15.3361 -0.5 15.3902 -0.5C15.5158 1.05149 14.9236 2.21075 14.2039 3.05026C13.4977 3.88396 12.5307 4.69255 10.9667 4.56986C10.8623 3.0406 11.4555 1.96731 12.1742 1.12974C12.8408 0.349163 14.0629 -0.345431 15.2337 -0.5Z" fill="white"/>
<path d="M19.9684 15.6486C19.9684 15.664 19.9684 15.6775 19.9684 15.692C19.5288 17.0233 18.9019 18.1642 18.1368 19.223C17.4383 20.1842 16.5824 21.4777 15.0541 21.4777C13.7335 21.4777 12.8563 20.6286 11.5028 20.6054C10.0711 20.5822 9.28381 21.3154 7.9748 21.5C7.82507 21.5 7.67533 21.5 7.52849 21.5C6.56726 21.3608 5.79152 20.5996 5.22637 19.9137C3.55993 17.8869 2.27217 15.2689 2.03259 11.9186C2.03259 11.5902 2.03259 11.2627 2.03259 10.9342C2.13403 8.53645 3.29909 6.58695 4.84768 5.64214C5.66496 5.13979 6.78849 4.71183 8.03953 4.90311C8.57569 4.98619 9.12345 5.16974 9.60358 5.35136C10.0586 5.52622 10.6276 5.83632 11.1667 5.8199C11.5318 5.80927 11.8951 5.61896 12.2631 5.48468C13.3412 5.09536 14.3981 4.64904 15.7912 4.85867C17.4653 5.11178 18.6536 5.85564 19.3878 7.00332C17.9716 7.90465 16.8519 9.26292 17.0432 11.5824C17.2132 13.6894 18.4382 14.9221 19.9684 15.6486Z" fill="white"/>
</g>
<defs>
<clipPath id="clip0_41_269">
<rect width="22" height="24" fill="white"/>
</clipPath>
</defs>
</svg>
