<svg width="27" height="27" viewBox="0 0 27 27" fill="none" xmlns="http://www.w3.org/2000/svg">
<g id="cancel">
<g clip-path="url(#clip0_402_495)">
<g id="Layer 2">
<path id="Vector" d="M23.5465 6.10352e-05H3.45349C1.54618 6.10352e-05 0 1.70482 0 3.80775V23.1924C0 25.2953 1.54618 27.0001 3.45349 27.0001H23.5465C25.4538 27.0001 27 25.2953 27 23.1924V3.80775C27 1.70482 25.4538 6.10352e-05 23.5465 6.10352e-05Z" fill="#BF0000"/>
<g id="Group" filter="url(#filter0_d_402_495)">
<path id="Vector_2" d="M18.6935 20.0001C18.5229 20.0005 18.3539 19.9671 18.1964 19.9018C18.0388 19.8364 17.8958 19.7404 17.7755 19.6194L7.38859 9.22594C7.26625 9.10572 7.16892 8.96243 7.10222 8.80436C7.03553 8.64629 7.00079 8.47656 7.00001 8.30498C6.99924 8.1334 7.03244 7.96337 7.0977 7.8047C7.16296 7.64603 7.25899 7.50187 7.38024 7.38054C7.50149 7.25921 7.64556 7.16312 7.80413 7.09782C7.9627 7.03252 8.13263 6.9993 8.3041 7.00007C8.47557 7.00085 8.64519 7.03561 8.80317 7.10235C8.96114 7.16909 9.10433 7.26648 9.22448 7.3889L19.6114 17.7824C19.7929 17.964 19.9165 18.1955 19.9666 18.4475C20.0167 18.6995 19.991 18.9607 19.8927 19.198C19.7945 19.4354 19.6281 19.6383 19.4147 19.781C19.2012 19.9238 18.9502 20 18.6935 20.0001Z" fill="#F3F5F7"/>
<path id="Vector_3" d="M8.30647 20.0001C8.04969 20.0001 7.79867 19.9239 7.58516 19.7811C7.37165 19.6384 7.20524 19.4355 7.10699 19.1981C7.00873 18.9607 6.98303 18.6995 7.03314 18.4475C7.08326 18.1955 7.20693 17.964 7.38853 17.7824L17.7755 7.3889C17.8956 7.26648 18.0388 7.16909 18.1968 7.10235C18.3547 7.03561 18.5244 7.00085 18.6958 7.00007C18.8673 6.9993 19.0372 7.03252 19.1958 7.09782C19.3544 7.16312 19.4984 7.25921 19.6197 7.38054C19.7409 7.50187 19.837 7.64603 19.9022 7.8047C19.9675 7.96337 20.0007 8.1334 19.9999 8.30498C19.9991 8.47656 19.9644 8.64629 19.8977 8.80436C19.831 8.96243 19.7337 9.10572 19.6113 9.22594L9.22441 19.6194C9.10417 19.7404 8.96113 19.8364 8.80356 19.9018C8.64599 19.9671 8.47703 20.0005 8.30647 20.0001Z" fill="#F3F5F7"/>
</g>
</g>
</g>
</g>
<defs>
<filter id="filter0_d_402_495" x="7" y="7.00006" width="14.9999" height="15" filterUnits="userSpaceOnUse" color-interpolation-filters="sRGB">
<feFlood flood-opacity="0" result="BackgroundImageFix"/>
<feColorMatrix in="SourceAlpha" type="matrix" values="0 0 0 0 0 0 0 0 0 0 0 0 0 0 0 0 0 0 127 0" result="hardAlpha"/>
<feOffset dx="2" dy="2"/>
<feComposite in2="hardAlpha" operator="out"/>
<feColorMatrix type="matrix" values="0 0 0 0 0 0 0 0 0 0 0 0 0 0 0 0 0 0 0.36 0"/>
<feBlend mode="normal" in2="BackgroundImageFix" result="effect1_dropShadow_402_495"/>
<feBlend mode="normal" in="SourceGraphic" in2="effect1_dropShadow_402_495" result="shape"/>
</filter>
<clipPath id="clip0_402_495">
<rect y="6.10352e-05" width="27" height="27" rx="5" fill="white"/>
</clipPath>
</defs>
</svg>
