<svg width="46" height="35" viewBox="0 0 46 35" fill="none" xmlns="http://www.w3.org/2000/svg">
    <path fill-rule="evenodd" clip-rule="evenodd"
        d="M2.2492 14.4076C2.07348 14.5377 1.96751 14.7624 2.0089 15.0618C2.20928 16.5102 3.03047 17.8409 4.14659 18.822C4.19299 18.8628 4.2399 18.9031 4.28729 18.9427C4.21954 18.9238 4.15201 18.9045 4.08483 18.8845C4.0444 18.8723 4.0041 18.8599 3.96392 18.8473C3.46216 18.6898 2.9915 19.1024 3.25724 19.6108C3.86549 20.7734 5.02032 21.6164 6.28958 22.0181L6.28991 22.018L6.29109 22.0184C6.06638 22.0699 5.8407 22.1127 5.61527 22.1457C5.40329 22.1769 5.24712 22.3076 5.18841 22.4663C5.12729 22.6312 5.17153 22.8263 5.36794 22.9707C6.19441 23.5787 7.2771 23.8033 8.31188 23.6981C8.49649 24.0886 8.69802 24.4703 8.91558 24.8425C9.12118 25.1944 9.58431 25.3308 9.96788 25.1566L10.7026 24.8227L10.0663 25.3016C9.73289 25.5525 9.6627 26.0065 9.91044 26.3341C10.2502 26.7833 10.6152 27.2142 11.0035 27.6253C11.2868 27.9253 11.7708 27.9613 12.1037 27.7107L12.7388 27.2328L12.2323 27.8321C11.9668 28.1463 12.0049 28.6031 12.3228 28.8706C12.7583 29.2371 13.2148 29.5816 13.6907 29.9022C14.0377 30.1361 14.5188 30.0699 14.7847 29.7552L15.2922 29.1547L14.9384 29.848C14.7537 30.21 14.8983 30.6471 15.271 30.8412C15.7808 31.1066 16.3073 31.3468 16.8488 31.5599C17.2422 31.7147 17.6954 31.5491 17.8804 31.1867L18.2347 30.4922L18.0529 31.2441C17.958 31.6362 18.2026 32.0324 18.6124 32.1428C19.1701 32.293 19.7403 32.4155 20.3209 32.5089C20.7406 32.5763 21.1427 32.3198 21.2374 31.9281L21.4188 31.1782L21.4188 31.946C21.4188 32.3482 21.7508 32.683 22.1763 32.7046C22.4664 32.7192 22.7583 32.7267 23.052 32.7267C23.3457 32.7267 23.6376 32.7192 23.9274 32.7045C24.353 32.683 24.685 32.3481 24.685 31.9459L24.685 31.1835L24.865 31.9282C24.9597 32.3199 25.3618 32.5764 25.7815 32.509C26.3622 32.4157 26.9323 32.2933 27.4901 32.1431C27.8999 32.0328 28.1445 31.6366 28.0497 31.2445L27.8679 30.4926L28.2223 31.1872C28.4072 31.5497 28.8604 31.7152 29.2539 31.5604C29.7954 31.3474 30.322 31.1073 30.8317 30.8419C31.2045 30.6479 31.3491 30.2108 31.1645 29.8487L30.8107 29.1553L31.3181 29.7559C31.5839 30.0705 32.0651 30.1368 32.4121 29.903C32.888 29.5823 33.3447 29.2378 33.7802 28.8714C34.098 28.6039 34.1362 28.1472 33.8707 27.8329L33.3643 27.2335L33.9994 27.7115C34.3323 27.9621 34.8163 27.9261 35.0997 27.6261C35.4879 27.2151 35.853 26.7842 36.1927 26.3351C36.4405 26.0076 36.3704 25.5535 36.037 25.3025L35.4007 24.8236L36.1353 25.1575C36.5188 25.3319 36.982 25.1953 37.1876 24.8436C37.4014 24.4778 37.5998 24.1028 37.7819 23.7194C38.7221 23.7562 39.6774 23.5198 40.4238 22.9707C40.6164 22.829 40.6627 22.6386 40.6067 22.4757C40.5934 22.4371 40.5744 22.4 40.5502 22.3655C40.4725 22.2545 40.3414 22.17 40.1764 22.1458C39.951 22.1127 39.7253 22.0699 39.5006 22.0184L39.5019 22.018L39.5021 22.0181C40.7714 21.6164 41.9262 20.7734 42.5344 19.6108C42.8002 19.1024 42.3295 18.6898 41.8278 18.8473C41.7821 18.8616 41.7362 18.8757 41.6902 18.8895C41.6285 18.9077 41.5665 18.9254 41.5044 18.9427C42.6916 17.9507 43.5737 16.5705 43.7826 15.0619C43.835 14.6834 43.652 14.4243 43.3902 14.3246L42.4327 14.2311C43.2376 12.7774 43.5959 11.0634 43.2506 9.46003C43.0821 8.67876 42.2062 8.64941 41.8076 9.26057C41.2875 10.0574 40.6762 10.8168 39.9933 11.5088C40.5223 10.9727 41.0082 10.3962 41.4419 9.79333C42.0244 7.71218 41.8087 5.32966 40.5922 3.5444C40.1171 2.84643 39.2483 3.15991 39.1016 3.91373C38.7141 5.89601 37.9046 7.87447 36.7293 9.5469C36.6764 9.62235 36.6227 9.69739 36.5684 9.77198C36.4245 9.75806 36.2751 9.7804 36.1361 9.84355L35.4014 10.1774L36.0377 9.69854C36.3711 9.44766 36.4412 8.99357 36.1935 8.666C35.8538 8.21686 35.4887 7.78589 35.1005 7.37485C34.8171 7.07487 34.3332 7.03883 34.0002 7.28939L33.3652 7.76732L33.8717 7.16798C34.1371 6.8538 34.099 6.397 33.7812 6.12954C33.3457 5.76307 32.8891 5.41851 32.4132 5.09788C32.0662 4.86406 31.5851 4.93023 31.3192 5.24488L30.8117 5.84542L31.1656 5.15209C31.3503 4.79016 31.2056 4.35297 30.8329 4.15893C30.3232 3.89354 29.7967 3.65335 29.2552 3.44025C28.8617 3.28544 28.4085 3.45102 28.2236 3.81343L27.8692 4.50787L28.0511 3.75603C28.1459 3.36396 27.9013 2.96775 27.4916 2.85734C26.9338 2.70714 26.3637 2.58461 25.783 2.49126C25.3633 2.42382 24.9612 2.68028 24.8666 3.07202L24.6852 3.82195L24.6852 3.05417C24.6852 2.65198 24.3532 2.31707 23.9276 2.29555C23.6376 2.28096 23.3457 2.27347 23.052 2.27347C22.7583 2.27347 22.4664 2.28096 22.1766 2.29563C21.751 2.31715 21.419 2.65206 21.419 3.05425L21.419 3.81661L21.239 3.07202C21.1443 2.68028 20.7422 2.42382 20.3225 2.49118C19.7418 2.58445 19.1717 2.70691 18.6139 2.8571C18.2042 2.96743 17.9595 3.36364 18.0543 3.75571L18.2361 4.50755L17.8817 3.81311C17.6968 3.45062 17.2436 3.28504 16.8501 3.43977C16.3086 3.65279 15.782 3.89291 15.2723 4.1583C14.8995 4.35233 14.7549 4.78944 14.9396 5.15145L15.2933 5.84486L14.7859 5.24433C14.5201 4.92967 14.039 4.86342 13.6919 5.09724C13.216 5.41788 12.7594 5.76243 12.3239 6.12882C12.006 6.39629 11.9678 6.853 12.2333 7.16726L12.7397 7.76668L12.1047 7.28868C11.7718 7.03811 11.2878 7.07407 11.0044 7.37406C10.6161 7.78509 10.251 8.21598 9.91129 8.66513C9.66354 8.99262 9.73365 9.44671 10.067 9.69767L10.7033 10.1766L9.96873 9.84268C9.74154 9.73939 9.48638 9.74519 9.27337 9.84023C9.2019 9.7432 9.13157 9.6454 9.06242 9.54691C8.12013 8.20604 7.41302 6.66845 6.96997 5.0899C6.8605 4.69958 6.76719 4.30676 6.69051 3.9138C6.64338 3.67231 6.5222 3.47599 6.36361 3.34363C6.2747 3.26942 6.17402 3.21532 6.06805 3.18464C5.77308 3.09925 5.43707 3.19536 5.19937 3.54447C5.11033 3.67522 5.02665 3.80916 4.94826 3.94596C4.92628 3.98431 4.90471 4.02289 4.88356 4.06169C3.94989 5.77338 3.82204 7.90608 4.34938 9.79167C4.22345 9.61662 4.10116 9.43966 3.98419 9.26046C3.92423 9.16859 3.85348 9.0912 3.77597 9.02868C3.3381 8.67525 2.68425 8.79626 2.54108 9.46003C2.14323 11.3074 2.67952 13.3017 3.75663 14.8753C3.55485 14.7405 3.35723 14.6012 3.16519 14.4567C2.87733 14.2401 2.52764 14.2297 2.28692 14.3818C2.27402 14.3899 2.26144 14.3985 2.2492 14.4076Z"
        fill="#875230" />
    <path
        d="M23.1503 2.38262C23.4403 2.38262 23.7404 2.38262 24.0304 2.40235C24.4604 2.42207 24.7904 2.75744 24.7904 3.15198V3.91148L24.9705 3.17171C25.0505 2.82648 25.3805 2.58975 25.7505 2.58975C25.7905 2.58975 25.8405 2.58975 25.8805 2.59962C26.4606 2.68839 27.0306 2.81662 27.5906 2.96457C28.0007 3.07307 28.2407 3.46762 28.1507 3.8523L27.9707 4.59208L28.3207 3.91148C28.4607 3.64517 28.7507 3.48735 29.0507 3.48735C29.1507 3.48735 29.2607 3.50707 29.3608 3.54653C29.9008 3.75367 30.4308 3.99039 30.9409 4.25671C31.3109 4.44412 31.4609 4.87812 31.2709 5.23321L30.9209 5.91381L31.4309 5.32199C31.5909 5.13458 31.8209 5.03594 32.0609 5.03594C32.221 5.03594 32.381 5.08526 32.521 5.17403C33.001 5.48967 33.451 5.8349 33.8911 6.18999C34.2111 6.45631 34.2511 6.90017 33.9811 7.21581L33.471 7.80763L34.1111 7.33417C34.2611 7.22567 34.4411 7.16649 34.6111 7.16649C34.8311 7.16649 35.0512 7.25526 35.2112 7.41308C35.6012 7.81749 35.9612 8.24163 36.3012 8.68549C36.5513 9.01099 36.4813 9.45486 36.1412 9.70145L35.5012 10.1749L36.2312 9.8494C36.3412 9.80008 36.4613 9.77049 36.5813 9.77049C36.6113 9.77049 36.6413 9.77049 36.6613 9.77049C36.7113 9.70145 36.7713 9.62254 36.8213 9.54363C38.0014 7.8964 38.8014 5.9434 39.1914 3.99039C39.2814 3.53667 39.6415 3.24076 40.0215 3.24076C40.2615 3.24076 40.5015 3.35912 40.6815 3.62544C41.9016 5.39103 42.1116 7.73858 41.5316 9.79022C41.1016 10.382 40.6215 10.9443 40.1015 11.467C40.7816 10.7864 41.3816 10.0467 41.8916 9.26745C42.0716 8.99126 42.3617 8.84331 42.6317 8.84331C42.9517 8.84331 43.2517 9.04058 43.3417 9.46472C43.6918 11.0429 43.3317 12.7395 42.5217 14.1697L43.4817 14.2585C43.7418 14.3571 43.9218 14.6135 43.8718 14.9884C43.6618 16.4778 42.7817 17.839 41.5916 18.8155C41.6516 18.7957 41.7116 18.7859 41.7816 18.7661C41.8316 18.7563 41.8716 18.7365 41.9216 18.7267C41.9916 18.707 42.0716 18.6971 42.1416 18.6971C42.5517 18.6971 42.8617 19.0522 42.6317 19.4862C42.0216 20.6304 40.8716 21.4688 39.6015 21.8633C39.8215 21.9126 40.0515 21.9521 40.2815 21.9916C40.4515 22.0113 40.5815 22.1001 40.6515 22.2086C40.6715 22.2381 40.6915 22.2776 40.7115 22.3171C40.7716 22.4749 40.7115 22.6623 40.5315 22.8004C39.8315 23.3034 38.9614 23.5401 38.0814 23.5401C38.0214 23.5401 37.9514 23.5401 37.8914 23.5401C37.7113 23.915 37.5113 24.2898 37.3013 24.6449C37.1513 24.8915 36.8813 25.0296 36.6013 25.0296C36.4813 25.0296 36.3612 25.0098 36.2512 24.9506L35.5212 24.6251L36.1612 25.0986C36.4913 25.3452 36.5613 25.7989 36.3212 26.1146C35.9812 26.5584 35.6212 26.9826 35.2312 27.387C35.0712 27.5547 34.8511 27.6336 34.6311 27.6336C34.4511 27.6336 34.2711 27.5842 34.1311 27.4659L33.491 26.9924L34.0011 27.5842C34.2711 27.89 34.2311 28.3437 33.9111 28.6101C33.471 28.975 33.021 29.3104 32.541 29.626C32.401 29.7148 32.241 29.7641 32.0809 29.7641C31.8409 29.7641 31.6109 29.6655 31.4509 29.4781L30.9409 28.8862L31.2909 29.5668C31.4709 29.9219 31.3309 30.3559 30.9609 30.5433C30.4508 30.8097 29.9208 31.0464 29.3808 31.2535C29.2808 31.293 29.1807 31.3127 29.0707 31.3127C28.7707 31.3127 28.4807 31.1549 28.3407 30.8886L27.9907 30.208L28.1707 30.9477C28.2607 31.3324 28.0207 31.727 27.6106 31.8355C27.0506 31.9834 26.4806 32.1018 25.9005 32.2004C25.8505 32.2004 25.8105 32.2103 25.7705 32.2103C25.4005 32.2103 25.0705 31.9736 24.9905 31.6283L24.8104 30.8984V31.6481C24.8104 32.0426 24.4804 32.378 24.0504 32.3977C23.7604 32.4076 23.4703 32.4174 23.1703 32.4174C22.8703 32.4174 22.5803 32.4174 22.2903 32.3977C21.8602 32.378 21.5302 32.0426 21.5302 31.6481V30.8886L21.3502 31.6283C21.2702 31.9736 20.9402 32.2103 20.5701 32.2103C20.5301 32.2103 20.4801 32.2103 20.4401 32.2004C19.8601 32.1117 19.2901 31.9834 18.73 31.8355C18.32 31.727 18.08 31.3324 18.17 30.9477L18.35 30.208L18 30.8886C17.86 31.1549 17.5699 31.3127 17.2699 31.3127C17.1699 31.3127 17.0599 31.293 16.9599 31.2535C16.4199 31.0464 15.8898 30.8097 15.3798 30.5433C15.0098 30.3559 14.8597 29.9219 15.0498 29.5668L15.3998 28.8862L14.8897 29.4781C14.7297 29.6655 14.4997 29.7641 14.2597 29.7641C14.0997 29.7641 13.9397 29.7148 13.7997 29.626C13.3196 29.3104 12.8696 28.9652 12.4296 28.6101C12.1096 28.3437 12.0696 27.8999 12.3396 27.5842L12.8496 26.9924L12.2096 27.4659C12.0596 27.5744 11.8795 27.6336 11.7095 27.6336C11.4895 27.6336 11.2695 27.5448 11.1095 27.387C10.7195 26.9826 10.3594 26.5584 10.0194 26.1146C9.76939 25.7891 9.8394 25.3452 10.1794 25.0986L10.8195 24.6251L10.0894 24.9506C9.97941 25 9.8594 25.0296 9.73939 25.0296C9.45937 25.0296 9.17935 24.8915 9.03934 24.6449C8.81933 24.2799 8.61931 23.9051 8.4393 23.5204C8.27929 23.5401 8.10928 23.5401 7.94927 23.5401C7.0692 23.5401 6.18914 23.3034 5.4991 22.8004C5.29908 22.6623 5.25908 22.465 5.31908 22.3072C5.37909 22.1494 5.5291 22.0211 5.74911 21.9916C5.97913 21.962 6.19914 21.9126 6.42916 21.8633C5.15907 21.4688 4.00899 20.6402 3.39895 19.4862C3.16893 19.0621 3.47895 18.6971 3.88898 18.6971C3.95899 18.6971 4.02899 18.707 4.109 18.7267C4.149 18.7365 4.189 18.7464 4.22901 18.7661C4.29901 18.7859 4.35902 18.8056 4.42902 18.8253C4.37902 18.7859 4.33901 18.7464 4.28901 18.707C3.16893 17.7403 2.34888 16.4285 2.14886 14.9982C2.10886 14.7023 2.20887 14.4853 2.38888 14.3571C2.39888 14.3571 2.40888 14.3374 2.42888 14.3275C2.53889 14.2585 2.6589 14.2289 2.79891 14.2289C2.96892 14.2289 3.14893 14.288 3.30894 14.4064C3.49896 14.5445 3.69897 14.6826 3.89898 14.8207C2.81891 13.2721 2.28887 11.2994 2.6789 9.47458C2.76891 9.06031 3.06893 8.85317 3.38895 8.85317C3.56896 8.85317 3.75897 8.92222 3.91899 9.04058C3.99899 9.09976 4.069 9.17867 4.129 9.26745C4.24901 9.44499 4.36902 9.62254 4.49903 9.79022C3.96899 7.92599 4.099 5.82503 5.02906 4.13835C5.04906 4.09889 5.06907 4.05944 5.08907 4.01998C5.16907 3.88189 5.24908 3.75367 5.33908 3.62544C5.5191 3.35912 5.76911 3.24076 5.99913 3.24076C6.06914 3.24076 6.13914 3.25062 6.19914 3.27035C6.30915 3.29994 6.40916 3.34926 6.49917 3.42816C6.65918 3.55639 6.77918 3.75367 6.82919 3.99039C6.90919 4.37508 6.9992 4.76962 7.10921 5.1543C7.54924 6.71276 8.25929 8.23176 9.19935 9.55349C9.26936 9.65213 9.33936 9.75077 9.40937 9.83954C9.51938 9.79022 9.63938 9.77049 9.75939 9.77049C9.8794 9.77049 9.99941 9.79022 10.1094 9.8494L10.8395 10.1749L10.1994 9.70145C9.8694 9.45486 9.79939 9.00113 10.0394 8.68549C10.3794 8.24163 10.7395 7.81749 11.1295 7.41308C11.2895 7.2454 11.5095 7.16649 11.7295 7.16649C11.9095 7.16649 12.0896 7.21581 12.2296 7.33417L12.8696 7.80763L12.3596 7.21581C12.0896 6.91003 12.1296 6.45631 12.4496 6.18999C12.8896 5.82503 13.3396 5.48967 13.8197 5.17403C13.9597 5.08526 14.1197 5.03594 14.2797 5.03594C14.5197 5.03594 14.7497 5.13458 14.9098 5.32199L15.4198 5.91381L15.0698 5.23321C14.8897 4.87812 15.0298 4.44412 15.3998 4.25671C15.9098 3.99039 16.4399 3.75367 16.9799 3.54653C17.0799 3.50707 17.1799 3.48735 17.2899 3.48735C17.5899 3.48735 17.88 3.64517 18.02 3.91148L18.37 4.59208L18.19 3.8523C18.1 3.46762 18.34 3.07307 18.75 2.96457C19.3101 2.81662 19.8801 2.69825 20.4601 2.59962C20.5101 2.59962 20.5501 2.58975 20.5901 2.58975C20.9602 2.58975 21.2902 2.82648 21.3702 3.17171L21.5502 3.90162V3.15198C21.5502 2.75744 21.8802 2.42207 22.3103 2.40235C22.6003 2.39248 22.8903 2.38262 23.1903 2.38262M23.1503 0.409888C22.8203 0.409888 22.5003 0.409888 22.1703 0.429615C21.8102 0.449343 21.4602 0.528252 21.1502 0.676207C20.9602 0.636752 20.7602 0.617025 20.5501 0.617025C20.4001 0.617025 20.2501 0.626888 20.1001 0.656479C19.4601 0.755116 18.81 0.893207 18.19 1.06089C17.84 1.15953 17.5199 1.30748 17.2399 1.51462C16.8899 1.51462 16.5399 1.58366 16.2098 1.71189C15.6098 1.94862 15.0098 2.21494 14.4397 2.51085C14.1197 2.67853 13.8497 2.88566 13.6297 3.14212C13.2896 3.22103 12.9596 3.35912 12.6696 3.54653C12.1396 3.90162 11.6195 4.2863 11.1295 4.69071C10.8595 4.91758 10.6395 5.18389 10.4794 5.4798C10.1694 5.62776 9.8894 5.82503 9.64938 6.07162C9.60938 6.11108 9.57938 6.15053 9.53938 6.18012C9.32936 5.67708 9.13935 5.16417 8.98934 4.63153C8.89933 4.29617 8.80933 3.9608 8.74932 3.62544C8.61931 2.95471 8.25929 2.35303 7.73925 1.92889C7.43923 1.6823 7.08921 1.49489 6.71918 1.39625C6.46916 1.32721 6.21915 1.28775 5.95913 1.28775C5.02906 1.28775 4.189 1.74148 3.63897 2.53057C3.51896 2.69826 3.40895 2.8758 3.30894 3.05335L3.21894 3.2013C2.55889 4.38494 2.19887 5.74612 2.13886 7.15663C1.40881 7.51172 0.868773 8.20217 0.67876 9.05045C0.39874 10.3426 0.458745 11.7136 0.82877 13.0354C0.268731 13.6173 0.00871333 14.4163 0.128722 15.2645C0.288733 16.389 0.718763 17.4839 1.38881 18.4702C1.1888 19.0916 1.2588 19.7821 1.57882 20.3936C1.97885 21.1531 2.55889 21.8337 3.25894 22.396C3.24894 23.1555 3.60896 23.8952 4.27901 24.3786C5.09907 24.9704 6.10914 25.3452 7.18921 25.4636C7.21922 25.5227 7.24922 25.5721 7.28922 25.6312C7.46923 25.9272 7.68925 26.1836 7.95927 26.3907C8.04927 26.7162 8.19928 27.022 8.4193 27.2982C8.79932 27.7914 9.21935 28.2747 9.64938 28.7383C9.8894 28.9849 10.1694 29.192 10.4794 29.3301C10.6395 29.626 10.8595 29.8923 11.1295 30.1192C11.6195 30.5236 12.1396 30.9083 12.6696 31.2634C12.9596 31.4607 13.2896 31.5988 13.6297 31.6678C13.8497 31.9243 14.1197 32.1314 14.4397 32.2991C15.0098 32.595 15.6098 32.8613 16.2098 33.098C16.5399 33.2262 16.8799 33.2953 17.2399 33.2953C17.5199 33.4926 17.83 33.6504 18.19 33.749C18.81 33.9167 19.4601 34.0548 20.1001 34.1534C20.2501 34.1732 20.4001 34.1929 20.5501 34.1929C20.7602 34.1929 20.9602 34.1732 21.1502 34.1337C21.4602 34.2718 21.8102 34.3606 22.1703 34.3803C22.4903 34.4 22.8203 34.4 23.1503 34.4C23.4803 34.4 23.8004 34.4 24.1304 34.3803C24.4904 34.3606 24.8404 34.2817 25.1505 34.1436C25.3405 34.183 25.5405 34.2028 25.7505 34.2028C25.9005 34.2028 26.0505 34.1929 26.2005 34.1633C26.8406 34.0647 27.4906 33.9266 28.1107 33.7589C28.4607 33.6603 28.7807 33.5123 29.0607 33.3052C29.4108 33.3052 29.7608 33.2361 30.0908 33.1079C30.6908 32.8712 31.2909 32.6048 31.8609 32.3089C32.181 32.1412 32.451 31.9341 32.671 31.6777C33.011 31.5988 33.341 31.4607 33.6311 31.2733C34.1611 30.9182 34.6811 30.5335 35.1712 30.1291C35.4412 29.9022 35.6612 29.6359 35.8212 29.34C36.1312 29.192 36.4112 28.9947 36.6513 28.7482C37.0913 28.2944 37.5013 27.8111 37.8813 27.3081C38.0914 27.0319 38.2414 26.7261 38.3414 26.4006C38.6114 26.1935 38.8414 25.937 39.0114 25.6411C39.0514 25.5721 39.0914 25.503 39.1314 25.4241C40.0815 25.2663 40.9716 24.9112 41.7016 24.3786C42.3617 23.8952 42.7317 23.1555 42.7217 22.396C43.4217 21.8337 44.0018 21.1531 44.4018 20.3936C44.7318 19.7821 44.7918 19.0916 44.5918 18.4702C45.2619 17.4839 45.6919 16.3989 45.8519 15.2645C45.9719 14.4064 45.7019 13.5976 45.1419 13.0354C45.5219 11.7038 45.5719 10.3426 45.2919 9.05045C45.1019 8.19231 44.5518 7.51172 43.8318 7.15663C43.7618 5.46994 43.2517 3.84244 42.3317 2.52071C41.7816 1.73162 40.9416 1.27789 40.0115 1.27789C38.6614 1.27789 37.4913 2.26425 37.2213 3.62544C37.0613 4.41453 36.8313 5.19376 36.5213 5.95326C36.3112 5.75599 36.0612 5.5883 35.8012 5.46994C35.6412 5.17403 35.4212 4.90771 35.1512 4.68085C34.6611 4.27644 34.1411 3.89176 33.6111 3.53667C33.321 3.33939 32.991 3.2013 32.651 3.13226C32.431 2.8758 32.161 2.6588 31.8409 2.50098C31.2709 2.20507 30.6708 1.93875 30.0708 1.70203C29.7408 1.5738 29.4008 1.50475 29.0407 1.50475C28.7607 1.30748 28.4507 1.14966 28.0907 1.05103C27.4606 0.883343 26.8206 0.745252 26.1805 0.646616C26.0305 0.626888 25.8805 0.607161 25.7305 0.607161C25.5205 0.607161 25.3205 0.626888 25.1305 0.666343C24.8204 0.528252 24.4704 0.439479 24.1104 0.419752C23.7904 0.400024 23.4603 0.400024 23.1303 0.400024L23.1503 0.409888Z"
        fill="#875230" />
    <g clip-path="url(#clip0_65_3836)">
        <path
            d="M38.1975 14.924C38.1035 14.3759 37.98 13.8379 37.8285 13.3114C37.7173 12.9247 37.3178 12.6938 36.9224 12.7832L36.1643 12.9548L36.8647 12.6204C37.2302 12.4459 37.3971 12.0181 37.2411 11.6468C37.0263 11.1357 36.7842 10.6387 36.5166 10.1576C36.3209 9.80577 35.8802 9.66929 35.5152 9.84356L34.816 10.1774L35.4215 9.69855C35.7388 9.44767 35.8056 8.99358 35.5698 8.66601C35.2465 8.21686 34.8991 7.78589 34.5296 7.37486C34.2599 7.07487 33.7994 7.03883 33.4825 7.2894L32.8782 7.76732L33.3602 7.16798C33.6129 6.8538 33.5766 6.397 33.2741 6.12954C32.8596 5.76307 32.4252 5.41852 31.9723 5.09788C31.6421 4.86406 31.1842 4.93023 30.9311 5.24489L30.4482 5.84542L30.7849 5.15209C30.9607 4.79016 30.823 4.35297 30.4684 4.15893C29.9832 3.89355 29.4822 3.65335 28.9669 3.44026C28.5924 3.28544 28.1612 3.45102 27.9851 3.81343L27.6479 4.50787L27.821 3.75603C27.9112 3.36396 27.6784 2.96775 27.2885 2.85734C26.7577 2.70715 26.2151 2.58462 25.6626 2.49126C25.2631 2.42382 24.8805 2.68028 24.7904 3.07203L24.6178 3.82196V3.05417C24.6178 2.65198 24.3018 2.31707 23.8968 2.29555C23.6209 2.28096 23.3431 2.27347 23.0636 2.27347C22.7841 2.27347 22.5063 2.28096 22.2305 2.29563C21.8255 2.31715 21.5095 2.65206 21.5095 3.05425V3.81662L21.3382 3.07203C21.2481 2.68028 20.8654 2.42382 20.466 2.49118C19.9134 2.58446 19.3708 2.70691 18.84 2.8571C18.45 2.96743 18.2172 3.36364 18.3074 3.75571L18.4804 4.50755L18.1432 3.81311C17.9673 3.45062 17.5359 3.28504 17.1615 3.43978C16.6461 3.65279 16.145 3.89291 15.6599 4.1583C15.3052 4.35234 15.1675 4.78944 15.3433 5.15145L15.6799 5.84486L15.197 5.24433C14.9441 4.92967 14.4862 4.86342 14.1559 5.09724C13.703 5.41788 13.2684 5.76243 12.854 6.12882C12.5515 6.39629 12.5152 6.853 12.7678 7.16726L13.2497 7.76668L12.6454 7.28868C12.3286 7.03812 11.868 7.07407 11.5983 7.37406C11.2288 7.7851 10.8813 8.21598 10.558 8.66513C10.3223 8.99262 10.389 9.44671 10.7063 9.69767L11.3118 10.1766L10.6127 9.84268C10.2477 9.66833 9.80692 9.80481 9.61126 10.1566C9.34366 10.6377 9.10146 11.1346 8.88659 11.6457C8.73049 12.0171 8.89745 12.4448 9.26287 12.6193L9.96311 12.9538L9.205 12.7821C8.80967 12.6926 8.41015 12.9235 8.29882 13.3102C8.14738 13.8366 8.02382 14.3747 7.92969 14.9227C7.86169 15.3188 8.12029 15.6983 8.5153 15.7877L9.27148 15.9588H8.49729C8.09167 15.9588 7.75405 16.2722 7.73235 16.6738C7.71764 16.9474 7.71008 17.2229 7.71008 17.5001C7.71008 17.7772 7.71764 18.0528 7.73243 18.3263C7.75413 18.7279 8.09183 19.0413 8.49737 19.0413H9.26609L8.51522 19.2112C8.12021 19.3005 7.86161 19.68 7.92953 20.0761C8.02358 20.6242 8.14705 21.1623 8.2985 21.6887C8.40975 22.0755 8.80926 22.3063 9.2046 22.2169L9.9627 22.0453L9.26239 22.3797C8.89688 22.5543 8.72992 22.982 8.88595 23.3534C9.10074 23.8645 9.34286 24.3614 9.61046 24.8425C9.80611 25.1944 10.2469 25.3308 10.6119 25.1566L11.3111 24.8227L10.7055 25.3016C10.3883 25.5525 10.3215 26.0065 10.5572 26.3341C10.8805 26.7833 11.228 27.2142 11.5974 27.6253C11.8671 27.9253 12.3276 27.9613 12.6445 27.7107L13.2488 27.2328L12.7668 27.8321C12.5142 28.1463 12.5504 28.6031 12.8529 28.8706C13.2674 29.2371 13.7019 29.5816 14.1548 29.9022C14.485 30.1361 14.9429 30.0699 15.1959 29.7552L15.6789 29.1547L15.3421 29.848C15.1663 30.21 15.304 30.6471 15.6587 30.8412C16.1438 31.1066 16.6448 31.3468 17.1602 31.5599C17.5346 31.7147 17.9659 31.5491 18.1419 31.1867L18.4791 30.4923L18.3061 31.2441C18.2158 31.6362 18.4486 32.0324 18.8385 32.1428C19.3693 32.293 19.9119 32.4155 20.4645 32.5089C20.8639 32.5763 21.2465 32.3198 21.3367 31.9281L21.5092 31.1782V31.946C21.5092 32.3482 21.8252 32.683 22.2302 32.7046C22.5063 32.7192 22.7841 32.7267 23.0636 32.7267C23.3431 32.7267 23.6209 32.7192 23.8967 32.7045C24.3016 32.683 24.6176 32.3481 24.6176 31.9459V31.1835L24.7889 31.9282C24.879 32.3199 25.2617 32.5764 25.6611 32.509C26.2138 32.4157 26.7563 32.2933 27.2871 32.1431C27.6771 32.0328 27.9099 31.6366 27.8197 31.2445L27.6467 30.4927L27.9839 31.1872C28.1599 31.5497 28.5912 31.7152 28.9656 31.5604C29.481 31.3474 29.9821 31.1073 30.4672 30.8419C30.822 30.6479 30.9596 30.2108 30.7839 29.8487L30.4472 29.1553L30.9301 29.7559C31.1831 30.0705 31.6409 30.1368 31.9712 29.903C32.4241 29.5823 32.8587 29.2378 33.2731 28.8714C33.5756 28.6039 33.612 28.1472 33.3593 27.8329L32.8774 27.2335L33.4817 27.7115C33.7985 27.9621 34.2591 27.9261 34.5288 27.6261C34.8984 27.2151 35.2458 26.7842 35.5691 26.3351C35.8049 26.0076 35.7381 25.5535 35.4209 25.3025L34.8153 24.8236L35.5144 25.1575C35.8794 25.3319 36.3202 25.1953 36.5159 24.8436C36.7835 24.3626 37.0257 23.8656 37.2405 23.3545C37.3966 22.9832 37.2297 22.5554 36.8643 22.3809L36.164 22.0464L36.9221 22.2181C37.3175 22.3076 37.717 22.0767 37.8283 21.69C37.9797 21.1636 38.1033 20.6255 38.1974 20.0775C38.2654 19.6814 38.0068 19.3019 37.6118 19.2125L36.8556 19.0414H37.6298C38.0355 19.0414 38.3731 18.728 38.3948 18.3264C38.4095 18.0528 38.417 17.7772 38.417 17.5001C38.417 17.2229 38.4095 16.9474 38.3947 16.6738C38.373 16.2722 38.0353 15.9588 37.6298 15.9588H36.861L37.6119 15.7889C38.0069 15.6996 38.2655 15.3201 38.1975 14.924Z"
            fill="url(#paint0_linear_65_3836)" />
        <path
            d="M23.0635 31.8232C31.0398 31.8232 37.5059 25.4105 37.5059 17.5001C37.5059 9.58962 31.0398 3.17694 23.0635 3.17694C15.0871 3.17694 8.62097 9.58962 8.62097 17.5001C8.62097 25.4105 15.0871 31.8232 23.0635 31.8232Z"
            fill="url(#paint1_linear_65_3836)" />
        <path
            d="M23.0635 28.7938C29.3529 28.7938 34.4514 23.7374 34.4514 17.5001C34.4514 11.2627 29.3529 6.20633 23.0635 6.20633C16.7742 6.20633 11.6757 11.2627 11.6757 17.5001C11.6757 23.7374 16.7742 28.7938 23.0635 28.7938Z"
            fill="url(#paint2_linear_65_3836)" />
        <path
            d="M7.70996 17.5001C7.70996 17.7773 7.71752 18.0528 7.73231 18.3263C7.75401 18.7279 8.09171 19.0413 8.49725 19.0413H9.26597L8.51509 19.2112C8.12008 19.3006 7.86149 19.68 7.92941 20.0762C8.02346 20.6242 8.14693 21.1623 8.29838 21.6887C8.40963 22.0755 8.80914 22.3063 9.20447 22.2169L9.96258 22.0453L9.26227 22.3798C8.89676 22.5543 8.7298 22.982 8.88583 23.3534C9.10062 23.8645 9.34274 24.3614 9.61034 24.8426C9.80599 25.1944 10.2467 25.3308 10.6118 25.1566L11.311 24.8227L10.7054 25.3016C10.3881 25.5525 10.3213 26.0066 10.5571 26.3341C10.8804 26.7833 11.2278 27.2142 11.5973 27.6253C11.867 27.9253 12.3275 27.9613 12.6444 27.7107L13.2487 27.2328L12.7667 27.8322C12.5141 28.1464 12.5503 28.6031 12.8528 28.8706C13.2673 29.2371 13.7018 29.5816 14.1546 29.9023C14.4849 30.1361 14.9427 30.0699 15.1958 29.7552L15.6787 29.1547L15.342 29.848C15.1662 30.21 15.3038 30.6472 15.6586 30.8412C16.1437 31.1066 16.6447 31.3468 17.1601 31.5599C17.5345 31.7147 17.9658 31.5491 18.1418 31.1867L18.479 30.4923L18.306 31.2441C18.2157 31.6362 18.4485 32.0324 18.8384 32.1428C19.3692 32.293 19.9118 32.4155 20.4644 32.5089C20.8638 32.5763 21.2464 32.3198 21.3365 31.9281L21.5091 31.1782V31.946C21.5091 32.3482 21.8251 32.6831 22.2301 32.7046C22.5061 32.7192 22.7839 32.7267 23.0634 32.7267C23.3429 32.7267 23.6207 32.7192 23.8965 32.7045C24.3015 32.683 24.6175 32.3481 24.6175 31.9459V31.1835L24.7888 31.9282C24.8789 32.3199 25.2616 32.5764 25.661 32.509C26.2136 32.4158 26.7562 32.2933 27.287 32.1431C27.677 32.0328 27.9098 31.6366 27.8196 31.2445L27.6466 30.4927L27.9838 31.1872C28.1597 31.5497 28.5911 31.7153 28.9655 31.5604C29.4809 31.3474 29.982 31.1073 30.4671 30.8419C30.8218 30.6479 30.9595 30.2108 30.7837 29.8488L30.4471 29.1553L30.93 29.7559C31.1829 30.0705 31.6408 30.1368 31.971 29.903C32.424 29.5823 32.8585 29.2378 33.2729 28.8714C33.5754 28.6039 33.6118 28.1472 33.3591 27.8329L32.8772 27.2335L33.4815 27.7115C33.7983 27.9621 34.2589 27.9261 34.5286 27.6262C34.8982 27.2151 35.2456 26.7842 35.5689 26.3351C35.8047 26.0076 35.7379 25.5535 35.4207 25.3025L34.8151 24.8236L35.5143 25.1575C35.8793 25.3319 36.3201 25.1953 36.5157 24.8436C36.7833 24.3626 37.0255 23.8656 37.2404 23.3545C37.3965 22.9832 37.2296 22.5554 36.8641 22.3809L36.1639 22.0464L36.922 22.2181C37.3173 22.3076 37.7168 22.0767 37.8282 21.69C37.9797 21.1636 38.1032 20.6255 38.1973 20.0775C38.2653 19.6814 38.0067 19.3019 37.6117 19.2125L36.8555 19.0414H37.6297C38.0353 19.0414 38.3729 18.728 38.3947 18.3264C38.4094 18.0528 38.4169 17.7773 38.4169 17.5001C38.4169 17.3947 38.4148 17.2898 38.4127 17.1849H7.71422C7.71205 17.2898 7.70996 17.3947 7.70996 17.5001Z"
            fill="url(#paint3_linear_65_3836)" />
        <path
            d="M23.0636 17.9558C22.855 17.9558 22.6858 18.1235 22.6858 18.3305V19.952C22.6858 20.6317 22.7304 21.3047 22.8187 21.9693H23.5811C23.4882 21.3052 23.4415 20.6321 23.4415 19.952V18.3305C23.4415 18.1235 23.2723 17.9558 23.0636 17.9558Z"
            fill="url(#paint4_linear_65_3836)" />
        <path
            d="M34.9276 18.8843L26.553 10.5789L16.0847 20.9607L21.6678 28.5739C24.4593 29.2661 27.9488 27.8818 30.0424 26.4976C31.7173 25.3902 33.9971 20.9607 34.9276 18.8843Z"
            fill="url(#paint5_linear_65_3836)" fill-opacity="0.53" />
        <path
            d="M21.8135 11.1613L21.767 11.126C20.8814 10.4502 19.7422 10.3922 19.0367 10.9992C19.0282 11.0064 19.0198 11.0137 19.0118 11.0209C18.9861 11.0438 18.9608 11.0674 18.9365 11.0915C18.5492 11.4756 18.3523 12.0055 18.382 12.5836C18.3874 12.6881 18.4 12.792 18.4196 12.8946C18.3161 12.8752 18.2114 12.8627 18.106 12.8574C17.523 12.8279 16.9887 13.0231 16.6015 13.4073C16.5772 13.4313 16.5534 13.4565 16.5303 13.4819C16.523 13.4899 16.5156 13.4982 16.5084 13.5066C15.8963 14.2063 15.9548 15.336 16.6363 16.2143L16.6719 16.2605C17.441 17.2517 18.6801 17.7642 19.7579 17.5287C19.7776 17.5244 19.7976 17.5199 19.8176 17.5154C20.8527 17.2811 21.8858 17.2353 22.7491 17.5538C23.0021 17.6472 23.2119 17.4391 23.1177 17.1882C22.7965 16.3321 22.8427 15.3076 23.079 14.281C23.0836 14.2612 23.088 14.2413 23.0924 14.2218C23.3298 13.1529 22.813 11.9241 21.8135 11.1613Z"
            fill="#FEE45A" />
        <path
            d="M23.1178 17.1881C22.7966 16.3321 22.8428 15.3075 23.0791 14.2809C23.0837 14.2611 23.0881 14.2412 23.0925 14.2217C23.3299 13.1528 22.8131 11.924 21.8137 11.1612L21.7672 11.1259C20.8816 10.45 19.7424 10.392 19.0369 10.9991C19.0284 11.0062 19.02 11.0135 19.0119 11.0207C18.9863 11.0436 18.961 11.0673 18.9367 11.0914C18.5494 11.4755 18.3525 12.0053 18.3822 12.5834C18.3876 12.6879 18.4002 12.7919 18.4198 12.8945L23.0637 17.5C23.136 17.4284 23.1649 17.3136 23.1178 17.1881Z"
            fill="#FEE45A" />
        <path
            d="M21.8135 11.1613L21.767 11.1259C21.0759 10.5986 20.2306 10.4474 19.5573 10.6949L20.1806 17.4412C21.0922 17.2754 21.9868 17.2725 22.7489 17.5538C23.0019 17.6471 23.2117 17.4391 23.1176 17.1882C22.7964 16.3321 22.8426 15.3075 23.0789 14.2809C23.0835 14.2611 23.0879 14.2412 23.0922 14.2217C23.3298 13.1529 22.813 11.924 21.8135 11.1613Z"
            fill="#FEE45A" />
        <path
            d="M17.4639 17.009C18.1619 17.4898 18.9998 17.6943 19.7579 17.5286C19.7776 17.5243 19.7976 17.5198 19.8176 17.5153C20.8527 17.281 21.8859 17.2352 22.7491 17.5537C23.0021 17.6471 23.2119 17.439 23.1177 17.1881C22.7965 16.332 22.8427 15.3075 23.079 14.2809C23.0836 14.2611 23.088 14.2412 23.0924 14.2217C23.2594 13.4698 23.0532 12.6389 22.5684 11.9466L17.4639 17.009Z"
            fill="#FEE45A" />
        <path
            d="M29.4554 18.74L29.491 18.7861C30.1724 19.6644 30.231 20.7942 29.6189 21.4938C29.6116 21.5023 29.6042 21.5106 29.597 21.5186C29.5739 21.544 29.5501 21.5691 29.5258 21.5932C29.1385 21.9773 28.6042 22.1726 28.0213 22.1431C27.9159 22.1378 27.8111 22.1252 27.7077 22.1058C27.7272 22.2084 27.7399 22.3124 27.7452 22.4169C27.7749 22.995 27.5781 23.5249 27.1907 23.9089C27.1665 23.933 27.1411 23.9566 27.1155 23.9796C27.1075 23.9868 27.0991 23.994 27.0905 24.0012C26.3851 24.6083 25.2459 24.5503 24.3603 23.8744L24.3138 23.8391C23.3143 23.0763 22.7975 21.8475 23.035 20.7786C23.0393 20.7591 23.0438 20.7392 23.0483 20.7194C23.2846 19.6928 23.3308 18.6682 23.0096 17.8121C22.9154 17.5612 23.1253 17.3532 23.3782 17.4465C24.2415 17.7651 25.2746 17.7193 26.3098 17.4849C26.3297 17.4804 26.3497 17.476 26.3694 17.4717C27.4472 17.2362 28.6862 17.7488 29.4554 18.74Z"
            fill="#FEE45A" />
        <path
            d="M23.3781 17.4464C24.2414 17.765 25.2745 17.7191 26.3096 17.4848C26.3296 17.4802 26.3496 17.4758 26.3693 17.4715C27.4471 17.236 28.6861 17.7486 29.4553 18.7398L29.491 18.7859C30.1724 19.6641 30.2309 20.794 29.6188 21.4936C29.6116 21.502 29.6042 21.5104 29.5969 21.5183C29.5739 21.5438 29.55 21.5689 29.5257 21.593C29.1384 21.9771 28.6042 22.1723 28.0212 22.1429C27.9159 22.1375 27.8111 22.125 27.7076 22.1056L23.0637 17.5001C23.1359 17.4284 23.2516 17.3997 23.3781 17.4464Z"
            fill="#FEE45A" />
        <path
            d="M29.4553 18.7398L29.4909 18.7859C30.0227 19.4713 30.1751 20.3096 29.9256 20.9774L23.123 20.3592C23.2902 19.4552 23.2931 18.5679 23.0095 17.8121C22.9154 17.5612 23.1252 17.3531 23.3782 17.4465C24.2414 17.7651 25.2745 17.7193 26.3097 17.4849C26.3296 17.4803 26.3497 17.476 26.3694 17.4717C27.4471 17.2361 28.6862 17.7486 29.4553 18.7398Z"
            fill="#FEE45A" />
        <path
            d="M23.5588 23.0535C23.0739 22.3613 22.8678 21.5303 23.0349 20.7784C23.0392 20.7589 23.0437 20.739 23.0482 20.7193C23.2845 19.6927 23.3307 18.6681 23.0095 17.812C22.9153 17.5611 23.1251 17.353 23.3781 17.4464C24.2414 17.765 25.2745 17.7191 26.3096 17.4848C26.3296 17.4802 26.3496 17.4759 26.3693 17.4715C27.1275 17.3059 27.9653 17.5103 28.6634 17.9911L23.5588 23.0535Z"
            fill="#FEE45A" />
        <path
            d="M29.4554 16.2604L29.491 16.2143C30.1724 15.336 30.231 14.2062 29.6189 13.5066C29.6116 13.4981 29.6042 13.4898 29.597 13.4818C29.5739 13.4564 29.5501 13.4313 29.5258 13.4072C29.1385 13.0231 28.6042 12.8278 28.0213 12.8573C27.9159 12.8626 27.8111 12.8752 27.7077 12.8946C27.7272 12.792 27.7399 12.688 27.7452 12.5835C27.7749 12.0054 27.5781 11.4755 27.1907 11.0915C27.1665 11.0674 27.1411 11.0438 27.1155 11.0208C27.1075 11.0136 27.0991 11.0064 27.0905 10.9992C26.3851 10.3921 25.2459 10.4501 24.3603 11.126L24.3138 11.1613C23.3143 11.9241 22.7975 13.1529 23.035 14.2218C23.0393 14.2413 23.0438 14.2612 23.0483 14.281C23.2846 15.3076 23.3308 16.3322 23.0096 17.1883C22.9154 17.4392 23.1253 17.6472 23.3782 17.5539C24.2415 17.2353 25.2746 17.2811 26.3098 17.5155C26.3297 17.52 26.3497 17.5244 26.3694 17.5287C27.4472 17.7642 28.6862 17.2516 29.4554 16.2604Z"
            fill="#FEE45A" />
        <path
            d="M23.3781 17.5538C24.2414 17.2352 25.2745 17.281 26.3096 17.5154C26.3296 17.52 26.3496 17.5243 26.3693 17.5286C27.4471 17.7642 28.6861 17.2516 29.4553 16.2604L29.491 16.2143C30.1724 15.336 30.2309 14.2062 29.6188 13.5066C29.6116 13.4981 29.6042 13.4898 29.5969 13.4818C29.5739 13.4564 29.55 13.4313 29.5257 13.4072C29.1384 13.0231 28.6042 12.8278 28.0212 12.8573C27.9159 12.8626 27.8111 12.8752 27.7076 12.8946L23.0637 17.5001C23.1359 17.5718 23.2516 17.6005 23.3781 17.5538Z"
            fill="#FEE45A" />
        <path
            d="M29.4553 16.2604L29.4909 16.2143C30.0227 15.529 30.1751 14.6906 29.9256 14.0229L23.123 14.641C23.2902 15.5451 23.2931 16.4323 23.0095 17.1882C22.9154 17.4391 23.1252 17.6472 23.3782 17.5538C24.2414 17.2352 25.2745 17.281 26.3097 17.5154C26.3296 17.5199 26.3497 17.5243 26.3694 17.5286C27.4471 17.7642 28.6862 17.2517 29.4553 16.2604Z"
            fill="#FEE45A" />
        <path
            d="M23.5588 11.9467C23.0739 12.639 22.8678 13.4699 23.0349 14.2218C23.0392 14.2413 23.0437 14.2612 23.0482 14.2809C23.2845 15.3076 23.3307 16.3321 23.0095 17.1882C22.9153 17.4391 23.1251 17.6472 23.3781 17.5538C24.2414 17.2352 25.2745 17.2811 26.3096 17.5154C26.3296 17.52 26.3496 17.5244 26.3693 17.5287C27.1275 17.6943 27.9653 17.4899 28.6634 17.0091L23.5588 11.9467Z"
            fill="#FEE45A" />
        <path
            d="M21.8135 23.8392L21.767 23.8745C20.8814 24.5503 19.7422 24.6083 19.0367 24.0013C19.0282 23.9941 19.0198 23.9868 19.0118 23.9796C18.9861 23.9567 18.9608 23.9331 18.9365 23.909C18.5492 23.5249 18.3523 22.995 18.382 22.4169C18.3874 22.3124 18.4 22.2085 18.4196 22.1059C18.3161 22.1253 18.2114 22.1378 18.106 22.1431C17.523 22.1726 16.9887 21.9774 16.6015 21.5932C16.5772 21.5692 16.5534 21.544 16.5303 21.5186C16.523 21.5106 16.5156 21.5023 16.5084 21.4939C15.8963 20.7942 15.9548 19.6645 16.6363 18.7862L16.6719 18.74C17.441 17.7488 18.6801 17.2363 19.7579 17.4718C19.7776 17.4761 19.7976 17.4806 19.8176 17.485C20.8527 17.7194 21.8858 17.7652 22.7491 17.4467C23.0021 17.3533 23.2119 17.5614 23.1177 17.8123C22.7965 18.6683 22.8427 19.6929 23.079 20.7195C23.0836 20.7393 23.088 20.7592 23.0924 20.7787C23.3298 21.8476 22.813 23.0763 21.8135 23.8392Z"
            fill="#FEE45A" />
        <path
            d="M23.1178 17.812C22.7966 18.6681 22.8428 19.6927 23.0791 20.7193C23.0837 20.7391 23.0881 20.759 23.0925 20.7785C23.3299 21.8474 22.8131 23.0762 21.8137 23.839L21.7672 23.8743C20.8816 24.5501 19.7424 24.6082 19.0369 24.0011C19.0284 23.9939 19.02 23.9866 19.0119 23.9794C18.9863 23.9566 18.961 23.9329 18.9367 23.9088C18.5494 23.5247 18.3525 22.9949 18.3822 22.4168C18.3876 22.3122 18.4002 22.2083 18.4198 22.1057L23.0637 17.5002C23.136 17.5718 23.1649 17.6866 23.1178 17.812Z"
            fill="#FEE45A" />
        <path
            d="M21.8135 23.839L21.767 23.8743C21.0759 24.4016 20.2306 24.5528 19.5573 24.3054L20.1806 17.559C21.0922 17.7249 21.9868 17.7277 22.7489 17.4465C23.0019 17.3531 23.2117 17.5612 23.1176 17.8121C22.7964 18.6682 22.8426 19.6927 23.0789 20.7194C23.0835 20.7391 23.0879 20.759 23.0922 20.7785C23.3298 21.8474 22.813 23.0761 21.8135 23.839Z"
            fill="#FEE45A" />
        <path
            d="M17.4639 17.9912C18.1619 17.5104 18.9998 17.306 19.7579 17.4716C19.7776 17.4759 19.7976 17.4804 19.8176 17.4849C20.8527 17.7192 21.8859 17.7651 22.7491 17.4465C23.0021 17.3531 23.2119 17.5612 23.1177 17.8121C22.7965 18.6682 22.8427 19.6928 23.079 20.7194C23.0836 20.7391 23.088 20.759 23.0924 20.7785C23.2594 21.5304 23.0532 22.3614 22.5684 23.0536L17.4639 17.9912Z"
            fill="#FEE45A" />
        <path
            d="M13.2753 15.6487C13.5695 14.8402 13.3679 13.9365 12.75 13.3339C11.8557 12.4615 10.9461 11.5531 10.9461 11.5531C10.3324 10.9347 9.77112 10.2593 9.27045 9.54686C8.09534 7.87479 7.2856 5.89615 6.89876 3.91381C6.75166 3.16005 5.88302 2.84627 5.40761 3.54448C4.19154 5.33022 3.97615 7.7122 4.55895 9.79352C4.43255 9.61787 4.30982 9.4403 4.19244 9.26047C3.79374 8.64961 2.91806 8.67914 2.74973 9.45999C2.35145 11.3071 2.88852 13.3009 3.96508 14.8754C3.76324 14.7406 3.56554 14.6013 3.37344 14.4567C2.84894 14.062 2.1191 14.352 2.21734 15.0619C2.42623 16.5704 3.3084 17.9507 4.49554 18.9427C4.38707 18.9124 4.27913 18.8812 4.17234 18.8476C3.67076 18.6899 3.19969 19.1023 3.46567 19.6106C4.0741 20.7735 5.22995 21.6165 6.49933 22.0184C6.27462 22.0699 6.04895 22.1127 5.82352 22.1457C5.39119 22.2092 5.19103 22.6872 5.57625 22.9706C6.82439 23.8888 8.65684 23.9325 10.0262 23.2866C10.2731 23.1702 10.5668 23.2176 10.7679 23.4012C10.9724 23.5879 11.215 23.7288 11.4793 23.8144C12.3387 24.0928 13.263 23.6275 13.5437 22.7753C13.6788 22.365 13.6478 21.9161 13.4459 21.5338C12.2861 19.3377 12.7731 17.0286 13.2753 15.6487Z"
            fill="url(#paint6_linear_65_3836)" />
        <path
            d="M12.4581 18.0975C12.3478 17.8419 12.1614 17.6432 11.9329 17.4898C11.4635 17.1739 10.8192 17.0503 10.309 17.019C9.56666 16.9722 8.82443 16.8607 8.09923 16.6905C6.63564 16.3482 5.21368 15.7099 3.96608 14.8769C3.76375 14.7422 3.56558 14.6015 3.37311 14.4569C2.84897 14.0621 2.11908 14.3521 2.2172 15.0618C2.42591 16.5704 3.30808 17.9513 4.49552 18.9425C5.72651 19.2867 7.05792 19.4129 8.3338 19.2728C8.92581 19.2075 9.51438 19.0946 10.0864 18.9318C10.6704 18.7657 11.5304 18.6737 11.9961 19.1725C12.0773 19.2601 12.1371 19.3529 12.1761 19.4485C12.5084 19.0728 12.6763 18.603 12.4581 18.0975Z"
            fill="url(#paint7_linear_65_3836)" />
        <path
            d="M10.9461 11.5532C10.3326 10.935 9.77097 10.2594 9.27071 9.54691C8.09543 7.87448 7.28599 5.89602 6.89848 3.91374C6.75181 3.15992 5.88299 2.84643 5.40782 3.54447C4.19133 5.32973 3.97564 7.71219 4.55814 9.79333C5.56088 11.1871 6.84223 12.4395 8.29066 13.3784C8.9853 13.8284 9.71977 14.2244 10.4804 14.5523C10.728 14.6587 10.9999 14.7985 11.256 14.9703C11.5807 14.8185 11.842 14.5623 11.9755 14.1701C12.298 13.2225 11.573 12.1844 10.9461 11.5532Z"
            fill="url(#paint8_linear_65_3836)" />
        <path
            d="M12.3206 16.491C12.266 15.5443 11.2572 14.8869 10.4804 14.5523C9.71982 14.2243 8.98535 13.8284 8.29071 13.3783C6.66011 12.3215 5.24116 10.8672 4.19252 9.26055C3.79394 8.6494 2.91796 8.67875 2.74945 9.46002C2.35147 11.308 2.88824 13.303 3.96607 14.8768C5.21373 15.7099 6.63562 16.3482 8.09921 16.6905C8.82436 16.8606 9.56665 16.9722 10.3089 17.019C10.8192 17.0503 11.4635 17.1738 11.9329 17.4897C12.1889 17.2363 12.3447 16.9059 12.3206 16.491Z"
            fill="url(#paint9_linear_65_3836)" />
        <path
            d="M11.996 19.1726C11.5303 18.6737 10.6703 18.7657 10.0863 18.9319C9.51431 19.0946 8.92573 19.2076 8.33373 19.2729C6.94577 19.4254 5.49145 19.2623 4.17219 18.8473C3.67043 18.6898 3.19977 19.1024 3.46551 19.6108C4.07376 20.7734 5.22859 21.6164 6.49785 22.0181C7.4068 21.8109 8.29956 21.4542 9.08649 20.9599C9.50402 20.6976 9.90212 20.4006 10.2694 20.0725C10.6439 19.738 11.252 19.3582 11.7825 19.5622C12.0093 19.6495 12.1499 19.8087 12.2266 20.0017C12.2811 19.7113 12.2272 19.4201 11.996 19.1726Z"
            fill="url(#paint10_linear_65_3836)" />
        <path
            d="M11.7828 19.5623C11.2521 19.358 10.6439 19.7378 10.269 20.0727C9.90201 20.4006 9.50392 20.6976 9.08626 20.9599C8.10603 21.5755 6.96052 21.979 5.82356 22.1459C5.39123 22.2094 5.19106 22.6874 5.57629 22.9707C6.94638 23.9787 9.02062 23.9329 10.4135 23.0778C11.0987 22.6571 11.644 22.0661 12.0568 21.3504C12.3583 20.8274 12.498 19.8376 11.7828 19.5623Z"
            fill="url(#paint11_linear_65_3836)" />
        <path
            d="M32.9329 15.6486C32.6387 14.8402 32.8404 13.9365 33.4582 13.3338C34.3526 12.4615 35.2621 11.5531 35.2621 11.5531C35.8758 10.9347 36.4371 10.2593 36.9378 9.54685C38.1129 7.87477 38.9226 5.89613 39.3095 3.91385C39.4565 3.16009 40.3251 2.84631 40.8006 3.54446C42.0167 5.3302 42.2321 7.71218 41.6493 9.79357C41.7757 9.61791 41.8984 9.44034 42.0158 9.26051C42.4145 8.64965 43.2901 8.67919 43.4585 9.46003C43.8568 11.3071 43.3197 13.301 42.2431 14.8755C42.445 14.7406 42.6427 14.6013 42.8348 14.4568C43.3593 14.062 44.0891 14.352 43.9909 15.0619C43.782 16.5705 42.8998 17.9507 41.7127 18.9427C41.8211 18.9125 41.9291 18.8812 42.0359 18.8476C42.5374 18.6899 43.0085 19.1023 42.7425 19.6106C42.1341 20.7735 40.9783 21.6165 39.7089 22.0184C39.9336 22.0699 40.1593 22.1127 40.3847 22.1458C40.817 22.2093 41.0172 22.6872 40.632 22.9706C39.3838 23.8888 37.5514 23.9326 36.182 23.2866C35.9351 23.1702 35.6414 23.2177 35.4403 23.4012C35.2358 23.5879 34.9932 23.7288 34.7289 23.8145C33.8695 24.0929 32.9452 23.6276 32.6645 22.7753C32.5294 22.365 32.5604 21.9161 32.7623 21.5338C33.9221 19.3377 33.4351 17.0286 32.9329 15.6486Z"
            fill="url(#paint12_linear_65_3836)" />
        <path
            d="M32.9329 15.6486C32.6387 14.8402 32.8404 13.9365 33.4582 13.3338C34.3526 12.4615 35.2621 11.5531 35.2621 11.5531C35.8758 10.9347 36.4371 10.2593 36.9378 9.54685C38.1129 7.87477 38.9226 5.89613 39.3095 3.91385C39.4565 3.16009 40.3251 2.84631 40.8006 3.54446C42.0167 5.3302 42.2321 7.71218 41.6493 9.79357C41.7757 9.61791 41.8984 9.44034 42.0158 9.26051C42.4145 8.64965 43.2901 8.67919 43.4585 9.46003C43.8568 11.3071 43.3197 13.301 42.2431 14.8755C42.445 14.7406 42.6427 14.6013 42.8348 14.4568C43.3593 14.062 44.0891 14.352 43.9909 15.0619C43.782 16.5705 42.8998 17.9507 41.7127 18.9427C41.8211 18.9125 41.9291 18.8812 42.0359 18.8476C42.5374 18.6899 43.0085 19.1023 42.7425 19.6106C42.1341 20.7735 40.9783 21.6165 39.7089 22.0184C39.9336 22.0699 40.1593 22.1127 40.3847 22.1458C40.817 22.2093 41.0172 22.6872 40.632 22.9706C39.3838 23.8888 37.5514 23.9326 36.182 23.2866C35.9351 23.1702 35.6414 23.2177 35.4403 23.4012C35.2358 23.5879 34.9932 23.7288 34.7289 23.8145C33.8695 24.0929 32.9452 23.6276 32.6645 22.7753C32.5294 22.365 32.5604 21.9161 32.7623 21.5338C33.9221 19.3377 33.4351 17.0286 32.9329 15.6486Z"
            fill="url(#paint13_linear_65_3836)" />
        <path
            d="M33.7502 18.0975C33.8605 17.8418 34.0469 17.6431 34.2754 17.4897C34.7448 17.1739 35.3891 17.0503 35.8993 17.019C36.6416 16.9722 37.3839 16.8606 38.1091 16.6905C39.5727 16.3482 40.9946 15.7099 42.2422 14.8768C42.4445 14.7421 42.6427 14.6015 42.8352 14.4569C43.3593 14.0621 44.0892 14.3521 43.9911 15.0618C43.7824 16.5703 42.9002 17.9513 41.7128 18.9425C40.4818 19.2866 39.1504 19.4128 37.8745 19.2728C37.2825 19.2075 36.6939 19.0946 36.1219 18.9318C35.5379 18.7657 34.6779 18.6736 34.2123 19.1725C34.131 19.26 34.0712 19.3529 34.0322 19.4485C33.6999 19.0727 33.532 18.6029 33.7502 18.0975Z"
            fill="url(#paint14_linear_65_3836)" />
        <path
            d="M35.2621 11.5533C35.8757 10.9351 36.4373 10.2595 36.9375 9.54693C38.1128 7.87449 38.9223 5.89603 39.3098 3.91375C39.4565 3.15993 40.3253 2.84645 40.8004 3.54442C42.0169 5.32968 42.2326 7.7122 41.6501 9.79335C40.6474 11.1871 39.366 12.4395 37.9176 13.3784C37.2229 13.8284 36.4885 14.2244 35.7279 14.5523C35.4803 14.6587 35.2084 14.7985 34.9522 14.9703C34.6276 14.8185 34.3663 14.5623 34.2327 14.1701C33.9102 13.2225 34.6352 12.1845 35.2621 11.5533Z"
            fill="url(#paint15_linear_65_3836)" />
        <path
            d="M33.8877 16.4911C33.9423 15.5443 34.9511 14.8869 35.7279 14.5523C36.4884 14.2244 37.2229 13.8284 37.9176 13.3784C39.5482 12.3215 40.9671 10.8672 42.0157 9.26059C42.4143 8.64943 43.2903 8.67878 43.4588 9.46005C43.8568 11.308 43.32 13.303 42.2422 14.8769C40.9945 15.7099 39.5726 16.3482 38.1091 16.6905C37.3839 16.8606 36.6416 16.9722 35.8993 17.019C35.3891 17.0503 34.7447 17.1738 34.2754 17.4898C34.0194 17.2363 33.8635 16.9059 33.8877 16.4911Z"
            fill="url(#paint16_linear_65_3836)" />
        <path
            d="M34.2122 19.1726C34.6779 18.6737 35.5379 18.7657 36.1219 18.9319C36.6939 19.0946 37.2825 19.2076 37.8745 19.2729C39.2624 19.4254 40.7168 19.2623 42.036 18.8473C42.5378 18.6898 43.0084 19.1024 42.7427 19.6108C42.1344 20.7734 40.9796 21.6164 39.7103 22.0181C38.8014 21.8109 37.9086 21.4542 37.1217 20.9599C36.7042 20.6976 36.3061 20.4006 35.9388 20.0725C35.5643 19.738 34.9562 19.3582 34.4257 19.5622C34.1989 19.6495 34.0583 19.8087 33.9816 20.0017C33.9271 19.7113 33.981 19.4201 34.2122 19.1726Z"
            fill="url(#paint17_linear_65_3836)" />
        <path
            d="M34.4254 19.5623C34.9561 19.358 35.5644 19.7378 35.9393 20.0727C36.3062 20.4006 36.7043 20.6976 37.122 20.9599C38.1022 21.5755 39.2477 21.979 40.3847 22.1459C40.817 22.2094 41.0172 22.6874 40.632 22.9707C39.2619 23.9787 37.1876 23.9329 35.7948 23.0778C35.1095 22.6571 34.5643 22.0661 34.1515 21.3504C33.85 20.8274 33.7103 19.8376 34.4254 19.5623Z"
            fill="url(#paint18_linear_65_3836)" />
        <rect x="18.8762" y="13.3474" width="8.37462" height="8.30541" fill="#FEE45A" />
    </g>
    <defs>
        <linearGradient id="paint0_linear_65_3836" x1="34.9873" y1="29.3252" x2="11.8419"
            y2="5.98697" gradientUnits="userSpaceOnUse">
            <stop stop-color="#FEE45A" />
            <stop offset="1" stop-color="#FEA613" />
        </linearGradient>
        <linearGradient id="paint1_linear_65_3836" x1="15.6102" y1="10.1084" x2="32.8813"
            y2="27.5235" gradientUnits="userSpaceOnUse">
            <stop stop-color="#FEE45A" />
            <stop offset="1" stop-color="#FEA613" />
        </linearGradient>
        <linearGradient id="paint2_linear_65_3836" x1="31.3968" y1="25.7644" x2="15.4" y2="9.63436"
            gradientUnits="userSpaceOnUse">
            <stop stop-color="#FEE45A" />
            <stop offset="1" stop-color="#FEA613" />
        </linearGradient>
        <linearGradient id="paint3_linear_65_3836" x1="23.0634" y1="24.4357" x2="23.0634"
            y2="34.0901" gradientUnits="userSpaceOnUse">
            <stop stop-color="#FEA613" stop-opacity="0" />
            <stop offset="1" stop-color="#E94444" />
        </linearGradient>
        <linearGradient id="paint4_linear_65_3836" x1="23.1354" y1="21.1525" x2="23.0943"
            y2="18.3583" gradientUnits="userSpaceOnUse">
            <stop stop-color="#FEA613" stop-opacity="0" />
            <stop offset="0.2032" stop-color="#FDA215" stop-opacity="0.203" />
            <stop offset="0.4052" stop-color="#FB961B" stop-opacity="0.405" />
            <stop offset="0.6066" stop-color="#F68225" stop-opacity="0.607" />
            <stop offset="0.8066" stop-color="#F06633" stop-opacity="0.807" />
            <stop offset="1" stop-color="#E94444" />
            <stop offset="1" stop-color="#8C3B00" />
        </linearGradient>
        <linearGradient id="paint5_linear_65_3836" x1="20.9699" y1="14.7316" x2="30.6486"
            y2="25.8851" gradientUnits="userSpaceOnUse">
            <stop stop-color="#F16C37" />
            <stop offset="0.516666" stop-color="#F7902F" />
            <stop offset="1" stop-color="#C37A00" stop-opacity="0" />
        </linearGradient>
        <linearGradient id="paint6_linear_65_3836" x1="5.30892" y1="10.8894" x2="12.4059"
            y2="25.0005" gradientUnits="userSpaceOnUse">
            <stop stop-color="#F9F7F8" />
            <stop offset="1" stop-color="#E5E1E5" />
        </linearGradient>
        <linearGradient id="paint7_linear_65_3836" x1="6.96536" y1="17.9486" x2="6.15171"
            y2="20.4574" gradientUnits="userSpaceOnUse">
            <stop stop-color="#9B8E99" stop-opacity="0" />
            <stop offset="0.3465" stop-color="#978A95" stop-opacity="0.347" />
            <stop offset="0.7135" stop-color="#8A7F88" stop-opacity="0.714" />
            <stop offset="1" stop-color="#7B7179" />
        </linearGradient>
        <linearGradient id="paint8_linear_65_3836" x1="7.59078" y1="9.83794" x2="4.67154"
            y2="12.3148" gradientUnits="userSpaceOnUse">
            <stop stop-color="#9B8E99" stop-opacity="0" />
            <stop offset="0.3465" stop-color="#978A95" stop-opacity="0.347" />
            <stop offset="0.7135" stop-color="#8A7F88" stop-opacity="0.714" />
            <stop offset="1" stop-color="#7B7179" />
        </linearGradient>
        <linearGradient id="paint9_linear_65_3836" x1="6.567" y1="14.1711" x2="4.21813" y2="16.7552"
            gradientUnits="userSpaceOnUse">
            <stop stop-color="#9B8E99" stop-opacity="0" />
            <stop offset="0.3465" stop-color="#978A95" stop-opacity="0.347" />
            <stop offset="0.7135" stop-color="#8A7F88" stop-opacity="0.714" />
            <stop offset="1" stop-color="#7B7179" />
        </linearGradient>
        <linearGradient id="paint10_linear_65_3836" x1="7.42778" y1="20.6852" x2="6.80227"
            y2="22.6139" gradientUnits="userSpaceOnUse">
            <stop stop-color="#9B8E99" stop-opacity="0" />
            <stop offset="0.3465" stop-color="#978A95" stop-opacity="0.347" />
            <stop offset="0.7135" stop-color="#8A7F88" stop-opacity="0.714" />
            <stop offset="1" stop-color="#7B7179" />
        </linearGradient>
        <linearGradient id="paint11_linear_65_3836" x1="8.87161" y1="21.9446" x2="9.13978"
            y2="24.2376" gradientUnits="userSpaceOnUse">
            <stop stop-color="#9B8E99" stop-opacity="0" />
            <stop offset="0.3465" stop-color="#978A95" stop-opacity="0.347" />
            <stop offset="0.7135" stop-color="#8A7F88" stop-opacity="0.714" />
            <stop offset="1" stop-color="#7B7179" />
        </linearGradient>
        <linearGradient id="paint12_linear_65_3836" x1="40.9101" y1="10.8829" x2="33.8131"
            y2="24.994" gradientUnits="userSpaceOnUse">
            <stop stop-color="#F9F7F8" />
            <stop offset="1" stop-color="#E5E1E5" />
        </linearGradient>
        <linearGradient id="paint13_linear_65_3836" x1="35.5891" y1="17.7378" x2="33.0437"
            y2="20.3444" gradientUnits="userSpaceOnUse">
            <stop stop-color="#F2F2F2" stop-opacity="0" />
            <stop offset="0.346666" stop-color="#DDDADD" stop-opacity="0.347" />
            <stop offset="0.7135" stop-color="#CDC7CC" stop-opacity="0.714" />
            <stop offset="1" stop-color="#CFC6CD" />
        </linearGradient>
        <linearGradient id="paint14_linear_65_3836" x1="39.2537" y1="17.9421" x2="40.0673"
            y2="20.4508" gradientUnits="userSpaceOnUse">
            <stop stop-color="#9B8E99" stop-opacity="0" />
            <stop offset="0.3465" stop-color="#978A95" stop-opacity="0.347" />
            <stop offset="0.7135" stop-color="#8A7F88" stop-opacity="0.714" />
            <stop offset="1" stop-color="#7B7179" />
        </linearGradient>
        <linearGradient id="paint15_linear_65_3836" x1="38.6282" y1="9.83145" x2="41.5475"
            y2="12.3083" gradientUnits="userSpaceOnUse">
            <stop stop-color="#9B8E99" stop-opacity="0" />
            <stop offset="0.3465" stop-color="#978A95" stop-opacity="0.347" />
            <stop offset="0.7135" stop-color="#8A7F88" stop-opacity="0.714" />
            <stop offset="1" stop-color="#7B7179" />
        </linearGradient>
        <linearGradient id="paint16_linear_65_3836" x1="39.6521" y1="14.1646" x2="42.0009"
            y2="16.7487" gradientUnits="userSpaceOnUse">
            <stop stop-color="#9B8E99" stop-opacity="0" />
            <stop offset="0.3465" stop-color="#978A95" stop-opacity="0.347" />
            <stop offset="0.7135" stop-color="#8A7F88" stop-opacity="0.714" />
            <stop offset="1" stop-color="#7B7179" />
        </linearGradient>
        <linearGradient id="paint17_linear_65_3836" x1="38.7912" y1="20.6787" x2="39.4167"
            y2="22.6074" gradientUnits="userSpaceOnUse">
            <stop stop-color="#9B8E99" stop-opacity="0" />
            <stop offset="0.3465" stop-color="#978A95" stop-opacity="0.347" />
            <stop offset="0.7135" stop-color="#8A7F88" stop-opacity="0.714" />
            <stop offset="1" stop-color="#7B7179" />
        </linearGradient>
        <linearGradient id="paint18_linear_65_3836" x1="37.3474" y1="21.9381" x2="37.0793"
            y2="24.2311" gradientUnits="userSpaceOnUse">
            <stop stop-color="#9B8E99" stop-opacity="0" />
            <stop offset="0.3465" stop-color="#978A95" stop-opacity="0.347" />
            <stop offset="0.7135" stop-color="#8A7F88" stop-opacity="0.714" />
            <stop offset="1" stop-color="#7B7179" />
        </linearGradient>
        <clipPath id="clip0_65_3836">
            <rect width="41.8731" height="30.4532" fill="white"
                transform="translate(2.12695 2.27347)" />
        </clipPath>
    </defs>
</svg>