<svg width="17" height="18" viewBox="0 0 17 18" fill="none" xmlns="http://www.w3.org/2000/svg">
<g clip-path="url(#clip0_373_1348)">
<path d="M15.8928 7.65647C15.8468 7.37063 15.7865 7.09003 15.7125 6.81545C15.6582 6.61377 15.463 6.49336 15.2699 6.54001L14.8996 6.62948L15.2417 6.45507C15.4202 6.36406 15.5018 6.14095 15.4256 5.94729C15.3206 5.68074 15.2024 5.42155 15.0717 5.17063C14.9761 4.98715 14.7608 4.91597 14.5825 5.00686L14.2409 5.18099L14.5367 4.93123C14.6917 4.80039 14.7243 4.56357 14.6092 4.39273C14.4512 4.15849 14.2815 3.93372 14.1011 3.71935C13.9693 3.5629 13.7443 3.54411 13.5896 3.67478L13.2943 3.92403L13.5298 3.61146C13.6532 3.4476 13.6355 3.20937 13.4877 3.06988C13.2853 2.87875 13.073 2.69906 12.8518 2.53183C12.6905 2.40989 12.4668 2.4444 12.3432 2.6085L12.1073 2.9217L12.2718 2.56011C12.3577 2.37135 12.2904 2.14334 12.1172 2.04214C11.8802 1.90373 11.6354 1.77846 11.3837 1.66733C11.2008 1.58658 10.9901 1.67294 10.9041 1.86195L10.7394 2.22412L10.8239 1.83201C10.868 1.62754 10.7543 1.4209 10.5638 1.36332C10.3046 1.28499 10.0395 1.22108 9.76958 1.1724C9.57447 1.13722 9.38755 1.27097 9.34354 1.47528L9.25923 1.8664V1.46597C9.25923 1.25621 9.10487 1.08155 8.90704 1.07032C8.77224 1.06272 8.63653 1.05881 8.5 1.05881C8.36347 1.05881 8.22776 1.06272 8.09304 1.07037C7.89521 1.08159 7.74085 1.25626 7.74085 1.46601V1.86361L7.65717 1.47528C7.61316 1.27097 7.42625 1.13722 7.23113 1.17235C6.96117 1.221 6.69615 1.28486 6.43683 1.36319C6.24635 1.42073 6.13263 1.62737 6.17669 1.83185L6.26119 2.22396L6.09647 1.86178C6.01051 1.67273 5.79981 1.58638 5.6169 1.66708C5.36516 1.77817 5.12037 1.9034 4.88339 2.04181C4.71011 2.14301 4.64288 2.37097 4.72872 2.55977L4.89317 2.92141L4.65729 2.60821C4.53372 2.44411 4.31005 2.40956 4.14871 2.5315C3.92747 2.69872 3.7152 2.87842 3.51274 3.0695C3.36497 3.209 3.34723 3.44719 3.47064 3.61108L3.70605 3.9237L3.41084 3.67441C3.25609 3.54373 3.03109 3.56248 2.89935 3.71894C2.71884 3.93331 2.54912 4.15803 2.39119 4.39227C2.27602 4.56307 2.30861 4.79989 2.4636 4.93078L2.7594 5.18057L2.41789 5.0064C2.23962 4.91548 2.02428 4.98665 1.9287 5.17013C1.79798 5.42105 1.67967 5.6802 1.57471 5.94675C1.49846 6.14041 1.58001 6.36347 1.75852 6.45453L2.10058 6.62894L1.73025 6.53943C1.53713 6.49274 1.34198 6.61314 1.28759 6.81483C1.21361 7.08936 1.15326 7.37001 1.10728 7.65581C1.07406 7.8624 1.20038 8.06031 1.39334 8.10691L1.76272 8.19618H1.38454C1.1864 8.19618 1.02148 8.35962 1.01088 8.56908C1.00369 8.71173 1 8.85542 1 8.99999C1 9.14455 1.00369 9.28824 1.01092 9.43089C1.02152 9.64035 1.18648 9.80379 1.38458 9.80379H1.76009L1.3933 9.89239C1.20034 9.939 1.07402 10.1369 1.1072 10.3435C1.15314 10.6293 1.21346 10.9099 1.28743 11.1845C1.34178 11.3862 1.53694 11.5066 1.73005 11.46L2.10038 11.3705L1.75829 11.5449C1.57974 11.6359 1.49818 11.859 1.5744 12.0527C1.67932 12.3192 1.79759 12.5784 1.92831 12.8293C2.02389 13.0128 2.23919 13.084 2.4175 12.9931L2.75904 12.819L2.46325 13.0687C2.30826 13.1996 2.27563 13.4364 2.3908 13.6072C2.54873 13.8415 2.71844 14.0662 2.89891 14.2806C3.03066 14.4371 3.25562 14.4559 3.41041 14.3252L3.70562 14.0759L3.47017 14.3885C3.34675 14.5524 3.36446 14.7906 3.51223 14.9301C3.71469 15.1212 3.92693 15.3009 4.14816 15.4681C4.30946 15.5901 4.53313 15.5556 4.65674 15.3915L4.89266 15.0783L4.72817 15.4399C4.64229 15.6286 4.70956 15.8566 4.8828 15.9578C5.11978 16.0962 5.36453 16.2215 5.61627 16.3326C5.79918 16.4134 6.00984 16.327 6.09584 16.138L6.26056 15.7758L6.17602 16.168C6.13193 16.3724 6.24564 16.5791 6.43613 16.6367C6.69541 16.715 6.96046 16.7789 7.23038 16.8276C7.4255 16.8628 7.61241 16.729 7.65643 16.5247L7.74074 16.1336V16.534C7.74074 16.7438 7.89509 16.9184 8.09292 16.9296C8.22776 16.9373 8.36347 16.9412 8.5 16.9412C8.63653 16.9412 8.77224 16.9373 8.90697 16.9296C9.10479 16.9184 9.25915 16.7437 9.25915 16.534V16.1364L9.34283 16.5247C9.38685 16.729 9.57376 16.8628 9.76888 16.8277C10.0388 16.779 10.3039 16.7152 10.5632 16.6368C10.7537 16.5793 10.8674 16.3726 10.8233 16.1682L10.7388 15.7761L10.9035 16.1383C10.9895 16.3273 11.2002 16.4137 11.3831 16.3329C11.6348 16.2218 11.8796 16.0966 12.1166 15.9582C12.2899 15.857 12.3571 15.629 12.2713 15.4402L12.1068 15.0786L12.3427 15.3918C12.4663 15.5559 12.6899 15.5905 12.8513 15.4685C13.0725 15.3013 13.2848 15.1216 13.4873 14.9305C13.635 14.791 13.6528 14.5528 13.5294 14.3889L13.294 14.0763L13.5892 14.3256C13.7439 14.4563 13.9689 14.4375 14.1007 14.2811C14.2812 14.0667 14.4509 13.842 14.6088 13.6077C14.724 13.4369 14.6914 13.2001 14.5364 13.0692L14.2406 12.8194L14.5821 12.9936C14.7604 13.0845 14.9757 13.0133 15.0713 12.8299C15.202 12.579 15.3203 12.3198 15.4253 12.0533C15.5015 11.8596 15.42 11.6365 15.2415 11.5455L14.8994 11.3711L15.2698 11.4606C15.4629 11.5073 15.658 11.3869 15.7124 11.1852C15.7864 10.9107 15.8467 10.63 15.8927 10.3442C15.9259 10.1376 15.7996 9.9397 15.6067 9.8931L15.2373 9.80383H15.6155C15.8136 9.80383 15.9785 9.64039 15.9891 9.43093C15.9963 9.28824 16 9.14455 16 8.99999C16 8.85542 15.9963 8.71173 15.9891 8.56908C15.9785 8.35962 15.8135 8.19618 15.6154 8.19618H15.2399L15.6067 8.10758C15.7997 8.06097 15.926 7.86307 15.8928 7.65647Z" fill="#D9D9D9"/>
<path d="M8.49729 1.36497C8.63277 1.36497 8.76825 1.36497 8.89831 1.3758C9.0934 1.38664 9.24514 1.55462 9.24514 1.75512V2.13985L9.32643 1.76054C9.36436 1.58714 9.5161 1.4625 9.68409 1.4625C9.70577 1.4625 9.72745 1.4625 9.7437 1.4625C10.0092 1.51127 10.2748 1.57088 10.5295 1.64674C10.7192 1.70093 10.8275 1.90142 10.7842 2.0965L10.7029 2.47581L10.8655 2.12901C10.9305 1.99354 11.0606 1.91226 11.2015 1.91226C11.2502 1.91226 11.2936 1.9231 11.3424 1.93935C11.5916 2.04773 11.8355 2.16694 12.0685 2.30241C12.242 2.39995 12.307 2.62211 12.2203 2.80093L12.0577 3.14773L12.2907 2.84428C12.3612 2.75216 12.4696 2.69798 12.5834 2.69798C12.6592 2.69798 12.7297 2.71965 12.7947 2.76842C13.0115 2.93098 13.2228 3.10438 13.4233 3.28862C13.5697 3.42409 13.5859 3.65167 13.4667 3.80882L13.2337 4.11227L13.5263 3.87384C13.5967 3.81966 13.678 3.79256 13.7593 3.79256C13.8623 3.79256 13.9598 3.83591 14.0357 3.91719C14.2145 4.1231 14.3825 4.33985 14.5397 4.56744C14.6535 4.73 14.621 4.95759 14.4692 5.08764L14.1766 5.32607L14.5126 5.15808C14.5668 5.13099 14.621 5.12015 14.6752 5.12015C14.8052 5.12015 14.9299 5.1906 15.0003 5.31523C15.1304 5.55907 15.2442 5.80833 15.3526 6.06301C15.4284 6.24725 15.3526 6.464 15.1683 6.5507L14.8323 6.71868L15.2008 6.63198C15.2279 6.62656 15.255 6.62114 15.2821 6.62114C15.4447 6.62114 15.591 6.72952 15.6344 6.8975C15.7048 7.16302 15.7644 7.43395 15.8132 7.71031C15.8457 7.9108 15.7211 8.10046 15.5314 8.14381L15.1683 8.23051H15.5368C15.7319 8.23051 15.8945 8.38765 15.9053 8.58815C15.9107 8.72361 15.9162 8.8645 15.9162 9.00539C15.9162 9.14628 15.9162 9.28174 15.9053 9.42263C15.8945 9.62312 15.7319 9.78027 15.5368 9.78027H15.1629L15.526 9.86697C15.7157 9.91032 15.8403 10.1 15.8078 10.3005C15.7644 10.5768 15.7048 10.8478 15.6289 11.1079C15.5856 11.2758 15.4339 11.3842 15.2767 11.3842C15.2496 11.3842 15.2225 11.3842 15.1954 11.3734L14.8269 11.2867L15.1629 11.4547C15.3417 11.5414 15.4176 11.7581 15.3471 11.9423C15.2442 12.197 15.125 12.4463 14.9949 12.6901C14.9299 12.8148 14.7998 12.8852 14.6697 12.8852C14.6156 12.8852 14.5614 12.8744 14.5072 12.8473L14.1712 12.6793L14.4638 12.9177C14.6156 13.0423 14.6481 13.2699 14.5343 13.4379C14.3771 13.6655 14.2091 13.8823 14.0303 14.0882C13.9598 14.1694 13.8569 14.2128 13.7539 14.2128C13.6726 14.2128 13.5913 14.1857 13.5209 14.1315L13.2282 13.8931L13.4613 14.1965C13.5859 14.3537 13.5642 14.5813 13.4179 14.7167C13.2174 14.901 13.0061 15.0744 12.7893 15.2369C12.7243 15.2857 12.6484 15.3074 12.5779 15.3074C12.4696 15.3074 12.3612 15.2586 12.2853 15.1611L12.0523 14.8576L12.2149 15.2044C12.3016 15.3887 12.2311 15.6054 12.0631 15.7029C11.8301 15.8384 11.5862 15.9576 11.3369 16.066C11.2936 16.0877 11.2448 16.0931 11.196 16.0931C11.0606 16.0931 10.9251 16.0118 10.8601 15.8763L10.6975 15.5295L10.7788 15.9089C10.8221 16.1039 10.7083 16.3044 10.5241 16.3586C10.2694 16.4345 10.0038 16.4941 9.73828 16.5429C9.71661 16.5429 9.69493 16.5429 9.67867 16.5429C9.51068 16.5429 9.35894 16.4236 9.32101 16.2448L9.23972 15.8709V16.2557C9.23972 16.4562 9.08798 16.6241 8.89289 16.635C8.75741 16.6404 8.62735 16.6458 8.49187 16.6458C8.35639 16.6458 8.22091 16.6458 8.09085 16.635C7.89576 16.6241 7.74402 16.4562 7.74402 16.2557V15.8709L7.66273 16.2502C7.6248 16.4236 7.47306 16.5483 7.30507 16.5483C7.28339 16.5483 7.26171 16.5483 7.24546 16.5483C6.97992 16.4995 6.71438 16.4399 6.45967 16.364C6.27 16.3098 6.16162 16.1094 6.20497 15.9143L6.28626 15.535L6.12368 15.8818C6.05865 16.0172 5.92859 16.0985 5.78769 16.0985C5.73892 16.0985 5.69557 16.0877 5.6468 16.0714C5.39751 15.963 5.15365 15.8438 4.92062 15.7084C4.74721 15.6108 4.68218 15.3887 4.76889 15.2098L4.93146 14.863L4.69844 15.1665C4.62799 15.2586 4.5196 15.3128 4.4058 15.3128C4.32993 15.3128 4.25948 15.2911 4.19445 15.2424C3.97769 15.0798 3.76634 14.9064 3.56583 14.7222C3.41951 14.5867 3.40325 14.3591 3.52247 14.202L3.7555 13.8985L3.46286 14.1369C3.39241 14.1911 3.31113 14.2182 3.22984 14.2182C3.12687 14.2182 3.02933 14.1749 2.95346 14.0936C2.77463 13.8877 2.60663 13.6709 2.44947 13.4433C2.33567 13.2808 2.36819 13.0532 2.51992 12.9231L2.81256 12.6847L2.47657 12.8527C2.42238 12.8798 2.36819 12.8906 2.31399 12.8906C2.18393 12.8906 2.05929 12.8202 1.98884 12.6955C1.85878 12.4517 1.74498 12.2024 1.6366 11.9478C1.56073 11.7635 1.6366 11.5468 1.82085 11.4601L2.15684 11.2921L1.78833 11.3788C1.76124 11.3842 1.73414 11.3896 1.70704 11.3896C1.54447 11.3896 1.39815 11.2813 1.3548 11.1133C1.28435 10.8478 1.22474 10.5768 1.17596 10.3005C1.14345 10.1 1.26809 9.91032 1.45776 9.86697L1.82085 9.78027H1.45234C1.25725 9.78027 1.09468 9.62312 1.08384 9.42263C1.07842 9.28716 1.073 9.14628 1.073 9.00539C1.073 8.8645 1.073 8.72903 1.08384 8.58815C1.09468 8.38765 1.25725 8.23051 1.45234 8.23051H1.82627L1.46318 8.14381C1.27351 8.10046 1.14887 7.9108 1.18138 7.71031C1.22474 7.43395 1.28435 7.16302 1.36022 6.8975C1.40357 6.72952 1.55531 6.62114 1.71246 6.62114C1.73956 6.62114 1.76666 6.62114 1.79375 6.63198L2.16226 6.71868L1.82627 6.5507C1.64743 6.464 1.57157 6.24725 1.64201 6.06301C1.74498 5.80833 1.8642 5.55907 1.99426 5.31523C2.05929 5.1906 2.18935 5.12015 2.31941 5.12015C2.37361 5.12015 2.4278 5.13099 2.48199 5.15808L2.81798 5.32607L2.52534 5.08764C2.37361 4.96301 2.34109 4.73542 2.45489 4.56744C2.61205 4.33985 2.78004 4.1231 2.95888 3.91719C3.02933 3.83591 3.13229 3.79256 3.23526 3.79256C3.31654 3.79256 3.39783 3.81966 3.46828 3.87384L3.76092 4.11227L3.52789 3.80882C3.40325 3.65167 3.42493 3.42409 3.57125 3.28862C3.77176 3.10438 3.9831 2.93098 4.19987 2.76842C4.2649 2.71965 4.34077 2.69798 4.41122 2.69798C4.5196 2.69798 4.62799 2.74675 4.70386 2.84428L4.93688 3.14773L4.77431 2.80093C4.6876 2.6167 4.75805 2.39995 4.92604 2.30241C5.15907 2.16694 5.40293 2.04773 5.65222 1.93935C5.69557 1.91768 5.74434 1.91226 5.79311 1.91226C5.92859 1.91226 6.06407 1.99354 6.1291 2.12901L6.29168 2.47581L6.21039 2.0965C6.16704 1.90142 6.28084 1.70093 6.46509 1.64674C6.7198 1.57088 6.98534 1.51127 7.25088 1.4625C7.27255 1.4625 7.29423 1.4625 7.31049 1.4625C7.47848 1.4625 7.63022 1.58172 7.66815 1.76054L7.74944 2.13443V1.7497C7.74944 1.5492 7.90118 1.38122 8.09627 1.37039C8.23175 1.36497 8.36181 1.35955 8.49729 1.35955M8.49729 0.281219C8.34013 0.281219 8.1884 0.281219 8.03666 0.292057C7.86324 0.302894 7.70067 0.340826 7.55435 0.40585C7.47306 0.389594 7.39178 0.384176 7.31049 0.384176C7.2292 0.384176 7.14249 0.389594 7.0612 0.40585C6.75773 0.460038 6.45426 0.530481 6.1562 0.617181C5.99362 0.66595 5.84189 0.741812 5.71183 0.83935C5.54383 0.850187 5.38126 0.888118 5.2241 0.953143C4.9423 1.07777 4.6605 1.21324 4.38954 1.37039C4.24323 1.45709 4.11316 1.56546 4.00478 1.69009C3.84221 1.73886 3.69589 1.81472 3.55499 1.91226C3.30571 2.0965 3.06184 2.29699 2.83424 2.5029C2.70959 2.6167 2.60663 2.75216 2.53076 2.89847C2.38444 2.97975 2.25438 3.08813 2.14058 3.21818C1.93465 3.45118 1.74498 3.70044 1.56615 3.96054C1.4686 4.10143 1.39815 4.25857 1.3548 4.41572C1.23016 4.52951 1.12719 4.65956 1.0459 4.81128C0.899585 5.08764 0.764106 5.37483 0.644884 5.66203C0.579853 5.82459 0.547338 5.99257 0.541919 6.15513C0.444374 6.2906 0.368505 6.44774 0.325151 6.61031C0.243864 6.91375 0.173414 7.22262 0.124641 7.53149C0.0975454 7.70489 0.0975454 7.87287 0.124641 8.03543C0.0596111 8.18716 0.0216768 8.35514 0.0108384 8.52854C0.00541919 8.68568 0 8.84283 0 8.99997C0 9.15711 0 9.31426 0.0108384 9.4714C0.0216768 9.6448 0.0596111 9.81278 0.124641 9.96451C0.0921262 10.1271 0.0921262 10.295 0.124641 10.4684C0.173414 10.7773 0.243864 11.0916 0.325151 11.3896C0.373924 11.5576 0.444374 11.7093 0.541919 11.8448C0.547338 12.0128 0.579853 12.1808 0.644884 12.3379C0.764106 12.6305 0.894166 12.9177 1.0459 13.1887C1.12719 13.3404 1.23558 13.4758 1.3548 13.5842C1.39815 13.7468 1.4686 13.8985 1.56615 14.0394C1.74498 14.2941 1.93465 14.5433 2.14058 14.7818C2.25438 14.9118 2.38444 15.0202 2.53076 15.1015C2.60663 15.2478 2.70959 15.3832 2.83424 15.497C3.06184 15.7084 3.30571 15.9089 3.55499 16.0877C3.69047 16.1906 3.84221 16.2665 4.00478 16.3098C4.11316 16.4345 4.23781 16.5429 4.38954 16.6296C4.6605 16.7813 4.93688 16.9222 5.2241 17.0468C5.38126 17.1118 5.54383 17.1498 5.71183 17.1606C5.84189 17.2581 5.99362 17.334 6.1562 17.3828C6.44884 17.4695 6.75773 17.5399 7.0612 17.5941C7.14249 17.6103 7.2292 17.6158 7.31049 17.6158C7.39178 17.6158 7.47848 17.6103 7.55435 17.5941C7.70609 17.6591 7.86866 17.697 8.04208 17.7079C8.19382 17.7187 8.35097 17.7187 8.50271 17.7187C8.65445 17.7187 8.8116 17.7187 8.96334 17.7079C9.13675 17.697 9.29933 17.6591 9.44565 17.5941C9.52694 17.6103 9.60822 17.6158 9.68951 17.6158C9.7708 17.6158 9.85751 17.6103 9.93879 17.5941C10.2423 17.5399 10.5457 17.4695 10.8438 17.3828C11.0064 17.334 11.1581 17.2581 11.2882 17.1606C11.4562 17.1498 11.6187 17.1118 11.7759 17.0468C12.0577 16.9222 12.3395 16.7867 12.6105 16.6296C12.7568 16.5429 12.8868 16.4345 12.9952 16.3098C13.1578 16.2611 13.3095 16.1852 13.445 16.0877C13.6943 15.9034 13.9382 15.7029 14.1658 15.497C14.2904 15.3832 14.3934 15.2478 14.4692 15.1015C14.6156 15.0202 14.7456 14.9118 14.8594 14.7818C15.0653 14.5488 15.255 14.2995 15.4339 14.0394C15.5314 13.8985 15.6018 13.7414 15.6452 13.5842C15.7698 13.4704 15.8728 13.3404 15.9541 13.1887C16.1004 12.9123 16.2359 12.6251 16.3551 12.3379C16.4201 12.1753 16.4527 12.0074 16.4581 11.8448C16.5556 11.7093 16.6315 11.5522 16.6748 11.3896C16.7561 11.0862 16.8266 10.7773 16.8754 10.4684C16.9025 10.295 16.9025 10.1271 16.8754 9.96451C16.9404 9.81278 16.9783 9.6448 16.9892 9.4714C16.9946 9.31426 17 9.15711 17 8.99997C17 8.84283 17 8.68568 16.9892 8.52854C16.9783 8.35514 16.9404 8.18716 16.8754 8.03543C16.9079 7.87287 16.9079 7.70489 16.8754 7.53149C16.8266 7.22262 16.7561 6.90834 16.6748 6.61031C16.6261 6.44233 16.5556 6.2906 16.4581 6.15513C16.4527 5.98715 16.4201 5.81917 16.3551 5.66203C16.2359 5.36941 16.1058 5.08764 15.9541 4.81128C15.8728 4.65956 15.7644 4.52409 15.6452 4.41572C15.6018 4.25315 15.5314 4.10143 15.4339 3.96054C15.255 3.70586 15.0653 3.4566 14.8594 3.21818C14.7456 3.08813 14.6156 2.97975 14.4692 2.89847C14.3934 2.75216 14.2904 2.6167 14.1658 2.5029C13.9382 2.29157 13.6943 2.09108 13.445 1.91226C13.3095 1.8093 13.1578 1.73344 12.9952 1.69009C12.8868 1.56546 12.7622 1.45709 12.6105 1.37039C12.3395 1.21866 12.0631 1.07777 11.7759 0.953143C11.6187 0.888118 11.4562 0.850187 11.2882 0.83935C11.1581 0.741812 11.0064 0.66595 10.8438 0.617181C10.5457 0.530481 10.2423 0.460038 9.93879 0.40585C9.85751 0.389594 9.7708 0.384176 9.68951 0.384176C9.60822 0.384176 9.52152 0.389594 9.44565 0.40585C9.29391 0.340826 9.13134 0.302894 8.96334 0.292057C8.8116 0.281219 8.65445 0.281219 8.50271 0.281219L8.49729 0.281219Z" fill="white"/>
<path d="M15.8928 7.65647C15.8468 7.37063 15.7865 7.09003 15.7125 6.81545C15.6582 6.61377 15.463 6.49336 15.2699 6.54001L14.8996 6.62948L15.2417 6.45507C15.4202 6.36406 15.5018 6.14095 15.4256 5.94729C15.3206 5.68074 15.2024 5.42155 15.0717 5.17063C14.9761 4.98715 14.7608 4.91597 14.5825 5.00686L14.2409 5.18099L14.5367 4.93123C14.6917 4.80039 14.7243 4.56357 14.6092 4.39273C14.4512 4.15849 14.2815 3.93372 14.1011 3.71935C13.9693 3.5629 13.7443 3.54411 13.5896 3.67478L13.2943 3.92403L13.5298 3.61146C13.6532 3.4476 13.6355 3.20937 13.4877 3.06988C13.2853 2.87875 13.073 2.69906 12.8518 2.53183C12.6905 2.40989 12.4668 2.4444 12.3432 2.6085L12.1073 2.9217L12.2718 2.56011C12.3577 2.37135 12.2904 2.14334 12.1172 2.04214C11.8802 1.90373 11.6354 1.77846 11.3837 1.66733C11.2008 1.58658 10.9901 1.67294 10.9041 1.86195L10.7394 2.22412L10.8239 1.83201C10.868 1.62754 10.7543 1.4209 10.5638 1.36332C10.3046 1.28499 10.0395 1.22108 9.76958 1.1724C9.57447 1.13722 9.38755 1.27097 9.34354 1.47528L9.25923 1.8664V1.46597C9.25923 1.25621 9.10487 1.08155 8.90704 1.07032C8.77224 1.06272 8.63653 1.05881 8.5 1.05881C8.36347 1.05881 8.22776 1.06272 8.09304 1.07037C7.89521 1.08159 7.74085 1.25626 7.74085 1.46601V1.86361L7.65717 1.47528C7.61316 1.27097 7.42625 1.13722 7.23113 1.17235C6.96117 1.221 6.69615 1.28486 6.43683 1.36319C6.24635 1.42073 6.13263 1.62737 6.17669 1.83185L6.26119 2.22396L6.09647 1.86178C6.01051 1.67273 5.79981 1.58638 5.6169 1.66708C5.36516 1.77817 5.12037 1.9034 4.88339 2.04181C4.71011 2.14301 4.64288 2.37097 4.72872 2.55977L4.89317 2.92141L4.65729 2.60821C4.53372 2.44411 4.31005 2.40956 4.14871 2.5315C3.92747 2.69872 3.7152 2.87842 3.51274 3.0695C3.36497 3.209 3.34723 3.44719 3.47064 3.61108L3.70605 3.9237L3.41084 3.67441C3.25609 3.54373 3.03109 3.56248 2.89935 3.71894C2.71884 3.93331 2.54912 4.15803 2.39119 4.39227C2.27602 4.56307 2.30861 4.79989 2.4636 4.93078L2.7594 5.18057L2.41789 5.0064C2.23962 4.91548 2.02428 4.98665 1.9287 5.17013C1.79798 5.42105 1.67967 5.6802 1.57471 5.94675C1.49846 6.14041 1.58001 6.36347 1.75852 6.45453L2.10058 6.62894L1.73025 6.53943C1.53713 6.49274 1.34198 6.61314 1.28759 6.81483C1.21361 7.08936 1.15326 7.37001 1.10728 7.65581C1.07406 7.8624 1.20038 8.06031 1.39334 8.10691L1.76272 8.19618H1.38454C1.1864 8.19618 1.02148 8.35962 1.01088 8.56908C1.00369 8.71173 1 8.85542 1 8.99999C1 9.14455 1.00369 9.28824 1.01092 9.43089C1.02152 9.64035 1.18648 9.80379 1.38458 9.80379H1.76009L1.3933 9.89239C1.20034 9.939 1.07402 10.1369 1.1072 10.3435C1.15314 10.6293 1.21346 10.9099 1.28743 11.1845C1.34178 11.3862 1.53694 11.5066 1.73005 11.46L2.10038 11.3705L1.75829 11.5449C1.57974 11.6359 1.49818 11.859 1.5744 12.0527C1.67932 12.3192 1.79759 12.5784 1.92831 12.8293C2.02389 13.0128 2.23919 13.084 2.4175 12.9931L2.75904 12.819L2.46325 13.0687C2.30826 13.1996 2.27563 13.4364 2.3908 13.6072C2.54873 13.8415 2.71844 14.0662 2.89891 14.2806C3.03066 14.4371 3.25562 14.4559 3.41041 14.3252L3.70562 14.0759L3.47017 14.3885C3.34675 14.5524 3.36446 14.7906 3.51223 14.9301C3.71469 15.1212 3.92693 15.3009 4.14816 15.4681C4.30946 15.5901 4.53313 15.5556 4.65674 15.3915L4.89266 15.0783L4.72817 15.4399C4.64229 15.6286 4.70956 15.8566 4.8828 15.9578C5.11978 16.0962 5.36453 16.2215 5.61627 16.3326C5.79918 16.4134 6.00984 16.327 6.09584 16.138L6.26056 15.7758L6.17602 16.168C6.13193 16.3724 6.24564 16.5791 6.43613 16.6367C6.69541 16.715 6.96046 16.7789 7.23038 16.8276C7.4255 16.8628 7.61241 16.729 7.65643 16.5247L7.74074 16.1336V16.534C7.74074 16.7438 7.89509 16.9184 8.09292 16.9296C8.22776 16.9373 8.36347 16.9412 8.5 16.9412C8.63653 16.9412 8.77224 16.9373 8.90697 16.9296C9.10479 16.9184 9.25915 16.7437 9.25915 16.534V16.1364L9.34283 16.5247C9.38685 16.729 9.57376 16.8628 9.76888 16.8277C10.0388 16.779 10.3039 16.7152 10.5632 16.6368C10.7537 16.5793 10.8674 16.3726 10.8233 16.1682L10.7388 15.7761L10.9035 16.1383C10.9895 16.3273 11.2002 16.4137 11.3831 16.3329C11.6348 16.2218 11.8796 16.0966 12.1166 15.9582C12.2899 15.857 12.3571 15.629 12.2713 15.4402L12.1068 15.0786L12.3427 15.3918C12.4663 15.5559 12.6899 15.5905 12.8513 15.4685C13.0725 15.3013 13.2848 15.1216 13.4873 14.9305C13.635 14.791 13.6528 14.5528 13.5294 14.3889L13.294 14.0763L13.5892 14.3256C13.7439 14.4563 13.9689 14.4375 14.1007 14.2811C14.2812 14.0667 14.4509 13.842 14.6088 13.6077C14.724 13.4369 14.6914 13.2001 14.5364 13.0692L14.2406 12.8194L14.5821 12.9936C14.7604 13.0845 14.9757 13.0133 15.0713 12.8299C15.202 12.579 15.3203 12.3198 15.4253 12.0533C15.5015 11.8596 15.42 11.6365 15.2415 11.5455L14.8994 11.3711L15.2698 11.4606C15.4629 11.5073 15.658 11.3869 15.7124 11.1852C15.7864 10.9107 15.8467 10.63 15.8927 10.3442C15.9259 10.1376 15.7996 9.9397 15.6067 9.8931L15.2373 9.80383H15.6155C15.8136 9.80383 15.9785 9.64039 15.9891 9.43093C15.9963 9.28824 16 9.14455 16 8.99999C16 8.85542 15.9963 8.71173 15.9891 8.56908C15.9785 8.35962 15.8135 8.19618 15.6154 8.19618H15.2399L15.6067 8.10758C15.7997 8.06097 15.926 7.86307 15.8928 7.65647Z" fill="url(#paint0_linear_373_1348)"/>
<path d="M8.49993 16.47C12.3963 16.47 15.5549 13.1256 15.5549 9.00002C15.5549 4.87446 12.3963 1.53003 8.49993 1.53003C4.60357 1.53003 1.44495 4.87446 1.44495 9.00002C1.44495 13.1256 4.60357 16.47 8.49993 16.47Z" fill="url(#paint1_linear_373_1348)"/>
<path d="M8.49998 14.8901C11.5722 14.8901 14.0628 12.253 14.0628 8.99999C14.0628 5.747 11.5722 3.10992 8.49998 3.10992C5.4277 3.10992 2.93713 5.747 2.93713 8.99999C2.93713 12.253 5.4277 14.8901 8.49998 14.8901Z" fill="url(#paint2_linear_373_1348)"/>
<path d="M9.52277 6.11228L8.84095 5.39035L6.45459 8.27805L9.18186 11.1658H8.50004L7.13641 10.4438L6.45459 11.1658L10.5455 14.7754L12.9319 14.0535L14.2955 9.7219L9.86368 5.75131L9.52277 6.11228Z" fill="url(#paint3_linear_373_1348)"/>
<path d="M8.90408 8.2957V7.01031C9.44572 7.05427 9.60399 7.336 9.8789 7.336C10.2456 7.336 10.3955 6.85182 10.3955 6.6141C10.3955 6.00668 9.42069 5.86576 8.90408 5.8482V5.62811C8.90408 5.50487 8.74581 5.39035 8.58753 5.39035C8.40423 5.39035 8.27091 5.50483 8.27091 5.62811V5.87453C7.38773 6.00664 6.60457 6.5437 6.60457 7.6618C6.60457 8.78871 7.50437 9.16728 8.27091 9.47541V10.9016C7.65435 10.7871 7.37111 10.2677 7.02114 10.2677C6.70452 10.2677 6.45459 10.7079 6.45459 11.0072C6.45459 11.5707 7.27106 12.1166 8.27091 12.1518V12.3718C8.27091 12.4951 8.40427 12.6096 8.58753 12.6096C8.74581 12.6096 8.90408 12.4951 8.90408 12.3718V12.1166C9.8789 11.9493 10.5455 11.2889 10.5455 10.1973C10.5455 9.00883 9.66229 8.59499 8.90408 8.2957ZM8.35423 8.08437C8.0376 7.94357 7.82099 7.78508 7.82099 7.52968C7.82099 7.31847 7.97927 7.11591 8.35423 7.03674V8.08437ZM8.82083 10.8928V9.71309C9.12076 9.86278 9.32905 10.0477 9.32905 10.3382C9.32905 10.6551 9.10407 10.8224 8.82083 10.8928Z" fill="#FDD0AB"/>
</g>
<defs>
<linearGradient id="paint0_linear_373_1348" x1="14.3246" y1="15.1672" x2="2.27279" y2="3.78494" gradientUnits="userSpaceOnUse">
<stop stop-color="#FED7B1"/>
<stop offset="1" stop-color="#DD6A6B"/>
</linearGradient>
<linearGradient id="paint1_linear_373_1348" x1="6.11364" y1="1.78075" x2="9.91092" y2="16.8433" gradientUnits="userSpaceOnUse">
<stop stop-color="#FFDDB7"/>
<stop offset="0.541666" stop-color="#F5A180"/>
<stop offset="1" stop-color="#DA5866"/>
</linearGradient>
<linearGradient id="paint2_linear_373_1348" x1="12.5707" y1="13.3101" x2="4.24114" y2="5.44336" gradientUnits="userSpaceOnUse">
<stop stop-color="#FFDDB6"/>
<stop offset="0.616666" stop-color="#F6A887"/>
<stop offset="1" stop-color="#F49879"/>
</linearGradient>
<linearGradient id="paint3_linear_373_1348" x1="7.47732" y1="6.8342" x2="14.5956" y2="12.2124" gradientUnits="userSpaceOnUse">
<stop stop-color="#E67972"/>
<stop offset="1" stop-color="#E67972" stop-opacity="0"/>
</linearGradient>
<clipPath id="clip0_373_1348">
<rect width="17" height="18" fill="white"/>
</clipPath>
</defs>
</svg>
