<svg width="31" height="33" viewBox="0 0 31 33" fill="none" xmlns="http://www.w3.org/2000/svg">
    <path
        d="M28.9809 14.1116C28.8971 13.6034 28.7871 13.1046 28.6522 12.6164C28.5531 12.2579 28.1972 12.0438 27.8451 12.1267L27.1698 12.2858L27.7936 11.9757C28.1192 11.8139 28.2679 11.4173 28.1289 11.073C27.9376 10.5992 27.7219 10.1384 27.4836 9.6923C27.3093 9.36611 26.9167 9.23957 26.5915 9.40115L25.9687 9.7107L26.5081 9.2667C26.7907 9.03409 26.8502 8.61307 26.6402 8.30936C26.3522 7.89293 26.0427 7.49334 25.7136 7.11224C25.4734 6.8341 25.0632 6.80069 24.7809 7.03301L24.2426 7.47612L24.6719 6.92043C24.897 6.62914 24.8647 6.20561 24.5952 5.95762C24.2261 5.61784 23.839 5.29838 23.4356 5.0011C23.1415 4.78431 22.7336 4.84566 22.5082 5.1374L22.078 5.69419L22.3779 5.05136C22.5345 4.71579 22.4119 4.31044 22.096 4.13053C21.6638 3.88447 21.2175 3.66177 20.7585 3.4642C20.4249 3.32065 20.0408 3.47418 19.884 3.81019L19.5836 4.45406L19.7377 3.75697C19.8181 3.39346 19.6108 3.02611 19.2634 2.92373C18.7906 2.78448 18.3073 2.67087 17.8151 2.58432C17.4593 2.52179 17.1184 2.75957 17.0382 3.12279L16.8844 3.8181V3.10623C16.8844 2.73333 16.603 2.42282 16.2422 2.40286C15.9964 2.38933 15.7489 2.38239 15.5 2.38239C15.251 2.38239 15.0035 2.38933 14.7579 2.40293C14.3971 2.42289 14.1156 2.73341 14.1156 3.1063V3.81315L13.963 3.12279C13.8828 2.75957 13.5419 2.52179 13.1861 2.58425C12.6939 2.67073 12.2106 2.78426 11.7377 2.92351C11.3904 3.02581 11.183 3.39316 11.2633 3.75668L11.4174 4.45376L11.117 3.80989C10.9603 3.47381 10.5761 3.32029 10.2425 3.46375C9.78348 3.66125 9.3371 3.88388 8.90496 4.12994C8.58897 4.30985 8.46639 4.71512 8.62291 5.05077L8.92279 5.69368L8.49267 5.13688C8.26733 4.84514 7.85947 4.78372 7.56524 5.00051C7.16182 5.29779 6.77473 5.61725 6.40553 5.95696C6.13609 6.20494 6.10372 6.6284 6.32877 6.91977L6.75804 7.47553L6.21972 7.03234C5.93753 6.80003 5.52723 6.83336 5.287 7.1115C4.95783 7.49261 4.64836 7.89211 4.36037 8.30855C4.15035 8.61219 4.20978 9.0332 4.4924 9.26589L5.0318 9.70996L4.40906 9.40034C4.08397 9.23869 3.69129 9.36523 3.51701 9.69141C3.27863 10.1375 3.06289 10.5982 2.87149 11.0721C2.73244 11.4164 2.88116 11.8129 3.20667 11.9748L3.83042 12.2848L3.15512 12.1257C2.80297 12.0427 2.44709 12.2568 2.34792 12.6153C2.21302 13.1034 2.10296 13.6023 2.01911 14.1104C1.95853 14.4777 2.18888 14.8295 2.54075 14.9124L3.21433 15.071H2.52471C2.16339 15.071 1.86265 15.3616 1.84332 15.734C1.83022 15.9876 1.82349 16.243 1.82349 16.5C1.82349 16.757 1.83022 17.0125 1.84339 17.2661C1.86273 17.6385 2.16354 17.929 2.52478 17.929H3.20954L2.54068 18.0865C2.18881 18.1694 1.95846 18.5212 2.01897 18.8885C2.10274 19.3967 2.21273 19.8955 2.34763 20.3836C2.44673 20.7422 2.80261 20.9563 3.15476 20.8733L3.83006 20.7143L3.20624 21.0243C2.88066 21.1861 2.73193 21.5828 2.87092 21.9271C3.06225 22.4009 3.27792 22.8617 3.51629 23.3078C3.69058 23.634 4.08318 23.7605 4.40834 23.5989L5.03116 23.2894L4.49176 23.7334C4.20914 23.966 4.14963 24.387 4.35965 24.6907C4.64764 25.1071 4.95712 25.5067 5.28621 25.8878C5.52645 26.166 5.93667 26.1994 6.21893 25.9671L6.75726 25.5239L6.32792 26.0796C6.10286 26.3709 6.13516 26.7945 6.4046 27.0424C6.7738 27.3822 7.16082 27.7017 7.56424 27.999C7.85839 28.2158 8.26625 28.1544 8.49166 27.8627L8.92186 27.3059L8.62191 27.9487C8.46531 28.2843 8.58797 28.6896 8.90389 28.8695C9.33602 29.1156 9.78234 29.3383 10.2414 29.5359C10.5749 29.6794 10.9591 29.5259 11.1159 29.1899L11.4163 28.546L11.2621 29.2431C11.1817 29.6066 11.3891 29.974 11.7364 30.0763C12.2092 30.2156 12.6926 30.3292 13.1848 30.4158C13.5406 30.4783 13.8814 30.2405 13.9617 29.8773L14.1154 29.182V29.8938C14.1154 30.2668 14.3969 30.5773 14.7576 30.5972C15.0035 30.6107 15.251 30.6177 15.5 30.6177C15.7489 30.6177 15.9964 30.6107 16.2421 30.5971C16.6028 30.5772 16.8843 30.2667 16.8843 29.8938V29.1869L17.0369 29.8774C17.1172 30.2406 17.458 30.4784 17.8138 30.4159C18.3061 30.3294 18.7893 30.2159 19.2622 30.0766C19.6096 29.9743 19.8169 29.607 19.7366 29.2435L19.5825 28.5464L19.8829 29.1903C20.0396 29.5264 20.4239 29.6799 20.7574 29.5364C21.2164 29.3389 21.6628 29.1163 22.095 28.8702C22.4109 28.6903 22.5335 28.285 22.377 27.9494L22.0771 27.3065L22.5073 27.8633C22.7326 28.155 23.1405 28.2164 23.4347 27.9996C23.8381 27.7024 24.2252 27.3829 24.5944 27.0432C24.8638 26.7952 24.8962 26.3717 24.6711 26.0804L24.2419 25.5246L24.7802 25.9678C25.0624 26.2001 25.4727 26.1668 25.7129 25.8886C26.0421 25.5075 26.3516 25.108 26.6396 24.6916C26.8496 24.388 26.7901 23.9669 26.5075 23.7343L25.9681 23.2902L26.5909 23.5998C26.9159 23.7615 27.3086 23.6348 27.4829 23.3087C27.7213 22.8627 27.937 22.402 28.1284 21.9281C28.2675 21.5838 28.1188 21.1872 27.7933 21.0254L27.1695 20.7153L27.8448 20.8744C28.197 20.9574 28.5528 20.7434 28.652 20.3848C28.7869 19.8968 28.897 19.3978 28.9808 18.8898C29.0414 18.5225 28.811 18.1706 28.4592 18.0878L27.7856 17.9291H28.4752C28.8365 17.9291 29.1373 17.6385 29.1566 17.2662C29.1697 17.0125 29.1764 16.757 29.1764 16.5C29.1764 16.243 29.1697 15.9876 29.1565 15.734C29.1372 15.3616 28.8364 15.071 28.4751 15.071H27.7904L28.4592 14.9135C28.8111 14.8307 29.0415 14.4788 28.9809 14.1116Z"
        fill="#D9D9D9" />
    <path
        d="M15.4951 2.92666C15.7421 2.92666 15.9892 2.92666 16.2263 2.94593C16.5821 2.9652 16.8588 3.26383 16.8588 3.62026V4.30423L17.007 3.62989C17.0762 3.32163 17.3529 3.10006 17.6592 3.10006C17.6988 3.10006 17.7383 3.10006 17.7679 3.10006C18.2522 3.18676 18.7364 3.29273 19.2008 3.42759C19.5467 3.52393 19.7443 3.88036 19.6653 4.22716L19.5171 4.90149L19.8135 4.28496C19.9321 4.04413 20.1693 3.89963 20.4262 3.89963C20.5151 3.89963 20.5942 3.91889 20.6831 3.94779C21.1377 4.14046 21.5824 4.35239 22.0073 4.59323C22.3236 4.76663 22.4421 5.16159 22.284 5.47949L21.9876 6.09602L22.4125 5.55656C22.541 5.39279 22.7386 5.29646 22.9461 5.29646C23.0845 5.29646 23.2129 5.33499 23.3315 5.42169C23.7268 5.71069 24.1122 6.01896 24.4778 6.34649C24.7447 6.58732 24.7743 6.99192 24.5569 7.27129L24.132 7.81075L24.6656 7.38689C24.7941 7.29055 24.9423 7.24239 25.0905 7.24239C25.2783 7.24239 25.4562 7.31945 25.5945 7.46395C25.9206 7.83002 26.227 8.21535 26.5135 8.61995C26.7211 8.90895 26.6618 9.31355 26.3851 9.54475L25.8514 9.96861L26.4641 9.66998C26.563 9.62181 26.6618 9.60255 26.7606 9.60255C26.9978 9.60255 27.2251 9.72778 27.3535 9.94935C27.5907 10.3828 27.7982 10.826 27.9959 11.2787C28.1342 11.6063 27.9959 11.9916 27.6599 12.1457L27.0472 12.4444L27.7192 12.2902C27.7686 12.2806 27.818 12.271 27.8674 12.271C28.1639 12.271 28.4307 12.4636 28.5097 12.7623C28.6382 13.2343 28.7469 13.716 28.8358 14.2073C28.8951 14.5637 28.6678 14.9009 28.322 14.9779L27.6599 15.1321H28.3318C28.6876 15.1321 28.9841 15.4114 29.0038 15.7679C29.0137 16.0087 29.0236 16.2592 29.0236 16.5096C29.0236 16.7601 29.0236 17.0009 29.0038 17.2514C28.9841 17.6078 28.6876 17.8872 28.3318 17.8872H27.65L28.3121 18.0413C28.658 18.1184 28.8852 18.4556 28.8259 18.812C28.7469 19.3033 28.6382 19.785 28.4998 20.2474C28.4208 20.546 28.1441 20.7387 27.8575 20.7387C27.8081 20.7387 27.7587 20.7387 27.7093 20.7194L27.0373 20.5653L27.65 20.8639C27.9761 21.018 28.1144 21.4034 27.986 21.7309C27.7982 22.1837 27.5808 22.6268 27.3436 23.0603C27.2251 23.2819 26.9879 23.4071 26.7507 23.4071C26.6519 23.4071 26.5531 23.3878 26.4543 23.3397L25.8416 23.041L26.3752 23.4649C26.6519 23.6865 26.7112 24.0911 26.5037 24.3897C26.2171 24.7943 25.9107 25.1796 25.5846 25.5457C25.4562 25.6902 25.2684 25.7672 25.0806 25.7672C24.9324 25.7672 24.7842 25.7191 24.6557 25.6227L24.1221 25.1989L24.547 25.7383C24.7743 26.0177 24.7348 26.4223 24.468 26.6631C24.1023 26.9907 23.7169 27.2989 23.3216 27.5879C23.2031 27.6746 23.0647 27.7132 22.9362 27.7132C22.7386 27.7132 22.541 27.6265 22.4026 27.4531L21.9777 26.9136L22.2741 27.5301C22.4323 27.8577 22.3038 28.243 21.9974 28.4164C21.5725 28.6572 21.1278 28.8692 20.6733 29.0618C20.5942 29.1004 20.5053 29.11 20.4163 29.11C20.1693 29.11 19.9222 28.9655 19.8036 28.7247L19.5072 28.1081L19.6554 28.7825C19.7345 29.1293 19.5269 29.4857 19.1909 29.582C18.7265 29.7169 18.2423 29.8229 17.758 29.9096C17.7185 29.9096 17.679 29.9096 17.6493 29.9096C17.343 29.9096 17.0663 29.6976 16.9971 29.3797L16.8489 28.715V29.399C16.8489 29.7554 16.5722 30.0541 16.2164 30.0733C15.9694 30.083 15.7322 30.0926 15.4852 30.0926C15.2381 30.0926 14.9911 30.0926 14.7539 30.0733C14.3982 30.0541 14.1215 29.7554 14.1215 29.399V28.715L13.9732 29.3894C13.904 29.6976 13.6274 29.9192 13.321 29.9192C13.2815 29.9192 13.242 29.9192 13.2123 29.9192C12.7281 29.8325 12.2439 29.7265 11.7794 29.5917C11.4335 29.4953 11.2359 29.1389 11.3149 28.7921L11.4632 28.1178L11.1667 28.7343C11.0481 28.9751 10.811 29.1196 10.554 29.1196C10.4651 29.1196 10.386 29.1004 10.2971 29.0715C9.84252 28.8788 9.39783 28.6669 8.9729 28.426C8.65668 28.2526 8.53809 27.8577 8.69621 27.5398L8.99267 26.9232L8.56774 27.4627C8.43927 27.6265 8.24163 27.7228 8.03411 27.7228C7.89576 27.7228 7.76729 27.6843 7.64871 27.5976C7.25343 27.3086 6.86803 27.0003 6.50239 26.6728C6.23558 26.4319 6.20593 26.0273 6.42333 25.748L6.84826 25.2085L6.31463 25.6324C6.18616 25.7287 6.03793 25.7769 5.8897 25.7769C5.70194 25.7769 5.52407 25.6998 5.38572 25.5553C5.05961 25.1892 4.75327 24.8039 4.46669 24.3993C4.25916 24.1103 4.31846 23.7057 4.59515 23.4745L5.12879 23.0507L4.5161 23.3493C4.41728 23.3975 4.31846 23.4167 4.21964 23.4167C3.98247 23.4167 3.75518 23.2915 3.62671 23.0699C3.38954 22.6364 3.18202 22.1933 2.98438 21.7405C2.84603 21.413 2.98438 21.0277 3.32037 20.8735L3.93306 20.5749L3.26108 20.729C3.21167 20.7387 3.16226 20.7483 3.11285 20.7483C2.81639 20.7483 2.54957 20.5556 2.47051 20.257C2.34205 19.785 2.23334 19.3033 2.14441 18.812C2.08511 18.4556 2.3124 18.1184 2.65827 18.0413L3.32037 17.8872H2.64839C2.29264 17.8872 1.99617 17.6078 1.97641 17.2514C1.96653 17.0106 1.95665 16.7601 1.95665 16.5096C1.95665 16.2592 1.95665 16.0183 1.97641 15.7679C1.99617 15.4114 2.29264 15.1321 2.64839 15.1321H3.33025L2.66815 14.9779C2.32228 14.9009 2.095 14.5637 2.15429 14.2073C2.23334 13.716 2.34205 13.2343 2.4804 12.7623C2.55945 12.4636 2.83615 12.271 3.12273 12.271C3.17214 12.271 3.22155 12.271 3.27096 12.2902L3.94294 12.4444L3.33025 12.1457C3.00414 11.9916 2.8658 11.6063 2.99426 11.2787C3.18202 10.826 3.39943 10.3828 3.6366 9.94935C3.75518 9.72778 3.99235 9.60255 4.22952 9.60255C4.32834 9.60255 4.42716 9.62181 4.52598 9.66998L5.13867 9.96861L4.60504 9.54475C4.32834 9.32318 4.26905 8.91858 4.47657 8.61995C4.76315 8.21535 5.06949 7.83002 5.3956 7.46395C5.52407 7.31945 5.71183 7.24239 5.89959 7.24239C6.04782 7.24239 6.19605 7.29055 6.32451 7.38689L6.85814 7.81075L6.43322 7.27129C6.20593 6.99192 6.24546 6.58732 6.51227 6.34649C6.87791 6.01896 7.26331 5.71069 7.65859 5.42169C7.77718 5.33499 7.91552 5.29646 8.04399 5.29646C8.24163 5.29646 8.43927 5.38316 8.57762 5.55656L9.00255 6.09602L8.70609 5.47949C8.54798 5.15196 8.67644 4.76663 8.98279 4.59323C9.40771 4.35239 9.85241 4.14046 10.307 3.94779C10.386 3.90926 10.475 3.89963 10.5639 3.89963C10.811 3.89963 11.058 4.04413 11.1766 4.28496L11.4731 4.90149L11.3248 4.22716C11.2458 3.88036 11.4533 3.52393 11.7893 3.42759C12.2537 3.29273 12.738 3.18676 13.2222 3.10006C13.2617 3.10006 13.3012 3.10006 13.3309 3.10006C13.6372 3.10006 13.9139 3.312 13.9831 3.62989L14.1313 4.29459V3.61063C14.1313 3.2542 14.408 2.95556 14.7638 2.9363C15.0108 2.92666 15.248 2.91703 15.4951 2.91703M15.4951 1C15.2085 1 14.9318 1 14.6551 1.01927C14.3389 1.03853 14.0424 1.10597 13.7756 1.22157C13.6274 1.19267 13.4791 1.18303 13.3309 1.18303C13.1827 1.18303 13.0245 1.19267 12.8763 1.22157C12.3229 1.3179 11.7695 1.44313 11.226 1.59727C10.9295 1.68397 10.6529 1.81883 10.4157 1.99223C10.1093 2.0115 9.81288 2.07893 9.5263 2.19453C9.01243 2.4161 8.49857 2.65693 8.00446 2.9363C7.73765 3.09043 7.50048 3.2831 7.30284 3.50466C7.00638 3.59136 6.73956 3.72623 6.48263 3.89963C6.02805 4.22716 5.58336 4.58359 5.16831 4.94966C4.94103 5.15196 4.75327 5.39279 4.61492 5.65289C4.3481 5.79739 4.11093 5.99006 3.90341 6.22126C3.52789 6.63549 3.18202 7.07862 2.85591 7.54102C2.67804 7.79149 2.54957 8.07085 2.47051 8.35022C2.24323 8.55252 2.05547 8.78372 1.90724 9.05345C1.64042 9.54475 1.39337 10.0553 1.17596 10.5659C1.05738 10.8549 0.998087 11.1535 0.988205 11.4425C0.810328 11.6833 0.67198 11.9627 0.592923 12.2517C0.444692 12.7912 0.316226 13.3403 0.227287 13.8894C0.177877 14.1976 0.177877 14.4963 0.227287 14.7853C0.108703 15.055 0.0395282 15.3536 0.0197641 15.6619C0.00988205 15.9413 0 16.2206 0 16.5C0 16.7794 0 17.0587 0.0197641 17.3381C0.0395282 17.6464 0.108703 17.945 0.227287 18.2147C0.167995 18.5037 0.167995 18.8024 0.227287 19.1106C0.316226 19.6597 0.444692 20.2185 0.592923 20.7483C0.681862 21.0469 0.810328 21.3167 0.988205 21.5575C0.998087 21.8561 1.05738 22.1548 1.17596 22.4341C1.39337 22.9543 1.63054 23.4649 1.90724 23.9466C2.05547 24.2163 2.25311 24.4571 2.47051 24.6498C2.54957 24.9388 2.67804 25.2085 2.85591 25.459C3.18202 25.9117 3.52789 26.3549 3.90341 26.7787C4.11093 27.0099 4.3481 27.2026 4.61492 27.3471C4.75327 27.6072 4.94103 27.848 5.16831 28.0503C5.58336 28.426 6.02805 28.7825 6.48263 29.1004C6.72968 29.2834 7.00638 29.4183 7.30284 29.4953C7.50048 29.7169 7.72777 29.9096 8.00446 30.0637C8.49857 30.3334 9.00255 30.5839 9.5263 30.8055C9.81288 30.9211 10.1093 30.9885 10.4157 31.0078C10.6529 31.1812 10.9295 31.316 11.226 31.4027C11.7596 31.5569 12.3229 31.6821 12.8763 31.7784C13.0245 31.8073 13.1827 31.817 13.3309 31.817C13.4791 31.817 13.6372 31.8073 13.7756 31.7784C14.0523 31.894 14.3487 31.9615 14.665 31.9807C14.9417 32 15.2282 32 15.5049 32C15.7816 32 16.0682 32 16.3449 31.9807C16.6611 31.9615 16.9576 31.894 17.2244 31.7784C17.3726 31.8073 17.5209 31.817 17.6691 31.817C17.8173 31.817 17.9755 31.8073 18.1237 31.7784C18.6771 31.6821 19.2305 31.5569 19.774 31.4027C20.0704 31.316 20.3471 31.1812 20.5843 31.0078C20.8907 30.9885 21.1871 30.9211 21.4737 30.8055C21.9876 30.5839 22.5014 30.3431 22.9955 30.0637C23.2624 29.9096 23.4995 29.7169 23.6972 29.4953C23.9936 29.4086 24.2703 29.2738 24.5174 29.1004C24.9719 28.7728 25.4166 28.4164 25.8317 28.0503C26.059 27.848 26.2467 27.6072 26.3851 27.3471C26.6519 27.2026 26.8891 27.0099 27.0966 26.7787C27.4721 26.3645 27.818 25.9214 28.1441 25.459C28.322 25.2085 28.4504 24.9291 28.5295 24.6498C28.7568 24.4475 28.9445 24.2163 29.0928 23.9466C29.3596 23.4553 29.6066 22.9447 29.824 22.4341C29.9426 22.1451 30.0019 21.8465 30.0118 21.5575C30.1897 21.3167 30.328 21.0373 30.4071 20.7483C30.5553 20.2088 30.6838 19.6597 30.7727 19.1106C30.8221 18.8024 30.8221 18.5037 30.7727 18.2147C30.8913 17.945 30.9605 17.6464 30.9802 17.3381C30.9901 17.0587 31 16.7794 31 16.5C31 16.2206 31 15.9413 30.9802 15.6619C30.9605 15.3536 30.8913 15.055 30.7727 14.7853C30.832 14.4963 30.832 14.1976 30.7727 13.8894C30.6838 13.3403 30.5553 12.7815 30.4071 12.2517C30.3181 11.9531 30.1897 11.6833 30.0118 11.4425C30.0019 11.1439 29.9426 10.8452 29.824 10.5659C29.6066 10.0457 29.3695 9.54475 29.0928 9.05345C28.9445 8.78372 28.7469 8.54288 28.5295 8.35022C28.4504 8.06122 28.322 7.79149 28.1441 7.54102C27.818 7.08825 27.4721 6.64512 27.0966 6.22126C26.8891 5.99006 26.6519 5.79739 26.3851 5.65289C26.2467 5.39279 26.059 5.15196 25.8317 4.94966C25.4166 4.57396 24.9719 4.21753 24.5174 3.89963C24.2703 3.71659 23.9936 3.58173 23.6972 3.50466C23.4995 3.2831 23.2722 3.09043 22.9955 2.9363C22.5014 2.66656 21.9974 2.4161 21.4737 2.19453C21.1871 2.07893 20.8907 2.0115 20.5843 1.99223C20.3471 1.81883 20.0704 1.68397 19.774 1.59727C19.2305 1.44313 18.6771 1.3179 18.1237 1.22157C17.9755 1.19267 17.8173 1.18303 17.6691 1.18303C17.5209 1.18303 17.3628 1.19267 17.2244 1.22157C16.9477 1.10597 16.6513 1.03853 16.3449 1.01927C16.0682 1 15.7816 1 15.5049 1L15.4951 1Z"
        fill="#3E3631" />
    <path
        d="M28.9809 14.1116C28.8971 13.6034 28.7871 13.1046 28.6522 12.6164C28.5531 12.2579 28.1972 12.0438 27.8451 12.1267L27.1698 12.2858L27.7936 11.9757C28.1192 11.8139 28.2679 11.4173 28.1289 11.073C27.9376 10.5992 27.7219 10.1384 27.4836 9.6923C27.3093 9.36611 26.9167 9.23957 26.5915 9.40115L25.9687 9.7107L26.5081 9.2667C26.7907 9.03409 26.8502 8.61307 26.6402 8.30936C26.3522 7.89293 26.0427 7.49334 25.7136 7.11224C25.4734 6.8341 25.0632 6.80069 24.7809 7.03301L24.2426 7.47612L24.6719 6.92043C24.897 6.62914 24.8647 6.20561 24.5952 5.95762C24.2261 5.61784 23.839 5.29838 23.4356 5.0011C23.1415 4.78431 22.7336 4.84566 22.5082 5.1374L22.078 5.69419L22.3779 5.05136C22.5345 4.71579 22.4119 4.31044 22.096 4.13053C21.6638 3.88447 21.2175 3.66177 20.7585 3.4642C20.4249 3.32065 20.0408 3.47417 19.884 3.81019L19.5836 4.45406L19.7377 3.75697C19.8181 3.39346 19.6108 3.02611 19.2634 2.92373C18.7906 2.78448 18.3073 2.67087 17.8151 2.58432C17.4593 2.52179 17.1184 2.75957 17.0382 3.12279L16.8844 3.8181V3.10623C16.8844 2.73333 16.603 2.42282 16.2422 2.40286C15.9964 2.38933 15.7489 2.38239 15.5 2.38239C15.251 2.38239 15.0035 2.38933 14.7579 2.40293C14.3971 2.42289 14.1156 2.73341 14.1156 3.1063V3.81315L13.963 3.12279C13.8828 2.75957 13.5419 2.52179 13.1861 2.58425C12.6939 2.67073 12.2106 2.78426 11.7377 2.92351C11.3904 3.02581 11.183 3.39316 11.2633 3.75668L11.4174 4.45376L11.117 3.80989C10.9603 3.47381 10.5761 3.32029 10.2425 3.46375C9.78348 3.66125 9.3371 3.88388 8.90496 4.12994C8.58897 4.30985 8.46639 4.71512 8.62291 5.05077L8.92279 5.69368L8.49267 5.13688C8.26733 4.84514 7.85947 4.78372 7.56524 5.00051C7.16182 5.29779 6.77473 5.61725 6.40553 5.95696C6.13609 6.20494 6.10372 6.6284 6.32877 6.91977L6.75804 7.47553L6.21972 7.03234C5.93753 6.80003 5.52723 6.83336 5.287 7.1115C4.95783 7.49261 4.64836 7.89211 4.36037 8.30855C4.15035 8.61219 4.20978 9.0332 4.4924 9.26589L5.0318 9.70996L4.40906 9.40034C4.08397 9.23869 3.69129 9.36523 3.51701 9.69141C3.27863 10.1375 3.06289 10.5982 2.87149 11.0721C2.73244 11.4164 2.88116 11.8129 3.20667 11.9748L3.83042 12.2848L3.15512 12.1257C2.80297 12.0427 2.44709 12.2568 2.34792 12.6153C2.21302 13.1034 2.10296 13.6023 2.01911 14.1104C1.95853 14.4777 2.18888 14.8295 2.54075 14.9124L3.21433 15.071H2.52471C2.16339 15.071 1.86265 15.3616 1.84332 15.734C1.83022 15.9876 1.82349 16.243 1.82349 16.5C1.82349 16.757 1.83022 17.0125 1.84339 17.2661C1.86273 17.6385 2.16354 17.929 2.52478 17.929H3.20954L2.54068 18.0865C2.18881 18.1694 1.95846 18.5212 2.01897 18.8885C2.10274 19.3967 2.21273 19.8955 2.34763 20.3836C2.44673 20.7422 2.80261 20.9563 3.15476 20.8733L3.83006 20.7143L3.20624 21.0243C2.88066 21.1861 2.73193 21.5828 2.87092 21.9271C3.06225 22.4009 3.27792 22.8617 3.51629 23.3078C3.69058 23.634 4.08318 23.7605 4.40834 23.5989L5.03116 23.2894L4.49176 23.7334C4.20914 23.966 4.14963 24.387 4.35965 24.6907C4.64764 25.1071 4.95712 25.5067 5.28621 25.8878C5.52645 26.166 5.93667 26.1994 6.21893 25.9671L6.75726 25.5239L6.32792 26.0796C6.10286 26.3709 6.13516 26.7945 6.4046 27.0424C6.7738 27.3822 7.16082 27.7017 7.56424 27.999C7.85839 28.2158 8.26625 28.1544 8.49166 27.8627L8.92186 27.3059L8.62191 27.9487C8.46531 28.2843 8.58797 28.6896 8.90389 28.8695C9.33602 29.1156 9.78234 29.3383 10.2414 29.5359C10.5749 29.6794 10.9591 29.5259 11.1159 29.1899L11.4163 28.546L11.2621 29.2431C11.1817 29.6066 11.3891 29.974 11.7364 30.0763C12.2092 30.2156 12.6926 30.3292 13.1848 30.4158C13.5406 30.4783 13.8814 30.2405 13.9617 29.8773L14.1154 29.182V29.8938C14.1154 30.2668 14.3969 30.5773 14.7576 30.5972C15.0035 30.6107 15.251 30.6177 15.5 30.6177C15.7489 30.6177 15.9964 30.6107 16.2421 30.5971C16.6028 30.5772 16.8843 30.2667 16.8843 29.8938V29.1869L17.0369 29.8774C17.1172 30.2406 17.458 30.4784 17.8138 30.4159C18.3061 30.3294 18.7893 30.2159 19.2622 30.0766C19.6096 29.9743 19.8169 29.607 19.7366 29.2435L19.5825 28.5464L19.8829 29.1903C20.0396 29.5264 20.4239 29.6799 20.7574 29.5364C21.2164 29.3389 21.6628 29.1163 22.095 28.8702C22.4109 28.6903 22.5335 28.285 22.377 27.9494L22.0771 27.3065L22.5073 27.8633C22.7326 28.155 23.1405 28.2164 23.4347 27.9996C23.8381 27.7024 24.2252 27.3829 24.5944 27.0432C24.8638 26.7952 24.8962 26.3717 24.6711 26.0804L24.2419 25.5246L24.7802 25.9678C25.0624 26.2001 25.4727 26.1668 25.7129 25.8886C26.0421 25.5075 26.3516 25.108 26.6396 24.6916C26.8496 24.388 26.7901 23.9669 26.5075 23.7343L25.9681 23.2902L26.5909 23.5998C26.916 23.7615 27.3086 23.6348 27.4829 23.3087C27.7213 22.8627 27.937 22.402 28.1284 21.9281C28.2675 21.5838 28.1188 21.1872 27.7933 21.0254L27.1695 20.7153L27.8448 20.8744C28.197 20.9574 28.5528 20.7434 28.652 20.3848C28.7869 19.8968 28.897 19.3979 28.9808 18.8898C29.0414 18.5225 28.811 18.1706 28.4592 18.0878L27.7856 17.9291H28.4752C28.8365 17.9291 29.1373 17.6385 29.1566 17.2662C29.1697 17.0125 29.1764 16.757 29.1764 16.5C29.1764 16.243 29.1697 15.9876 29.1565 15.734C29.1372 15.3616 28.8364 15.071 28.4751 15.071H27.7904L28.4592 14.9135C28.8111 14.8307 29.0415 14.4788 28.9809 14.1116Z"
        fill="url(#paint0_linear_65_3824)" />
    <path
        d="M15.5 29.78C22.6051 29.78 28.365 23.8344 28.365 16.5C28.365 9.16571 22.6051 3.22006 15.5 3.22006C8.39486 3.22006 2.63501 9.16571 2.63501 16.5C2.63501 23.8344 8.39486 29.78 15.5 29.78Z"
        fill="url(#paint1_linear_65_3824)" />
    <path
        d="M15.5 26.9713C21.1023 26.9713 25.644 22.2831 25.644 16.5C25.644 10.7169 21.1023 6.02881 15.5 6.02881C9.89758 6.02881 5.35596 10.7169 5.35596 16.5C5.35596 22.2831 9.89758 26.9713 15.5 26.9713Z"
        fill="url(#paint2_linear_65_3824)" />
    <path
        d="M17.3649 11.3663L16.1216 10.0829L11.77 15.2166L16.7433 20.3503H15.5L13.0133 19.0669L11.77 20.3503L19.2299 26.7674L23.5815 25.484L26.0681 17.7835L17.9866 10.7246L17.3649 11.3663Z"
        fill="url(#paint3_linear_65_3824)" />
    <path
        d="M16.2367 15.248V12.9628C17.2244 13.041 17.513 13.5418 18.0144 13.5418C18.683 13.5418 18.9564 12.6811 18.9564 12.2585C18.9564 11.1786 17.1788 10.9281 16.2367 10.8969V10.5056C16.2367 10.2865 15.9481 10.0829 15.6595 10.0829C15.3252 10.0829 15.0821 10.2864 15.0821 10.5056V10.9437C13.4716 11.1785 12.0435 12.1333 12.0435 14.1211C12.0435 16.1244 13.6843 16.7975 15.0821 17.3452V19.8807C13.9578 19.6772 13.4413 18.7538 12.8031 18.7538C12.2258 18.7538 11.77 19.5364 11.77 20.0684C11.77 21.0701 13.2589 22.0406 15.0821 22.1032V22.4945C15.0821 22.7136 15.3253 22.9171 15.6595 22.9171C15.9481 22.9171 16.2367 22.7136 16.2367 22.4945V22.0406C18.0144 21.7433 19.2299 20.5693 19.2299 18.6286C19.2299 16.5158 17.6194 15.78 16.2367 15.248ZM15.2341 14.8723C14.6567 14.622 14.2617 14.3402 14.2617 13.8862C14.2617 13.5107 14.5503 13.1506 15.2341 13.0098V14.8723ZM16.0849 19.8651V17.7678C16.6319 18.0339 17.0117 18.3626 17.0117 18.8791C17.0117 19.4425 16.6014 19.74 16.0849 19.8651Z"
        fill="#FDD0AB" />
    <defs>
        <linearGradient id="paint0_linear_65_3824" x1="26.1213" y1="27.464" x2="4.67164"
            y2="6.68464" gradientUnits="userSpaceOnUse">
            <stop stop-color="#FED7B1" />
            <stop offset="1" stop-color="#DD6A6B" />
        </linearGradient>
        <linearGradient id="paint1_linear_65_3824" x1="11.1485" y1="3.66578" x2="17.7494"
            y2="30.5232" gradientUnits="userSpaceOnUse">
            <stop stop-color="#FFDDB7" />
            <stop offset="0.541666" stop-color="#F5A180" />
            <stop offset="1" stop-color="#DA5866" />
        </linearGradient>
        <linearGradient id="paint2_linear_65_3824" x1="22.923" y1="24.1625" x2="8.09821"
            y2="9.80102" gradientUnits="userSpaceOnUse">
            <stop stop-color="#FFDDB6" />
            <stop offset="0.616666" stop-color="#F6A887" />
            <stop offset="1" stop-color="#F49879" />
        </linearGradient>
        <linearGradient id="paint3_linear_65_3824" x1="13.635" y1="12.6498" x2="26.374" y2="22.5225"
            gradientUnits="userSpaceOnUse">
            <stop stop-color="#E67972" />
            <stop offset="1" stop-color="#E67972" stop-opacity="0" />
        </linearGradient>
    </defs>
</svg>