<svg width="17" height="18" viewBox="0 0 17 18" fill="none" xmlns="http://www.w3.org/2000/svg">
<path fill-rule="evenodd" clip-rule="evenodd" d="M11.3963 12.3709C11.3845 12.383 11.3726 12.395 11.3606 12.407C11.2126 12.555 11.0569 12.6914 10.8951 12.8158C10.732 12.9415 10.5625 13.0551 10.388 13.1567L10.4608 11.9326C10.5365 11.868 10.6103 11.7998 10.6819 11.7282C10.8606 11.5495 11.0174 11.3579 11.1525 11.1566L10.5313 10.7467L11.3663 10.7963C11.3784 10.773 11.3903 10.7496 11.4019 10.7261M11.3963 12.3709L11.4742 11.0606L11.3963 12.3709ZM11.4742 11.0606L11.623 10.8353L11.8834 10.4407C11.9475 10.3436 11.9999 10.2405 12.0399 10.1333C12.1347 9.8799 12.1561 9.61695 12.1158 9.36734C12.2919 9.28641 12.459 9.172 12.6093 9.0217L12.7496 8.88138C12.736 8.48674 12.6735 8.09347 12.562 7.71145L11.9306 8.34294C11.8749 8.39858 11.8139 8.44285 11.7498 8.4764C11.7567 8.52216 11.7628 8.56802 11.768 8.61395C11.7377 8.57834 11.7057 8.54406 11.6722 8.51128C11.6565 8.51722 11.6407 8.52257 11.6249 8.52735C11.2723 8.63351 10.8703 8.45671 10.7306 8.09058C10.7163 8.05311 10.7047 8.01367 10.6963 7.97234L10.6324 9.04656C10.6452 9.04691 10.6579 9.04767 10.6704 9.04882C10.9302 9.07285 11.1197 9.26864 11.165 9.49926M11.7676 9.48253C11.7478 9.65526 11.7161 9.82686 11.6726 9.99598C11.6505 10.0819 11.6253 10.1672 11.5971 10.2517C11.5971 10.2518 11.5971 10.2517 11.5971 10.2517C11.5731 10.3238 11.5468 10.3952 11.5183 10.4659C11.483 10.5538 11.4441 10.6406 11.4019 10.7261M0.982573 11.1461C0.238836 8.65363 0.849689 5.83887 2.82112 3.86744C5.18775 1.50081 8.76897 1.09364 11.5548 2.64122L14.6464 3.27444M14.6464 3.27444C15.9667 3.54485 16.4559 5.17502 15.5032 6.12786L15.1239 6.50709C15.0137 6.61735 14.969 6.78427 15.0174 6.94662C15.7612 9.43904 15.1503 12.2538 13.1789 14.2253C10.8123 16.5919 7.23104 16.999 4.44525 15.4515L1.35363 14.8183C0.0334499 14.5479 -0.455962 12.9177 0.496861 11.9649C0.496852 11.9649 0.496869 11.9649 0.496861 11.9649L0.876044 11.5857C0.9863 11.4754 1.03102 11.3084 0.982573 11.1461M1.17564 12.6436L1.55482 12.2644C1.91918 11.9 2.04976 11.3654 1.9024 10.8716C1.25542 8.70341 1.7877 6.25837 3.49988 4.54619C5.59071 2.45536 8.77455 2.12373 11.2124 3.55092L14.4538 4.21482C15.0248 4.33178 15.2365 5.03693 14.8244 5.44915L14.4452 5.82834M4.78766 14.5418L1.54624 13.8779C0.975172 13.7609 0.763468 13.0558 1.17564 12.6436" fill="white"/>
<circle cx="8.00009" cy="9.04629" r="5.75943" fill="#6F880A"/>
<path d="M14.4538 4.21482L11.2124 3.55091C8.7746 2.12373 5.59076 2.45535 3.49993 4.54619C1.78775 6.25836 1.25547 8.7034 1.90245 10.8716C2.0498 11.3654 1.91923 11.9 1.55487 12.2644L1.17569 12.6436C0.763517 13.0558 0.975221 13.7609 1.54629 13.8779L4.7877 14.5418C7.22551 15.969 10.4093 15.6374 12.5002 13.5465C14.2124 11.8343 14.7446 9.38928 14.0977 7.22112C13.9503 6.72735 14.0809 6.19269 14.4452 5.82833L14.8244 5.44915C15.2366 5.03692 15.0249 4.33178 14.4538 4.21482ZM10.6963 7.97234C10.8133 8.54338 11.5184 8.75511 11.9306 8.34294L12.5621 7.71144C13.0322 9.32355 12.6319 11.1357 11.3607 12.407C9.90097 13.8667 7.72795 14.178 5.9636 13.3416L5.30381 10.1203C5.18685 9.5493 4.4817 9.33757 4.06953 9.74974L3.43804 10.3812C2.96789 8.7691 3.36822 6.95694 4.63944 5.68572C6.09917 4.226 8.27218 3.91464 10.0365 4.75107L10.6963 7.97234Z" fill="url(#paint0_linear_373_1810)"/>
<path d="M5.52984 3.99099C4.98525 4.25699 4.47502 4.61625 4.02252 5.06872C2.65828 6.43297 2.14129 8.32356 2.47156 10.0866C2.55589 10.5369 3.11401 10.7052 3.43793 10.3813C2.9677 8.76927 3.36828 6.95686 4.63947 5.68567C5.03737 5.28777 5.48827 4.97525 5.96951 4.7479C7.2535 4.14152 8.75318 4.14218 10.0365 4.7506L9.95088 4.33294C9.9111 4.13904 9.9511 3.95392 10.0434 3.80408C8.58782 3.23721 6.94413 3.29968 5.52984 3.99099ZM12.5622 7.7113C13.0325 9.3233 12.6319 11.1357 11.3607 12.4069C11.2127 12.5549 11.0569 12.6913 10.8952 12.8158C9.46403 13.918 7.54896 14.0933 5.96368 13.342L6.04929 13.7596C6.08906 13.9535 6.04906 14.1386 5.95673 14.2885C7.69096 14.9637 9.69255 14.7459 11.2542 13.6354C11.5081 13.4552 11.7503 13.2512 11.9777 13.0238C13.3419 11.6596 13.8589 9.76901 13.5286 8.00593C13.4442 7.55564 12.8862 7.38738 12.5622 7.7113Z" fill="url(#paint1_linear_373_1810)"/>
<path d="M11.5564 14.3249L10.3879 13.1564C9.03145 13.9457 7.36816 14.0073 5.96366 13.3416L6.04924 13.7596C6.15461 14.2738 5.69987 14.7286 5.18562 14.6232L4.78796 14.5418C6.88231 15.7677 9.52693 15.6953 11.5564 14.3249Z" fill="url(#paint2_linear_373_1810)"/>
<path d="M12.9784 13.0114H10.6217C9.73313 13.6002 8.69038 13.8585 7.66634 13.7868L6.90869 14.5445L7.77016 15.4059C9.47464 15.4672 11.199 14.8476 12.5001 13.5464C12.6714 13.3751 12.8307 13.1964 12.9784 13.0114Z" fill="url(#paint3_linear_373_1810)"/>
<path d="M5.15759 3.3506L6.38331 4.57632C7.56812 4.14872 8.88867 4.20693 10.0364 4.75103L9.95083 4.33298C9.84546 3.81872 10.3002 3.36399 10.8145 3.46935L11.2122 3.55079C9.35583 2.46411 7.06709 2.39739 5.15759 3.3506Z" fill="url(#paint4_linear_373_1810)"/>
<path d="M10.0364 4.75063L9.95394 4.34828L9.34637 3.74072V4.48788C9.5814 4.55706 9.81227 4.64435 10.0364 4.75063Z" fill="url(#paint5_linear_373_1810)"/>
<path d="M10.6165 9.04627H9.68128C9.42157 9.04627 9.21804 8.82308 9.24192 8.56448L9.61409 4.53198C9.71112 3.4807 8.33807 2.99855 7.75655 3.8797L4.91789 8.18071C4.67297 8.55178 4.93911 9.04627 5.38372 9.04627H6.31893C6.57864 9.04627 6.78217 9.26946 6.75829 9.52806L6.38612 13.5606C6.28909 14.6118 7.66214 15.094 8.24366 14.2128L11.0823 9.91186C11.3272 9.54076 11.0611 9.04627 10.6165 9.04627Z" fill="url(#paint6_linear_373_1810)"/>
<path d="M10.6164 9.04629H9.68118C9.42147 9.04629 9.21794 8.82311 9.24182 8.5645L9.61399 4.53201C9.6578 4.05723 9.40176 3.69858 9.05421 3.52911L7.58474 6.86063C7.27697 7.55838 7.42952 8.3735 7.96875 8.91277C8.49289 9.43691 8.65306 10.2236 8.37557 10.9109L6.90869 14.5444C7.33461 14.7732 7.9152 14.7103 8.24356 14.2128L11.0822 9.91185C11.3271 9.54078 11.061 9.04629 10.6164 9.04629Z" fill="url(#paint7_linear_373_1810)"/>
<path d="M6.68217 10.3522L6.38605 13.5606C6.28902 14.6119 7.66207 15.094 8.2436 14.2129L10.7917 10.3521H6.68217V10.3522Z" fill="url(#paint8_linear_373_1810)"/>
<defs>
<linearGradient id="paint0_linear_373_1810" x1="1.57396" y1="9.04634" x2="18.2031" y2="9.04634" gradientUnits="userSpaceOnUse">
<stop stop-color="#BBEC6C"/>
<stop offset="0.2905" stop-color="#ABDC59"/>
<stop offset="0.8729" stop-color="#82B22A"/>
<stop offset="1" stop-color="#78A91F"/>
</linearGradient>
<linearGradient id="paint1_linear_373_1810" x1="14.7826" y1="9.04624" x2="-0.644215" y2="9.04624" gradientUnits="userSpaceOnUse">
<stop stop-color="#BBEC6C"/>
<stop offset="0.2905" stop-color="#ABDC59"/>
<stop offset="0.8729" stop-color="#82B22A"/>
<stop offset="1" stop-color="#78A91F"/>
</linearGradient>
<linearGradient id="paint2_linear_373_1810" x1="8.09361" y1="14.0968" x2="5.36429" y2="13.3219" gradientUnits="userSpaceOnUse">
<stop stop-color="#026841" stop-opacity="0"/>
<stop offset="0.238" stop-color="#076743" stop-opacity="0.238"/>
<stop offset="0.5198" stop-color="#156349" stop-opacity="0.52"/>
<stop offset="0.8225" stop-color="#2D5D52" stop-opacity="0.823"/>
<stop offset="1" stop-color="#3E5959"/>
</linearGradient>
<linearGradient id="paint3_linear_373_1810" x1="10.1431" y1="14.1036" x2="7.91633" y2="13.0914" gradientUnits="userSpaceOnUse">
<stop stop-color="#026841" stop-opacity="0"/>
<stop offset="0.238" stop-color="#076743" stop-opacity="0.238"/>
<stop offset="0.5198" stop-color="#156349" stop-opacity="0.52"/>
<stop offset="0.8225" stop-color="#2D5D52" stop-opacity="0.823"/>
<stop offset="1" stop-color="#3E5959"/>
</linearGradient>
<linearGradient id="paint4_linear_373_1810" x1="8.34726" y1="3.84137" x2="10.2941" y2="4.47034" gradientUnits="userSpaceOnUse">
<stop stop-color="#026841" stop-opacity="0"/>
<stop offset="0.238" stop-color="#076743" stop-opacity="0.238"/>
<stop offset="0.5198" stop-color="#156349" stop-opacity="0.52"/>
<stop offset="0.8225" stop-color="#2D5D52" stop-opacity="0.823"/>
<stop offset="1" stop-color="#3E5959"/>
</linearGradient>
<linearGradient id="paint5_linear_373_1810" x1="10.4499" y1="4.63631" x2="9.29738" y2="4.09111" gradientUnits="userSpaceOnUse">
<stop stop-color="#026841" stop-opacity="0"/>
<stop offset="0.238" stop-color="#076743" stop-opacity="0.238"/>
<stop offset="0.5198" stop-color="#156349" stop-opacity="0.52"/>
<stop offset="0.8225" stop-color="#2D5D52" stop-opacity="0.823"/>
<stop offset="1" stop-color="#3E5959"/>
</linearGradient>
<linearGradient id="paint6_linear_373_1810" x1="6.43186" y1="7.47803" x2="8.42677" y2="9.47293" gradientUnits="userSpaceOnUse">
<stop stop-color="#FFDD00"/>
<stop offset="1" stop-color="#FFB000"/>
</linearGradient>
<linearGradient id="paint7_linear_373_1810" x1="10.4545" y1="9.10029" x2="6.05216" y2="9.10029" gradientUnits="userSpaceOnUse">
<stop stop-color="#FFDD00"/>
<stop offset="1" stop-color="#FFB000"/>
</linearGradient>
<linearGradient id="paint8_linear_373_1810" x1="8.58643" y1="11.2242" x2="8.58643" y2="14.911" gradientUnits="userSpaceOnUse">
<stop stop-color="#FEA613" stop-opacity="0"/>
<stop offset="1" stop-color="#E94444"/>
</linearGradient>
</defs>
</svg>
