<svg width="34" height="31" viewBox="0 0 34 31" fill="none" xmlns="http://www.w3.org/2000/svg">
    <g clip-path="url(#clip0_65_3779)">
        <path fill-rule="evenodd" clip-rule="evenodd"
            d="M24.3763 22.0935C24.3517 22.1187 24.3269 22.1437 24.3019 22.1687C23.9935 22.4772 23.669 22.7613 23.332 23.0206C22.9921 23.2824 22.639 23.5191 22.2754 23.7308L22.4271 21.1804C22.5847 21.0457 22.7385 20.9037 22.8877 20.7545C23.2601 20.3821 23.5867 19.983 23.8683 19.5636L22.574 18.7094L24.3137 18.8128C24.339 18.7643 24.3637 18.7155 24.3879 18.6665M24.3763 22.0935L24.5386 19.3635L24.3763 22.0935ZM24.5386 19.3635L24.8485 18.894L25.3911 18.0719C25.5246 17.8695 25.6338 17.6549 25.7173 17.4315C25.9148 16.9035 25.9593 16.3556 25.8755 15.8355C26.2422 15.6669 26.5905 15.4285 26.9036 15.1154L27.196 14.823C27.1676 14.0008 27.0373 13.1814 26.8051 12.3854L25.4894 13.7011C25.3735 13.8171 25.2464 13.9093 25.1128 13.9792C25.1272 14.0745 25.1398 14.1701 25.1507 14.2658C25.0876 14.1916 25.021 14.1202 24.951 14.0519C24.9184 14.0643 24.8856 14.0754 24.8525 14.0854C24.1179 14.3065 23.2802 13.9382 22.9892 13.1753C22.9594 13.0973 22.9354 13.0151 22.9177 12.929L22.7846 15.1672C22.8114 15.1679 22.8378 15.1695 22.8638 15.1719C23.4052 15.2219 23.7999 15.6299 23.8944 16.1104M25.1499 16.0755C25.1086 16.4354 25.0426 16.7929 24.952 17.1453C24.9059 17.3244 24.8535 17.5022 24.7947 17.6782C24.7947 17.6782 24.7947 17.6782 24.7947 17.6782C24.7446 17.8282 24.6899 17.9771 24.6305 18.1244C24.5568 18.3075 24.4759 18.4884 24.3879 18.6665M2.67882 19.5416C1.12922 14.3485 2.40195 8.48381 6.50952 4.37625C11.4405 -0.554717 18.9021 -1.40307 24.7064 1.82137L31.1479 3.14071M31.1479 3.14071C33.8988 3.70412 34.9181 7.10064 32.9331 9.08594L32.1429 9.87608C31.9132 10.1058 31.8201 10.4536 31.921 10.7919C33.4706 15.9849 32.1979 21.8496 28.0904 25.9572C23.1594 30.8882 15.6978 31.7365 9.89345 28.5121L3.45194 27.1927C0.701286 26.6293 -0.318423 23.2329 1.66682 21.2476C1.6668 21.2476 1.66684 21.2475 1.66682 21.2476L2.45687 20.4575C2.68659 20.2277 2.77977 19.8798 2.67882 19.5416M3.08109 22.6617L3.87113 21.8716C4.63029 21.1125 4.90234 19.9985 4.59532 18.9697C3.24731 14.4522 4.35634 9.35785 7.92373 5.79046C12.2801 1.43411 18.9137 0.74317 23.993 3.71677L30.7466 5.10003C31.9365 5.34373 32.3776 6.81293 31.5188 7.67182L30.7287 8.46186M10.6069 26.6167L3.85324 25.2334C2.6634 24.9897 2.22231 23.5205 3.08109 22.6617"
            fill="#875230" />
        <circle cx="17.2999" cy="15.1667" r="12" fill="#6F880A" />
        <path
            d="M30.7467 5.10004L23.993 3.71677C18.9138 0.743178 12.2801 1.43412 7.92377 5.79047C4.35638 9.35786 3.24735 14.4522 4.59536 18.9697C4.90238 19.9985 4.63033 21.1125 3.87117 21.8716L3.08113 22.6617C2.22235 23.5205 2.66344 24.9897 3.85328 25.2334L10.6069 26.6167C15.6862 29.5903 22.3198 28.8994 26.6762 24.543C30.2436 20.9756 31.3526 15.8812 30.0046 11.3638C29.6976 10.335 29.9696 9.22103 30.7288 8.46187L31.5188 7.67183C32.3776 6.81294 31.9365 5.34374 30.7467 5.10004ZM22.9178 12.929C23.1615 14.1188 24.6307 14.5599 25.4894 13.7011L26.8052 12.3854C27.7847 15.7443 26.9506 19.5201 24.302 22.1687C21.2606 25.2101 16.733 25.8588 13.0569 24.1161L11.6822 17.4045C11.4385 16.2147 9.96934 15.7735 9.11056 16.6323L7.79482 17.948C6.81526 14.5891 7.64936 10.8134 10.298 8.16474C13.3394 5.12334 17.867 4.47461 21.5431 6.21735L22.9178 12.929Z"
            fill="url(#paint0_linear_65_3779)" />
        <path
            d="M12.1531 4.63381C11.0184 5.18804 9.95532 5.93656 9.01251 6.87931C6.17005 9.72177 5.09289 13.6609 5.78101 17.3343C5.95672 18.2725 7.11959 18.6231 7.79449 17.9482C6.81475 14.5895 7.64937 10.8133 10.2979 8.16474C11.127 7.3357 12.0665 6.68456 13.0691 6.21085C15.7444 4.94745 18.869 4.94883 21.5428 6.21649L21.3645 5.34627C21.2816 4.94227 21.3649 4.55657 21.5573 4.24437C18.5245 3.06327 15.0998 3.19343 12.1531 4.63381ZM26.8054 12.3852C27.7851 15.7439 26.9505 19.5201 24.3019 22.1687C23.9934 22.4772 23.669 22.7614 23.332 23.0206C20.3501 25.3172 16.36 25.6823 13.057 24.117L13.2354 24.9872C13.3182 25.3912 13.2349 25.7769 13.0425 26.0891C16.6559 27.4958 20.8263 27.0422 24.0801 24.7284C24.609 24.3529 25.1136 23.9279 25.5874 23.4541C28.4299 20.6117 29.507 16.6726 28.8189 12.9991C28.6431 12.0609 27.4803 11.7103 26.8054 12.3852Z"
            fill="url(#paint1_linear_65_3779)" />
        <path
            d="M24.7097 26.165L22.2752 23.7305C19.4489 25.3749 15.9834 25.5034 13.057 24.1162L13.2353 24.9872C13.4549 26.0586 12.5074 27.0061 11.4359 26.7866L10.6074 26.617C14.9711 29.1713 20.4813 29.0203 24.7097 26.165Z"
            fill="url(#paint2_linear_65_3779)" />
        <path
            d="M27.6726 23.4283H22.7622C20.911 24.655 18.7383 25.1932 16.6047 25.0438L15.0261 26.6224L16.821 28.4173C20.3724 28.545 23.9651 27.2539 26.6761 24.5429C27.0331 24.186 27.3649 23.8136 27.6726 23.4283Z"
            fill="url(#paint3_linear_65_3779)" />
        <path
            d="M11.3777 3.29943L13.9315 5.85327C16.4001 4.96234 19.1515 5.08364 21.543 6.21729L21.3646 5.34626C21.1451 4.27479 22.0925 3.32733 23.164 3.54687L23.9926 3.71654C20.1249 1.45241 15.3562 1.31339 11.3777 3.29943Z"
            fill="url(#paint4_linear_65_3779)" />
        <path
            d="M21.5429 6.21648L21.3711 5.37818L20.1052 4.1123V5.66904C20.5949 5.81318 21.0759 5.99504 21.5429 6.21648Z"
            fill="url(#paint5_linear_65_3779)" />
        <path
            d="M22.7513 15.1667H20.8027C20.2616 15.1667 19.8375 14.7017 19.8873 14.1629L20.6627 5.76102C20.8649 3.57063 18.0041 2.56605 16.7924 4.40197L10.878 13.3633C10.3677 14.1364 10.9222 15.1667 11.8486 15.1667H13.7971C14.3382 15.1667 14.7623 15.6317 14.7125 16.1706L13.9371 24.5724C13.7349 26.7628 16.5957 27.7674 17.8074 25.9315L23.7218 16.9702C24.2321 16.197 23.6776 15.1667 22.7513 15.1667Z"
            fill="url(#paint6_linear_65_3779)" />
        <path
            d="M22.7513 15.1667H20.8027C20.2616 15.1667 19.8375 14.7017 19.8873 14.1629L20.6627 5.76102C20.754 4.77179 20.2205 4.02454 19.4964 3.67145L16.4347 10.6128C15.7934 12.0666 16.1113 13.7649 17.2348 14.8885C18.3269 15.9806 18.6606 17.6196 18.0824 19.0517L15.0261 26.6223C15.9135 27.0989 17.1232 26.968 17.8074 25.9314L23.7218 16.9701C24.2321 16.197 23.6776 15.1667 22.7513 15.1667Z"
            fill="url(#paint7_linear_65_3779)" />
        <path
            d="M14.554 17.8875L13.9371 24.5724C13.7349 26.7628 16.5957 27.7674 17.8073 25.9314L23.1163 17.8875H14.554V17.8875Z"
            fill="url(#paint8_linear_65_3779)" />
    </g>
    <defs>
        <linearGradient id="paint0_linear_65_3779" x1="3.91093" y1="15.1667" x2="38.5584"
            y2="15.1667" gradientUnits="userSpaceOnUse">
            <stop stop-color="#BBEC6C" />
            <stop offset="0.2905" stop-color="#ABDC59" />
            <stop offset="0.8729" stop-color="#82B22A" />
            <stop offset="1" stop-color="#78A91F" />
        </linearGradient>
        <linearGradient id="paint1_linear_65_3779" x1="31.4315" y1="15.1666" x2="-0.710826"
            y2="15.1666" gradientUnits="userSpaceOnUse">
            <stop stop-color="#BBEC6C" />
            <stop offset="0.2905" stop-color="#ABDC59" />
            <stop offset="0.8729" stop-color="#82B22A" />
            <stop offset="1" stop-color="#78A91F" />
        </linearGradient>
        <linearGradient id="paint2_linear_65_3779" x1="17.4949" y1="25.6899" x2="11.8082"
            y2="24.0752" gradientUnits="userSpaceOnUse">
            <stop stop-color="#026841" stop-opacity="0" />
            <stop offset="0.238" stop-color="#076743" stop-opacity="0.238" />
            <stop offset="0.5198" stop-color="#156349" stop-opacity="0.52" />
            <stop offset="0.8225" stop-color="#2D5D52" stop-opacity="0.823" />
            <stop offset="1" stop-color="#3E5959" />
        </linearGradient>
        <linearGradient id="paint3_linear_65_3779" x1="21.7652" y1="25.7038" x2="17.1256"
            y2="23.5949" gradientUnits="userSpaceOnUse">
            <stop stop-color="#026841" stop-opacity="0" />
            <stop offset="0.238" stop-color="#076743" stop-opacity="0.238" />
            <stop offset="0.5198" stop-color="#156349" stop-opacity="0.52" />
            <stop offset="0.8225" stop-color="#2D5D52" stop-opacity="0.823" />
            <stop offset="1" stop-color="#3E5959" />
        </linearGradient>
        <linearGradient id="paint4_linear_65_3779" x1="18.0235" y1="4.32198" x2="22.0799"
            y2="5.63246" gradientUnits="userSpaceOnUse">
            <stop stop-color="#026841" stop-opacity="0" />
            <stop offset="0.238" stop-color="#076743" stop-opacity="0.238" />
            <stop offset="0.5198" stop-color="#156349" stop-opacity="0.52" />
            <stop offset="0.8225" stop-color="#2D5D52" stop-opacity="0.823" />
            <stop offset="1" stop-color="#3E5959" />
        </linearGradient>
        <linearGradient id="paint5_linear_65_3779" x1="22.4044" y1="5.97831" x2="20.0031"
            y2="4.84236" gradientUnits="userSpaceOnUse">
            <stop stop-color="#026841" stop-opacity="0" />
            <stop offset="0.238" stop-color="#076743" stop-opacity="0.238" />
            <stop offset="0.5198" stop-color="#156349" stop-opacity="0.52" />
            <stop offset="0.8225" stop-color="#2D5D52" stop-opacity="0.823" />
            <stop offset="1" stop-color="#3E5959" />
        </linearGradient>
        <linearGradient id="paint6_linear_65_3779" x1="14.0324" y1="11.8992" x2="18.1889"
            y2="16.0557" gradientUnits="userSpaceOnUse">
            <stop stop-color="#FFDD00" />
            <stop offset="1" stop-color="#FFB000" />
        </linearGradient>
        <linearGradient id="paint7_linear_65_3779" x1="22.4139" y1="15.2792" x2="13.2415"
            y2="15.2792" gradientUnits="userSpaceOnUse">
            <stop stop-color="#FFDD00" />
            <stop offset="1" stop-color="#FFB000" />
        </linearGradient>
        <linearGradient id="paint8_linear_65_3779" x1="18.5216" y1="19.7044" x2="18.5216"
            y2="27.386" gradientUnits="userSpaceOnUse">
            <stop stop-color="#FEA613" stop-opacity="0" />
            <stop offset="1" stop-color="#E94444" />
        </linearGradient>
        <clipPath id="clip0_65_3779">
            <rect width="34" height="31" fill="white" />
        </clipPath>
    </defs>
</svg>