<svg width="28" height="26" viewBox="0 0 28 26" fill="none" xmlns="http://www.w3.org/2000/svg">
<rect width="28" height="26" fill="white"/>
<path d="M8.6875 13C8.6875 12.0091 8.96051 11.0809 9.4348 10.2861V6.91467H6.0634C4.72531 8.65249 4 10.7704 4 13C4 15.2296 4.72531 17.3476 6.0634 19.0854H9.4348V15.714C8.96051 14.9192 8.6875 13.9909 8.6875 13Z" fill="#FBBD00"/>
<path d="M14 18.3126L11.6562 20.6563L14 23.0001C16.2296 23.0001 18.3475 22.2747 20.0854 20.9367V17.5688H16.7175C15.9158 18.0449 14.9836 18.3126 14 18.3126Z" fill="#0F9D58"/>
<path d="M9.43482 15.714L6.06342 19.0854C6.32834 19.4295 6.61681 19.759 6.92896 20.0711C8.81771 21.9598 11.3289 23 14 23V18.3125C12.0616 18.3125 10.3626 17.2688 9.43482 15.714Z" fill="#31AA52"/>
<path d="M24 13C24 12.3916 23.9449 11.7821 23.8363 11.1884L23.7483 10.708H14V15.3955H18.7442C18.2835 16.312 17.5752 17.0596 16.7175 17.5689L20.0853 20.9367C20.4294 20.6718 20.7589 20.3833 21.0711 20.0711C22.9598 18.1823 24 15.6711 24 13Z" fill="#3C79E6"/>
<path d="M17.7565 9.24348L18.1708 9.65777L21.4854 6.34324L21.0711 5.92895C19.1823 4.0402 16.6711 3 14 3L11.6562 5.34375L14 7.6875C15.419 7.6875 16.7531 8.24008 17.7565 9.24348Z" fill="#CF2D48"/>
<path d="M14 7.6875V3C11.3289 3 8.81769 4.0402 6.9289 5.92891C6.61675 6.24105 6.32828 6.57055 6.06335 6.91465L9.43476 10.2861C10.3626 8.73125 12.0616 7.6875 14 7.6875Z" fill="#EB4132"/>
</svg>
