<svg width="14" height="14" viewBox="0 0 14 14" fill="none" xmlns="http://www.w3.org/2000/svg">
    <g clip-path="url(#clip0_368_1232)">
        <g filter="url(#filter0_d_368_1232)">
            <path
                d="M9.45784 12.2597L9.27487 13.0259C8.72595 13.2479 8.28748 13.4168 7.96097 13.5329C7.63411 13.6494 7.25431 13.7074 6.82159 13.7074C6.15707 13.7074 5.64019 13.5406 5.27155 13.2094C4.9029 12.8769 4.71852 12.4555 4.71852 11.9443C4.71852 11.7464 4.7319 11.5428 4.75972 11.3354C4.78777 11.1278 4.83237 10.8939 4.8934 10.6326L5.5794 8.1453C5.64043 7.90713 5.6923 7.68146 5.73385 7.46806C5.77598 7.25598 5.79629 7.06085 5.79629 6.88519C5.79629 6.56755 5.73209 6.34537 5.60428 6.22046C5.47647 6.0959 5.23258 6.03266 4.87051 6.03266C4.69317 6.03266 4.5109 6.06176 4.32512 6.11802C4.13851 6.17453 3.97901 6.22911 3.84509 6.27985L4.02853 5.51304C4.47792 5.3256 4.90748 5.1651 5.31838 5.03189C5.72927 4.89831 6.11751 4.83147 6.48475 4.83147C7.14469 4.83147 7.65394 4.99486 8.01155 5.32163C8.36916 5.64865 8.54791 6.07258 8.54791 6.59496C8.54791 6.70305 8.53617 6.89349 8.51094 7.16569C8.48629 7.43848 8.4404 7.68843 8.3735 7.91578L7.69044 10.3931C7.63446 10.5921 7.58411 10.8195 7.54033 11.0755C7.49515 11.3298 7.47355 11.5241 7.47355 11.6544C7.47355 11.9833 7.54514 12.2079 7.68868 12.3273C7.83327 12.4467 8.08232 12.5061 8.43606 12.5061C8.60213 12.5061 8.79109 12.4759 9.00106 12.4166C9.21043 12.3574 9.36313 12.3053 9.45784 12.2597ZM9.63107 1.85932C9.63107 2.29094 9.47228 2.65956 9.15316 2.96265C8.83487 3.26682 8.45132 3.41903 8.00263 3.41903C7.55254 3.41903 7.16805 3.26682 6.84612 2.96265C6.52477 2.65944 6.36375 2.29094 6.36375 1.85932C6.36375 1.42855 6.52477 1.05933 6.84612 0.752385C7.16746 0.445925 7.55265 0.292755 8.00263 0.292755C8.4512 0.292755 8.83487 0.446286 9.15316 0.752385C9.47251 1.05933 9.63107 1.42867 9.63107 1.85932Z"
                fill="white" />
        </g>
    </g>
    <defs>
        <filter id="filter0_d_368_1232" x="3.84509" y="0.292755" width="6.664" height="14.2927"
            filterUnits="userSpaceOnUse" color-interpolation-filters="sRGB">
            <feFlood flood-opacity="0" result="BackgroundImageFix" />
            <feColorMatrix in="SourceAlpha" type="matrix"
                values="0 0 0 0 0 0 0 0 0 0 0 0 0 0 0 0 0 0 127 0" result="hardAlpha" />
            <feOffset dx="0.878049" dy="0.878049" />
            <feComposite in2="hardAlpha" operator="out" />
            <feColorMatrix type="matrix" values="0 0 0 0 0 0 0 0 0 0 0 0 0 0 0 0 0 0 0.36 0" />
            <feBlend mode="normal" in2="BackgroundImageFix" result="effect1_dropShadow_368_1232" />
            <feBlend mode="normal" in="SourceGraphic" in2="effect1_dropShadow_368_1232"
                result="shape" />
        </filter>
        <clipPath id="clip0_368_1232">
            <rect width="13.0952" height="13.4146" fill="white"
                transform="translate(0.190491 0.292786)" />
        </clipPath>
    </defs>
</svg>