<svg width="35" height="31" viewBox="0 0 35 31" fill="none" xmlns="http://www.w3.org/2000/svg">
    <g filter="url(#filter0_d_65_3913)">
        <path
            d="M10.0699 2C12.1999 2 14.2199 2.82 15.7399 4.31C16.0199 4.58 16.2699 4.87 16.4999 5.17C16.7299 4.87 16.9799 4.58 17.2599 4.31C18.7799 2.82 20.7999 2 22.9299 2C23.0599 2 23.1999 2 23.3299 2C25.6099 2.11 27.6599 3.17 29.0999 4.99C30.6599 6.95 31.2999 9.52 30.8499 12.03C30.2699 15.27 28.2499 18.38 24.8399 21.27C22.2199 23.5 19.4399 25.02 18.0099 25.74C17.5399 25.98 17.0099 26.1 16.4899 26.1C15.9699 26.1 15.4399 25.98 14.9699 25.74C13.5499 25.03 10.7699 23.5 8.13995 21.27C4.72995 18.37 2.70995 15.26 2.12995 12.03C1.67995 9.52 2.31995 6.95 3.87995 4.99C5.32995 3.17 7.37995 2.11 9.64995 2C9.77995 2 9.91995 2 10.0499 2M10.0699 0C9.89995 0 9.73995 0 9.56995 0.01C6.70995 0.15 4.13995 1.48 2.32995 3.75C0.409949 6.16 -0.380051 9.31 0.169949 12.39C0.829949 16.1 3.07995 19.6 6.84995 22.81C9.62995 25.17 12.5699 26.79 14.0799 27.54C14.8299 27.91 15.6599 28.11 16.4999 28.11C17.3399 28.11 18.1699 27.91 18.9199 27.54C20.4199 26.79 23.3599 25.17 26.1499 22.81C29.9299 19.6 32.17 16.1 32.83 12.39C33.38 9.31 32.5899 6.16 30.6699 3.75C28.8599 1.48 26.2899 0.15 23.4299 0.01C23.2599 0.01 23.0999 0 22.9299 0C20.5599 0 18.3099 0.81 16.4999 2.31C14.6899 0.82 12.4399 0 10.0699 0Z"
            fill="white" />
        <path
            d="M16.5 26.1076C15.9737 26.1076 15.4465 25.983 14.9754 25.7473C13.5518 25.0348 10.7719 23.5072 8.14959 21.2802C4.73827 18.3832 2.71628 15.2736 2.13981 12.0378C1.69201 9.52419 2.33132 6.95814 3.89386 4.99762C5.34096 3.18199 7.39155 2.12093 9.66794 2.00999C9.80179 2.00345 9.93741 2.00015 10.0709 2.00015C12.2037 2.00015 14.217 2.82211 15.7402 4.31453C16.0153 4.58411 16.2689 4.87014 16.5 5.17043C16.7311 4.87019 16.9847 4.58406 17.2598 4.31447C18.7828 2.82211 20.7963 2.00021 22.9291 2.00021C23.0626 2.00021 23.1982 2.00351 23.3321 2.01005C25.6085 2.12099 27.6591 3.18205 29.1062 4.99779C30.6688 6.95831 31.308 9.5243 30.8602 12.0379C30.2837 15.2737 28.2618 18.3833 24.8504 21.2803C22.2281 23.5072 19.4483 25.0349 18.0246 25.7473C17.5536 25.983 17.0263 26.1076 16.5 26.1076Z"
            fill="url(#paint0_linear_65_3913)" />
        <path
            d="M8.31176 8.8793C9.19109 8.8793 9.90392 8.16646 9.90392 7.28714C9.90392 6.40781 9.19109 5.69498 8.31176 5.69498C7.43244 5.69498 6.7196 6.40781 6.7196 7.28714C6.7196 8.16646 7.43244 8.8793 8.31176 8.8793Z"
            fill="#A2E62E" />
        <path
            d="M25.7682 9.05398L24.3629 7.64867C23.5734 6.85913 23.5734 5.57904 24.3629 4.78944C25.092 4.06034 25.1345 2.94077 24.5713 2.16823C24.1675 2.08373 23.7537 2.0304 23.3321 2.00987C23.1983 2.00333 23.0626 2.00003 22.9291 2.00003C20.7963 2.00003 18.7829 2.82193 17.2598 4.31429C16.9847 4.58388 16.7311 4.87001 16.4999 5.17025C16.2689 4.87001 16.0152 4.58399 15.7401 4.31435C14.217 2.82193 12.2036 2.00003 10.0709 2.00003C9.93738 2.00003 9.80176 2.00333 9.66791 2.00987C9.66245 2.01015 9.65699 2.01038 9.65153 2.01066C8.68992 2.05951 7.7717 2.43509 7.04221 3.06342C6.97039 3.12529 6.8992 3.18778 6.82863 3.25101C6.66117 3.40102 6.55825 3.6126 6.55762 3.83738C6.55557 4.52815 7.39015 4.87473 7.87803 4.38685C8.82099 3.44389 10.3499 3.44389 11.2928 4.38685C12.5478 5.64187 14.25 6.34691 16.0248 6.34691H17.5174C18.8128 6.34691 19.8628 7.397 19.8628 8.69239V8.82966C19.8628 9.45174 19.6157 10.0483 19.1759 10.4882C18.2599 11.4041 18.2599 12.8892 19.1759 13.8052C20.4738 15.1031 22.5782 15.1031 23.8761 13.8052L25.7682 11.9131C26.5578 11.1236 26.5578 9.84352 25.7682 9.05398Z"
            fill="#A2E62E" />
        <path
            d="M18.613 22.0699L17.3304 20.7873C16.1668 19.6237 14.5886 18.97 12.9429 18.97C11.641 18.97 10.9889 17.3958 11.9095 16.4752C12.5572 15.8275 12.5572 14.7774 11.9095 14.1297C11.2619 13.4821 10.2117 13.4821 9.56406 14.1297L9.03814 14.6557C8.51602 15.1778 7.66956 15.1778 7.14745 14.6557C6.44212 13.9503 6.04584 12.9936 6.04584 11.9961C6.04584 10.9253 5.17772 10.0572 4.10688 10.0572C3.1613 10.0572 2.34924 10.7384 2.19486 11.6714C2.17473 11.793 2.15671 11.9152 2.13965 12.0377V12.0378C2.71618 15.2736 4.73817 18.3832 8.14948 21.2802C10.7718 23.5072 13.5517 25.0349 14.9753 25.7473C15.4464 25.983 15.9736 26.1076 16.4999 26.1076C17.0262 26.1076 17.5534 25.983 18.0245 25.7473C18.3339 25.5924 18.7075 25.399 19.1295 25.1683C19.623 24.1598 19.4513 22.9082 18.613 22.0699Z"
            fill="#A2E62E" />
        <path
            d="M25.0433 19.8878C24.6667 20.2644 24.7014 20.8113 24.9924 21.1578C26.2981 20.0339 27.3958 18.8783 28.2814 17.6959C28.1425 17.0033 27.8741 16.3396 27.4855 15.7418L27.4454 15.6801C26.7908 14.6729 25.3747 14.5244 24.5253 15.3738C23.7875 16.1116 23.7875 17.308 24.5253 18.0458L25.0434 18.5639C25.4089 18.9294 25.4089 19.5222 25.0433 19.8878Z"
            fill="#A2E62E" />
    </g>
    <defs>

        <linearGradient id="paint0_linear_65_3913" x1="9.56519" y1="4.10044" x2="26.4578"
            y2="20.9931" gradientUnits="userSpaceOnUse">
            <stop stop-color="#A0D4FF" />
            <stop offset="1" stop-color="#0593FC" />
        </linearGradient>
    </defs>
</svg>