<svg width="17" height="18" viewBox="0 0 17 18" fill="none" xmlns="http://www.w3.org/2000/svg">
<g clip-path="url(#clip0_373_1887)">
<path fill-rule="evenodd" clip-rule="evenodd" d="M7.64552 2.21799L15.1291 2.21799V3.62117L11.972 6.77829C11.9718 7.11948 12.1072 7.44674 12.3485 7.688C12.5897 7.92926 12.917 8.06472 13.2582 8.06451H15.1291V8.06453V8.53225L15.1291 8.53227V9.46769L13.7259 10.8709L9.04869 15.7819H9.04868H8.58097H1.56512V14.6126V14.3788L4.60531 11.3386V10.9878C4.60549 10.6466 4.47004 10.3193 4.2288 10.0781C3.98754 9.83683 3.66028 9.70138 3.31909 9.70159H1.56512V8.76609V8.29841V8.29838L7.64552 2.21799Z" fill="#6B6B6B"/>
<path fill-rule="evenodd" clip-rule="evenodd" d="M15.1291 1.17459C15.7053 1.17459 16.1725 1.64173 16.1725 2.21798V3.62116C16.1725 3.89788 16.0625 4.16327 15.8669 4.35894L13.2095 7.01632C13.2252 7.01949 13.2412 7.02112 13.2575 7.02111H15.1291C15.7053 7.02111 16.1725 7.48825 16.1725 8.06449V8.53224C16.1725 8.53444 16.1725 8.53664 16.1724 8.53885V9.46768C16.1724 9.7444 16.0625 10.0098 15.8668 10.2055L14.4727 11.5996L9.80422 16.5015C9.60729 16.7083 9.33422 16.8253 9.04867 16.8253H1.56511C0.988866 16.8253 0.521729 16.3582 0.521729 15.7819V14.3788C0.521729 14.102 0.631657 13.8366 0.827331 13.641L3.5515 10.9168C3.54004 10.879 3.51941 10.8443 3.491 10.8159L4.22879 10.0781C4.47002 10.3193 4.60548 10.6466 4.60529 10.9878V11.3386L1.56511 14.3788V15.7819H9.04865L13.7259 10.8709L15.1291 9.46768V8.53226L15.1291 8.06452L13.2582 8.06449C12.917 8.0647 12.5897 7.92925 12.3484 7.68799C12.1072 7.44672 11.9718 7.11947 11.9719 6.77827L15.1291 3.62116V2.21798L7.6455 2.21797L1.56511 8.29836V9.70158H3.31907C3.66026 9.70136 3.98752 9.83682 4.22879 10.0781L3.491 10.8159C3.44554 10.7704 3.38392 10.7449 3.31972 10.745H1.56511C0.988866 10.745 0.521729 10.2778 0.521729 9.70158V8.29839C0.521729 8.02167 0.631656 7.75625 0.827328 7.56058L6.90772 1.48019C7.10339 1.28452 7.36878 1.17459 7.6455 1.17459L15.1291 1.17459Z" fill="white"/>
<path d="M15.1291 8.06453V8.53225L9.04868 14.8465H5.30688V9.23384H9.04871L12.0889 6.19363L11.9719 6.77829C11.9717 7.11948 12.1072 7.44674 12.3484 7.688C12.5897 7.92926 12.917 8.06472 13.2581 8.06451H15.1291V8.06453Z" fill="#414141"/>
<path d="M15.129 8.06454V9.4677L13.7259 10.8709L9.04865 15.782H8.58093V14.3788H9.04865L13.7259 9.4677L15.129 8.06454Z" fill="#535353"/>
<path d="M15.1291 2.21799V2.91958L9.0487 8.76609H1.56512V8.29838L7.64551 2.21799H15.1291Z" fill="#A2A2A2"/>
<path d="M4.60533 11.3386H4.83918V14.6127H1.56512V14.3788L4.60533 11.3386Z" fill="#414141"/>
<path d="M15.129 2.21799V3.62117L9.04863 9.70156H8.81476V8.29838H9.04863L15.129 2.21799Z" fill="#535353"/>
<path d="M6.00849 10.9878V13.0925C6.0083 13.4337 6.14376 13.761 6.38499 14.0022C6.62626 14.2435 6.95351 14.3789 7.29471 14.3787H9.04867V15.7819H1.56512V14.3788H3.31909C3.66028 14.3789 3.98754 14.2435 4.2288 14.0023C4.47006 13.761 4.60552 13.4337 4.60531 13.0925V10.9878C4.60549 10.6466 4.47004 10.3193 4.2288 10.0781C3.98754 9.83682 3.66028 9.70137 3.31909 9.70158H1.56512V8.2984H9.0487V9.70158H7.29473C6.95354 9.7014 6.62626 9.83685 6.38502 10.0781C6.14376 10.3193 6.0083 10.6466 6.00849 10.9878Z" fill="#6B6B6B"/>
<path fill-rule="evenodd" clip-rule="evenodd" d="M11.4551 8.70766C11.4989 8.7523 11.5587 8.77757 11.6212 8.77778C11.6837 8.77757 11.7435 8.7523 11.7872 8.70768C11.8315 8.66484 11.856 8.60556 11.855 8.54393C11.8545 8.48192 11.8302 8.42249 11.7872 8.37788C11.7203 8.31041 11.6192 8.29014 11.5315 8.32657C11.4437 8.36299 11.3867 8.44891 11.3873 8.54391C11.3862 8.60553 11.4108 8.66484 11.4551 8.70766ZM10.6857 9.75727C10.5921 9.7573 10.5075 9.7015 10.4707 9.61543C10.4339 9.52938 10.4519 9.42964 10.5165 9.36193L10.7504 9.11687C10.8396 9.02341 10.9876 9.01994 11.0811 9.10911C11.1745 9.19829 11.178 9.34635 11.0888 9.43981L10.855 9.68487C10.8109 9.7312 10.7497 9.75737 10.6857 9.75727ZM9.53528 10.5954C9.5721 10.6815 9.65672 10.7373 9.75031 10.7373C9.81424 10.7373 9.87544 10.7112 9.91954 10.6649L10.1534 10.4198C10.2426 10.3263 10.2391 10.1783 10.1457 10.0891C10.0522 9.99993 9.90413 10.0034 9.81495 10.0969L9.58108 10.3419C9.51647 10.4096 9.49843 10.5094 9.53528 10.5954ZM8.81489 11.7172C8.72129 11.7173 8.63667 11.6615 8.59985 11.5754C8.563 11.4894 8.58104 11.3896 8.64565 11.3219L8.87953 11.0769C8.9687 10.9834 9.11676 10.9799 9.21023 11.0691C9.30369 11.1583 9.30716 11.3063 9.21799 11.3998L8.98412 11.6448C8.94003 11.6912 8.87884 11.7173 8.81489 11.7172ZM7.66437 12.5554C7.7012 12.6414 7.78581 12.6972 7.87941 12.6972C7.94336 12.6973 8.00453 12.6711 8.04864 12.6248L8.28251 12.3797C8.34019 12.3193 8.36125 12.2326 8.33772 12.1524C8.3142 12.0722 8.24969 12.0107 8.16849 11.991C8.08729 11.9713 8.00172 11.9963 7.94405 12.0568L7.71018 12.3019C7.64556 12.3696 7.62752 12.4693 7.66437 12.5554ZM7.01174 13.3638C7.05572 13.4078 7.11556 13.4322 7.17777 13.4316C7.23997 13.4322 7.29981 13.4078 7.34384 13.3638C7.38782 13.3198 7.41227 13.26 7.41166 13.1977C7.41166 13.0686 7.30694 12.9639 7.17779 12.9639C7.04862 12.9639 6.94392 13.0686 6.94392 13.1977C6.94331 13.26 6.96776 13.3198 7.01174 13.3638Z" fill="#282828"/>
</g>
<defs>
<clipPath id="clip0_373_1887">
<rect width="16.1724" height="16.1724" fill="white" transform="translate(0 0.913788)"/>
</clipPath>
</defs>
</svg>
