<svg width="31" height="32" viewBox="0 0 31 32" fill="none" xmlns="http://www.w3.org/2000/svg">
    <g clip-path="url(#clip0_65_3750)">
        <path fill-rule="evenodd" clip-rule="evenodd"
            d="M14.6552 3.00006L29 3.00007V5.68975L22.9483 11.7414C22.9479 12.3955 23.2076 13.0228 23.67 13.4852C24.1324 13.9477 24.7598 14.2073 25.4138 14.2069H29V14.207V15.1035L29 15.1036V16.8966L26.3103 19.5863L17.3448 29.0001H17.3448H16.4483H3V26.7587V26.3104L8.82756 20.4829V19.8104C8.82792 19.1564 8.56827 18.5291 8.10586 18.0667C7.64339 17.6042 7.01609 17.3446 6.36208 17.345H3V15.5518V14.6553V14.6552L14.6552 3.00006Z"
            fill="#6B6B6B" />
        <path fill-rule="evenodd" clip-rule="evenodd"
            d="M29 1.00007C30.1046 1.00007 31 1.8955 31 3.00007V5.68975C31 6.22018 30.7893 6.72889 30.4142 7.10397L25.3204 12.1978C25.3505 12.2038 25.3813 12.2069 25.4125 12.2069H29C30.1046 12.2069 31 13.1024 31 14.2069V15.1035C31 15.1077 31 15.112 31 15.1162V16.8966C31 17.427 30.7893 17.9358 30.4142 18.3108L27.7418 20.9832L18.7931 30.3794C18.4156 30.7757 17.8922 31.0001 17.3448 31.0001H3C1.89543 31.0001 1 30.1046 1 29.0001V26.3104C1 25.78 1.21072 25.2712 1.58579 24.8962L6.80759 19.6744C6.78563 19.602 6.74609 19.5353 6.69164 19.4809L8.10585 18.0667C8.56826 18.5291 8.82791 19.1564 8.82755 19.8104V20.4829L3 26.3104V29.0001H17.3448L26.3103 19.5863L29 16.8966V15.1036L29 14.207L25.4137 14.2069C24.7597 14.2073 24.1324 13.9477 23.67 13.4852C23.2076 13.0228 22.9479 12.3955 22.9483 11.7414L29 5.68975V3.00007L14.6552 3.00006L3 14.6552V17.345H6.36207C7.01609 17.3446 7.64339 17.6042 8.10585 18.0667L6.69164 19.4809C6.60449 19.3937 6.48638 19.3449 6.36332 19.345H3C1.89543 19.345 1 18.4495 1 17.345V14.6553C1 14.1248 1.21071 13.6161 1.58579 13.241L13.2409 1.58585C13.616 1.21077 14.1247 1.00006 14.6552 1.00006L29 1.00007Z"
            fill="#3E3631" />
        <path
            d="M29 14.207V15.1035L17.3448 27.207H10.1724V16.4484H17.3449L23.1724 10.6208L22.9482 11.7414C22.9479 12.3955 23.2075 13.0228 23.6699 13.4852C24.1323 13.9477 24.7597 14.2073 25.4137 14.2069H29V14.207Z"
            fill="#414141" />
        <path
            d="M28.9999 14.207V16.8966L26.3103 19.5863L17.3448 29.0001H16.4482V26.3104H17.3448L26.3103 16.8966L28.9999 14.207Z"
            fill="#535353" />
        <path d="M29 3.00006V4.3449L17.3448 15.5518H3V14.6552L14.6552 3.00006H29Z" fill="#A2A2A2" />
        <path d="M8.82761 20.4828H9.27585V26.7587H3V26.3104L8.82761 20.4828Z" fill="#414141" />
        <path d="M28.9999 3.00006V5.68974L17.3448 17.3449H16.8965V14.6552H17.3448L28.9999 3.00006Z"
            fill="#535353" />
        <path
            d="M11.5172 19.8104V23.8449C11.5169 24.4989 11.7765 25.1262 12.2389 25.5886C12.7014 26.0511 13.3287 26.3107 13.9827 26.3103H17.3448V29.0001H3V26.3104H6.36207C7.01609 26.3107 7.64339 26.0511 8.10585 25.5887C8.56832 25.1263 8.82796 24.4989 8.82755 23.8449V19.8104C8.82791 19.1564 8.56826 18.5291 8.10585 18.0667C7.64339 17.6042 7.01609 17.3445 6.36207 17.345H3V14.6553H17.3448V17.345H13.9828C13.3288 17.3446 12.7014 17.6042 12.239 18.0667C11.7765 18.5291 11.5169 19.1564 11.5172 19.8104Z"
            fill="#6B6B6B" />
        <path fill-rule="evenodd" clip-rule="evenodd"
            d="M21.9576 15.4397C22.0415 15.5253 22.1561 15.5737 22.2759 15.5741C22.3957 15.5737 22.5104 15.5253 22.5942 15.4397C22.6791 15.3576 22.7261 15.244 22.7242 15.1259C22.7232 15.007 22.6767 14.8931 22.5942 14.8076C22.4659 14.6782 22.2722 14.6394 22.104 14.7092C21.9358 14.779 21.8265 14.9437 21.8276 15.1258C21.8255 15.2439 21.8726 15.3576 21.9576 15.4397ZM20.4828 17.4517C20.3034 17.4517 20.1412 17.3448 20.0706 17.1798C20 17.0149 20.0346 16.8237 20.1584 16.6939L20.6067 16.2242C20.7777 16.045 21.0615 16.0384 21.2406 16.2093C21.4198 16.3802 21.4264 16.664 21.2555 16.8432L20.8072 17.3129C20.7227 17.4017 20.6054 17.4519 20.4828 17.4517ZM18.2775 19.0583C18.3481 19.2233 18.5103 19.3302 18.6897 19.3302C18.8123 19.3303 18.9296 19.2802 19.0141 19.1914L19.4624 18.7217C19.6333 18.5425 19.6267 18.2587 19.4475 18.0878C19.2684 17.9169 18.9846 17.9235 18.8136 18.1027L18.3653 18.5724C18.2415 18.7022 18.2069 18.8934 18.2775 19.0583ZM16.8966 21.2086C16.7172 21.2087 16.555 21.1018 16.4844 20.9368C16.4138 20.7718 16.4484 20.5806 16.5722 20.4508L17.0205 19.9811C17.1915 19.802 17.4753 19.7953 17.6544 19.9662C17.8336 20.1372 17.8402 20.421 17.6693 20.6001L17.221 21.0699C17.1365 21.1586 17.0192 21.2088 16.8966 21.2086ZM14.6913 22.8152C14.7619 22.9802 14.9241 23.0871 15.1035 23.0871C15.2261 23.0873 15.3434 23.0371 15.4279 22.9483L15.8762 22.4786C15.9868 22.3627 16.0271 22.1966 15.982 22.0429C15.9369 21.8892 15.8133 21.7712 15.6576 21.7334C15.502 21.6956 15.338 21.7437 15.2274 21.8596L14.7791 22.3293C14.6553 22.4591 14.6207 22.6503 14.6913 22.8152ZM13.4403 24.3648C13.5246 24.449 13.6393 24.4959 13.7586 24.4948C13.8778 24.4959 13.9925 24.449 14.0769 24.3648C14.1612 24.2805 14.2081 24.1657 14.2069 24.0465C14.2069 23.7989 14.0062 23.5982 13.7586 23.5982C13.511 23.5982 13.3103 23.7989 13.3103 24.0465C13.3092 24.1657 13.356 24.2805 13.4403 24.3648Z"
            fill="#282828" />
    </g>
    <defs>
        <clipPath id="clip0_65_3750">
            <rect width="31" height="31" fill="white" transform="translate(0 0.500061)" />
        </clipPath>
    </defs>
</svg>