<svg width="22" height="22" viewBox="0 0 22 22" fill="none" xmlns="http://www.w3.org/2000/svg">
<path d="M19.5505 1.22022C19.3632 1.04917 19.1145 0.972216 18.8689 1.00901L6.891 2.81018C6.46948 2.87358 6.15642 3.25358 6.15642 3.70179V7.30417V14.2607C5.64966 13.95 5.06136 13.771 4.43377 13.771C2.54041 13.771 1 15.3925 1 17.3855C1 19.3785 2.54037 21 4.43373 21C6.32709 21 7.8675 19.3785 7.8675 17.3855V8.08526L18.1343 6.5414V12.4595C17.6275 12.1487 17.0392 11.9698 16.4116 11.9698C14.5183 11.9698 12.9779 13.5913 12.9779 15.5843C12.9779 17.5773 14.5183 19.1988 16.4116 19.1988C18.305 19.1988 19.8454 17.5773 19.8454 15.5843V5.50296V1.90057C19.8454 1.63948 19.7378 1.39128 19.5505 1.22022Z" fill="#002060"/>
<path fill-rule="evenodd" clip-rule="evenodd" d="M18.7207 0.0200961C19.2709 -0.0623499 19.8201 0.112266 20.2247 0.481744C20.6263 0.848399 20.8454 1.36774 20.8454 1.90062C20.8454 1.90057 20.8454 1.90066 20.8454 1.90062V15.5843C20.8454 18.0807 18.905 20.1988 16.4116 20.1988C13.9183 20.1988 11.9779 18.0807 11.9779 15.5843C11.9779 13.088 13.9183 10.9698 16.4116 10.9698C16.6578 10.9698 16.8992 10.9909 17.1343 11.0313V7.70305L8.8675 8.94617V17.3855C8.8675 19.8819 6.92709 22 4.43373 22C1.94036 22 0 19.8819 0 17.3855C0 14.8892 1.94041 12.771 4.43377 12.771C4.67995 12.771 4.92137 12.7922 5.15642 12.8326V3.70183C5.15642 2.7973 5.79425 1.96393 6.74227 1.82135L18.7207 0.0200961ZM6.15642 14.2608C5.84982 14.0727 5.51337 13.933 5.15642 13.8519C4.9234 13.799 4.68165 13.771 4.43377 13.771C2.54041 13.771 1 15.3925 1 17.3855C1 19.3785 2.54037 21 4.43373 21C6.32709 21 7.8675 19.3785 7.8675 17.3855V8.0853L18.1343 6.54144V12.4596C17.8277 12.2715 17.4912 12.1318 17.1343 12.0507C16.9013 11.9978 16.6595 11.9698 16.4116 11.9698C14.5183 11.9698 12.9779 13.5913 12.9779 15.5843C12.9779 17.5773 14.5183 19.1988 16.4116 19.1988C18.305 19.1988 19.8454 17.5773 19.8454 15.5843V1.90062C19.8454 1.63952 19.7378 1.39132 19.5505 1.22026C19.3632 1.04921 19.1145 0.972257 18.8689 1.00905L6.891 2.81023C6.46948 2.87362 6.15642 3.25362 6.15642 3.70183V14.2608Z" fill="#053CAB"/>
<path d="M18.985 17.5003L21.7693 14.716C22.0769 14.4084 22.0769 13.9096 21.7693 13.6025L21.3981 13.2313C21.0904 12.9236 20.5916 12.9236 20.2845 13.2313L17.5003 16.0155L14.716 13.2307C14.4084 12.9231 13.9096 12.9231 13.6025 13.2307L13.2307 13.6019C12.9231 13.9096 12.9231 14.4084 13.2307 14.7155L16.0155 17.5003L13.2313 20.2845C12.9236 20.5922 12.9236 21.0909 13.2313 21.3981L13.6025 21.7693C13.9101 22.0769 14.4089 22.0769 14.716 21.7693L17.5003 18.985L20.2845 21.7693C20.5922 22.0769 21.0909 22.0769 21.3981 21.7693L21.7693 21.3981C22.0769 21.0904 22.0769 20.5916 21.7693 20.2845L18.985 17.5003Z" fill="#FF0101"/>
</svg>
