<svg width="15" height="15" viewBox="0 0 15 15" fill="none" xmlns="http://www.w3.org/2000/svg">
    <g filter="url(#filter0_d_175_3)">
        <path
            d="M8.33797 5.47627L8.33797 1.04812C8.33797 0.558858 7.94136 0.162249 7.45248 0.162631L6.86215 0.162632C6.37274 0.162631 5.97613 0.559241 5.97659 1.0482L5.97659 5.47619L1.54806 5.47581C1.0588 5.47581 0.662188 5.87242 0.66257 6.3613L0.662112 6.95209C0.662188 7.44143 1.0588 7.83803 1.54768 7.83765L5.97659 7.83765L5.97659 12.2656C5.97659 12.7551 6.3732 13.1517 6.86216 13.1512L7.45248 13.1512C7.94175 13.1512 8.33836 12.7546 8.33797 12.2657L8.33797 7.83758L12.766 7.83765C13.2554 7.83758 13.652 7.44097 13.6516 6.95208L13.6516 6.36176C13.6515 5.87242 13.2549 5.47581 12.766 5.47619L8.33797 5.47627Z"
            fill="white" />
    </g>
    <defs>
        <filter id="filter0_d_175_3" x="0.662109" y="0.162628" width="13.9895" height="13.9886"
            filterUnits="userSpaceOnUse" color-interpolation-filters="sRGB">
            <feFlood flood-opacity="0" result="BackgroundImageFix" />
            <feColorMatrix in="SourceAlpha" type="matrix"
                values="0 0 0 0 0 0 0 0 0 0 0 0 0 0 0 0 0 0 127 0" result="hardAlpha" />
            <feOffset dx="1" dy="1" />
            <feComposite in2="hardAlpha" operator="out" />
            <feColorMatrix type="matrix" values="0 0 0 0 0 0 0 0 0 0 0 0 0 0 0 0 0 0 0.65 0" />
            <feBlend mode="normal" in2="BackgroundImageFix" result="effect1_dropShadow_175_3" />
            <feBlend mode="normal" in="SourceGraphic" in2="effect1_dropShadow_175_3" result="shape" />
        </filter>
    </defs>
</svg>