<svg width="39" height="32" viewBox="0 0 39 32" fill="none" xmlns="http://www.w3.org/2000/svg">
    <path fill-rule="evenodd" clip-rule="evenodd"
        d="M15.6673 21.8648L17.7335 26.6555C17.7933 26.7942 17.8327 26.9348 17.8536 27.0746C17.9995 28.0536 17.2347 28.9964 16.1661 28.9964L4.03078 28.9964C3.39917 28.9964 2.87365 28.667 2.57963 28.1954C2.44728 27.9832 2.36183 27.7421 2.33474 27.4893C2.31251 27.2819 2.32954 27.0667 2.39212 26.853C2.41148 26.787 2.43519 26.721 2.46345 26.6555L7.69966 14.5145C7.66241 14.4989 7.62534 14.4829 7.58847 14.4665C5.45021 13.5192 3.96091 11.3988 3.96091 8.9349C3.96091 5.58811 6.70877 2.875 10.0984 2.875C12.6274 2.875 14.7991 4.38521 15.7389 6.54206C16.0588 7.27612 16.236 8.08508 16.236 8.9349C16.236 9.54171 16.1456 10.1277 15.9775 10.6804C15.9104 10.9012 15.8308 11.1166 15.7397 11.326C15.3539 12.2121 14.7602 12.9892 14.0192 13.5973C13.5937 13.9465 13.1196 14.2401 12.6084 14.4665C12.5715 14.4829 12.5345 14.4988 12.4973 14.5145L14.8047 19.8646M15.4106 21.2696L14.8047 19.8646L12.9683 20.6568M19.716 28.3683C19.2667 29.8538 17.8896 30.9964 16.1661 30.9964L4.03078 30.9964C2.6701 30.9964 1.5208 30.2774 0.88249 29.2536C0.595436 28.7932 0.40637 28.2645 0.346127 27.7024C0.296536 27.2398 0.33509 26.7609 0.472753 26.2909C0.515117 26.1462 0.56655 26.0035 0.62697 25.8635C0.626958 25.8635 0.626981 25.8634 0.62697 25.8635L5.16394 15.3437C3.22347 13.8758 1.96091 11.5577 1.96091 8.9349C1.96091 4.45962 5.62828 0.875 10.0984 0.875C12.8706 0.875 15.334 2.25359 16.8055 4.36826C18.277 2.25359 20.7404 0.875 23.5126 0.875C27.9827 0.875 31.6501 4.45961 31.6501 8.9349C31.6501 9.61937 31.5636 10.2848 31.4008 10.9205C32.8344 12.0074 33.5148 13.9803 32.7099 15.8468L28.6162 25.3383L27.2248 28.5642C27.2248 28.5642 27.2248 28.5642 27.2248 28.5642C25.8262 31.8071 21.1991 31.8071 19.8005 28.5642L19.716 28.3683ZM25.3883 27.7721L27.9336 21.8704L30.8733 15.0548C31.2012 14.2945 31.048 13.4891 30.594 12.908C30.2053 12.4106 29.5963 12.0775 28.8799 12.0775L28.7614 12.0775C28.8021 12.0114 28.8415 11.9444 28.8797 11.8766C28.8796 11.8768 28.8798 11.8765 28.8797 11.8766C29.1828 11.3387 29.4055 10.75 29.5313 10.1273C29.6092 9.74175 29.6501 9.34304 29.6501 8.9349C29.6501 5.58811 26.9022 2.875 23.5126 2.875C20.9836 2.875 18.8119 4.38521 17.8721 6.54206C17.5522 7.27612 17.375 8.08508 17.375 8.9349C17.375 9.34306 17.4159 9.74179 17.4938 10.1273C17.5781 10.5442 17.7057 10.9457 17.8718 11.327C17.9538 11.5155 18.0453 11.699 18.1457 11.877C18.1838 11.9446 18.2232 12.0115 18.2638 12.0775L18.1457 12.0775C17.941 12.0775 17.7451 12.1047 17.5606 12.1551C17.0992 12.2813 16.709 12.5529 16.4314 12.9083C16.0893 13.3463 15.918 13.9116 15.9948 14.489C16.0199 14.6776 16.0715 14.8676 16.1522 15.0548L21.637 27.7721C22.3409 29.4044 24.6843 29.4044 25.3883 27.7721ZM15.4106 21.2696L15.6673 21.8648L15.4106 21.2696Z"
        fill="#875230" />
    <path
        d="M10.0984 8.95261L2.46346 26.6555C1.98494 27.7649 2.80955 28.9964 4.03078 28.9964L16.1661 28.9964C17.3874 28.9964 18.2119 27.765 17.7335 26.6555L10.0984 8.95261Z"
        fill="url(#paint0_linear_2009_15)" />
    <path
        d="M10.0984 8.95261L2.46346 26.6555C1.98494 27.7649 2.80955 28.9964 4.03078 28.9964L16.1661 28.9964C17.3874 28.9964 18.2119 27.765 17.7335 26.6555L10.0984 8.95261Z"
        fill="url(#paint1_linear_2009_15)" />
    <path d="M10.0985 8.95261L5.39233 19.8648L14.8047 19.8648L10.0985 8.95261Z"
        fill="url(#paint2_linear_2009_15)" />
    <path
        d="M10.0985 14.9948C13.4881 14.9948 16.236 12.2817 16.236 8.9349C16.236 5.58811 13.4881 2.875 10.0985 2.875C6.7088 2.875 3.96094 5.58811 3.96094 8.9349C3.96094 12.2817 6.7088 14.9948 10.0985 14.9948Z"
        fill="url(#paint3_linear_2009_15)" />
    <path
        d="M2.46346 26.6555C1.98494 27.7649 2.80955 28.9964 4.03078 28.9964L16.1661 28.9964C17.3874 28.9964 18.2119 27.765 17.7335 26.6555L15.4107 21.2696L4.78637 21.2696L2.46346 26.6555Z"
        fill="url(#paint4_linear_2009_15)" />
    <path
        d="M21.6371 27.7721L16.1523 15.0548C15.5438 13.6438 16.5924 12.0775 18.1458 12.0775L28.8798 12.0775C30.4331 12.0775 31.4818 13.6438 30.8732 15.0548L25.3884 27.7721C24.6844 29.4044 22.341 29.4044 21.6371 27.7721Z"
        fill="url(#paint5_linear_2009_15)" />
    <path
        d="M21.6371 27.7721L16.1523 15.0548C15.5438 13.6438 16.5924 12.0775 18.1458 12.0775L28.8798 12.0775C30.4331 12.0775 31.4818 13.6438 30.8732 15.0548L25.3884 27.7721C24.6844 29.4044 22.341 29.4044 21.6371 27.7721Z"
        fill="url(#paint6_linear_2009_15)" />
    <path
        d="M30.8735 15.0548C31.482 13.6437 30.4334 12.0775 28.8801 12.0775L20.3303 12.0775L19.1731 13.22L27.9341 21.8702L30.8735 15.0548Z"
        fill="url(#paint7_linear_2009_15)" />
    <path
        d="M23.5128 14.9948C26.9024 14.9948 29.6503 12.2817 29.6503 8.9349C29.6503 5.58811 26.9024 2.875 23.5128 2.875C20.1231 2.875 17.3752 5.58811 17.3752 8.9349C17.3752 12.2817 20.1231 14.9948 23.5128 14.9948Z"
        fill="url(#paint8_linear_2009_15)" />
    <path
        d="M25.3669 24.1352L30.0852 16.9868C30.2181 16.7857 30.3753 16.6152 30.5504 16.4759C31.3445 15.8414 32.4935 15.8414 33.2876 16.4759C33.4627 16.6152 33.6199 16.7857 33.7528 16.9868L38.471 24.1352C39.435 25.5962 38.3873 27.5426 36.6372 27.5426L34.9242 27.5426L34.9242 30.9534C34.9242 31.5014 34.48 31.9455 33.9321 31.9455L29.9059 31.9455C29.3579 31.9455 28.9138 31.5013 28.9138 30.9534L28.9138 27.5426L27.2009 27.5426C25.4507 27.5426 24.403 25.5962 25.3669 24.1352Z"
        fill="url(#paint9_linear_2009_15)" />
    <path
        d="M28.9138 23.1519L28.9138 30.9534C28.9138 31.5013 29.358 31.9455 29.9059 31.9455L33.9322 31.9455C34.4802 31.9455 34.9243 31.5013 34.9243 30.9534L34.9243 23.1519L28.9138 23.1519Z"
        fill="url(#paint10_linear_2009_15)" />
    <path
        d="M28.9138 27.5425L28.9138 30.9534C28.9138 31.5013 29.358 31.9455 29.9059 31.9455L33.9322 31.9455C34.4802 31.9455 34.9243 31.5013 34.9243 30.9534L34.9243 27.5425L28.9138 27.5425Z"
        fill="url(#paint11_linear_2009_15)" />
    <path
        d="M25.3669 24.135L28.9137 18.7614L28.9137 27.5425L27.2008 27.5425C25.4507 27.5425 24.403 25.596 25.3669 24.135Z"
        fill="url(#paint12_linear_2009_15)" />
    <path
        d="M36.637 27.5425L34.9241 27.5425L34.9241 18.7614L38.4708 24.135C39.4348 25.596 38.3869 27.5425 36.637 27.5425Z"
        fill="url(#paint13_linear_2009_15)" />
    <defs>
        <linearGradient id="paint0_linear_2009_15" x1="7.70537" y1="19.9557" x2="13.5011"
            y2="25.8258" gradientUnits="userSpaceOnUse">
            <stop stop-color="#FEF48B" />
            <stop offset="0.1462" stop-color="#FDF07E" />
            <stop offset="0.4164" stop-color="#FCE55C" />
            <stop offset="0.778" stop-color="#FBD325" />
            <stop offset="1" stop-color="#FAC600" />
        </linearGradient>
        <linearGradient id="paint1_linear_2009_15" x1="11.1678" y1="19.6185" x2="14.7169"
            y2="18.5002" gradientUnits="userSpaceOnUse">
            <stop stop-color="#FAC600" stop-opacity="0" />
            <stop offset="0.408" stop-color="#EFBD01" stop-opacity="0.408" />
            <stop offset="1" stop-color="#D7AA02" />
        </linearGradient>
        <linearGradient id="paint2_linear_2009_15" x1="10.0986" y1="17.6013" x2="10.0986"
            y2="14.5415" gradientUnits="userSpaceOnUse">
            <stop stop-color="#FAC600" stop-opacity="0" />
            <stop offset="0.408" stop-color="#EFBD01" stop-opacity="0.408" />
            <stop offset="1" stop-color="#D7AA02" />
        </linearGradient>
        <linearGradient id="paint3_linear_2009_15" x1="7.52534" y1="6.39432" x2="13.072" y2="12.012"
            gradientUnits="userSpaceOnUse">
            <stop stop-color="#FEF48B" />
            <stop offset="0.1462" stop-color="#FDF07E" />
            <stop offset="0.4164" stop-color="#FCE55C" />
            <stop offset="0.778" stop-color="#FBD325" />
            <stop offset="1" stop-color="#FAC600" />
        </linearGradient>
        <linearGradient id="paint4_linear_2009_15" x1="10.0985" y1="25.9525" x2="10.0985"
            y2="29.2306" gradientUnits="userSpaceOnUse">
            <stop stop-color="#FAC600" stop-opacity="0" />
            <stop offset="0.408" stop-color="#EFBD01" stop-opacity="0.408" />
            <stop offset="1" stop-color="#D7AA02" />
        </linearGradient>
        <linearGradient id="paint5_linear_2009_15" x1="21.3594" y1="15.7384" x2="27.2418"
            y2="21.6961" gradientUnits="userSpaceOnUse">
            <stop stop-color="#FEF48B" />
            <stop offset="0.1462" stop-color="#FDF07E" />
            <stop offset="0.4164" stop-color="#FCE55C" />
            <stop offset="0.778" stop-color="#FBD325" />
            <stop offset="1" stop-color="#FAC600" />
        </linearGradient>
        <linearGradient id="paint6_linear_2009_15" x1="24.0625" y1="19.659" x2="27.2912"
            y2="21.0149" gradientUnits="userSpaceOnUse">
            <stop stop-color="#FAC600" stop-opacity="0" />
            <stop offset="0.408" stop-color="#EFBD01" stop-opacity="0.408" />
            <stop offset="1" stop-color="#D7AA02" />
        </linearGradient>
        <linearGradient id="paint7_linear_2009_15" x1="26.4377" y1="17.4429" x2="24.8539"
            y2="12.6697" gradientUnits="userSpaceOnUse">
            <stop stop-color="#FAC600" stop-opacity="0" />
            <stop offset="0.408" stop-color="#EFBD01" stop-opacity="0.408" />
            <stop offset="1" stop-color="#D7AA02" />
        </linearGradient>
        <linearGradient id="paint8_linear_2009_15" x1="20.9396" y1="6.39432" x2="26.4863"
            y2="12.012" gradientUnits="userSpaceOnUse">
            <stop stop-color="#FEF48B" />
            <stop offset="0.1462" stop-color="#FDF07E" />
            <stop offset="0.4164" stop-color="#FCE55C" />
            <stop offset="0.778" stop-color="#FBD325" />
            <stop offset="1" stop-color="#FAC600" />
        </linearGradient>
        <linearGradient id="paint9_linear_2009_15" x1="27.033" y1="27.4321" x2="37.3163"
            y2="21.2157" gradientUnits="userSpaceOnUse">
            <stop stop-color="#BBEC6C" />
            <stop offset="1" stop-color="#78A91F" />
        </linearGradient>
        <linearGradient id="paint10_linear_2009_15" x1="29.7404" y1="28.1254" x2="27.6102"
            y2="28.8225" gradientUnits="userSpaceOnUse">
            <stop stop-color="#78A91F" stop-opacity="0" />
            <stop offset="0.1473" stop-color="#70A421" stop-opacity="0.147" />
            <stop offset="0.3741" stop-color="#5B9927" stop-opacity="0.374" />
            <stop offset="0.6521" stop-color="#378531" stop-opacity="0.652" />
            <stop offset="0.9682" stop-color="#076B3F" stop-opacity="0.968" />
            <stop offset="1" stop-color="#026841" />
        </linearGradient>
        <linearGradient id="paint11_linear_2009_15" x1="31.919" y1="30.6667" x2="31.919"
            y2="32.3362" gradientUnits="userSpaceOnUse">
            <stop stop-color="#78A91F" stop-opacity="0" />
            <stop offset="1" stop-color="#026841" />
        </linearGradient>
        <linearGradient id="paint12_linear_2009_15" x1="26.9569" y1="25.9012" x2="26.9569"
            y2="28.0291" gradientUnits="userSpaceOnUse">
            <stop stop-color="#78A91F" stop-opacity="0" />
            <stop offset="1" stop-color="#026841" />
        </linearGradient>
        <linearGradient id="paint13_linear_2009_15" x1="36.8809" y1="25.9012" x2="36.8809"
            y2="28.0291" gradientUnits="userSpaceOnUse">
            <stop stop-color="#78A91F" stop-opacity="0" />
            <stop offset="1" stop-color="#026841" />
        </linearGradient>
    </defs>
</svg>