<svg width="26" height="23" viewBox="0 0 26 23" fill="none" xmlns="http://www.w3.org/2000/svg">
<path fill-rule="evenodd" clip-rule="evenodd" d="M11.2476 15.9788L12.7309 19.4181C12.7738 19.5176 12.8021 19.6185 12.8171 19.7189C12.9219 20.4218 12.3728 21.0986 11.6057 21.0986L2.89371 21.0986C2.44027 21.0986 2.06301 20.8621 1.85193 20.5236C1.75691 20.3712 1.69557 20.1981 1.67612 20.0166C1.66016 19.8678 1.67239 19.7133 1.71732 19.5599C1.73121 19.5124 1.74824 19.4651 1.76852 19.4181L5.5276 10.702C5.50086 10.6908 5.47425 10.6793 5.44778 10.6676C3.91272 9.98753 2.84355 8.46526 2.84355 6.69642C2.84355 4.29376 4.81624 2.34602 7.24968 2.34602C9.06522 2.34602 10.6243 3.4302 11.299 4.9786C11.5286 5.50559 11.6558 6.08634 11.6558 6.69642C11.6558 7.13205 11.591 7.55272 11.4703 7.94954C11.4221 8.10803 11.365 8.2627 11.2995 8.41301C11.0226 9.04915 10.5964 9.607 10.0644 10.0436C9.75894 10.2943 9.41858 10.505 9.05159 10.6676C9.02513 10.6793 8.99853 10.6908 8.9718 10.702L10.6283 14.5429M11.0633 15.5515L10.6283 14.5429L9.30996 15.1116M14.1541 20.6476C13.8316 21.7141 12.843 22.5344 11.6057 22.5344L2.89371 22.5344C1.91688 22.5344 1.09179 22.0182 0.63355 21.2832C0.427473 20.9527 0.291743 20.5731 0.248494 20.1697C0.212893 19.8375 0.240571 19.4937 0.339399 19.1563C0.369812 19.0525 0.406736 18.95 0.450111 18.8494C0.450103 18.8495 0.45012 18.8494 0.450111 18.8494L3.70721 11.2973C2.31414 10.2435 1.40775 8.57935 1.40775 6.69642C1.40775 3.48362 4.04055 0.910217 7.24968 0.910217C9.23982 0.910217 11.0083 1.89991 12.0647 3.41803C13.1211 1.89991 14.8896 0.910217 16.8797 0.910217C20.0888 0.910217 22.7216 3.48361 22.7216 6.69642C22.7216 7.18781 22.6595 7.66552 22.5427 8.12188C23.5719 8.90217 24.0603 10.3185 23.4824 11.6585L20.5436 18.4724L19.5447 20.7883C19.5447 20.7883 19.5447 20.7883 19.5447 20.7883C18.5406 23.1164 15.2188 23.1164 14.2148 20.7883L14.1541 20.6476ZM18.2263 20.2197L20.0536 15.9828L22.164 11.0899C22.3994 10.5441 22.2894 9.96591 21.9634 9.54872C21.6844 9.19164 21.2472 8.95249 20.7329 8.95249L20.6478 8.95249C20.677 8.90501 20.7054 8.85694 20.7328 8.8083C20.7327 8.80839 20.7328 8.80821 20.7328 8.8083C20.9503 8.42208 21.1102 7.99948 21.2006 7.55243C21.2565 7.27566 21.2858 6.98943 21.2858 6.69642C21.2858 4.29376 19.3131 2.34602 16.8797 2.34602C15.0642 2.34602 13.5051 3.4302 12.8304 4.9786C12.6008 5.50559 12.4736 6.08634 12.4736 6.69642C12.4736 6.98944 12.5029 7.27569 12.5588 7.55247C12.6193 7.85178 12.7109 8.14 12.8302 8.41372C12.8891 8.54902 12.9548 8.68077 13.0268 8.80857C13.0542 8.85712 13.0824 8.9051 13.1116 8.95249L13.0268 8.95249C12.8799 8.95249 12.7392 8.97201 12.6068 9.00822C12.2755 9.09878 11.9954 9.29377 11.7961 9.54896C11.5505 9.8634 11.4276 10.2692 11.4827 10.6837C11.5007 10.8191 11.5377 10.9555 11.5957 11.0899L15.5332 20.2197C16.0386 21.3915 17.7209 21.3915 18.2263 20.2197ZM11.0633 15.5515L11.2476 15.9788L11.0633 15.5515Z" fill="#875230"/>
<path d="M7.24965 6.70929L1.76852 19.4182C1.42499 20.2146 2.01698 21.0988 2.8937 21.0988L11.6057 21.0988C12.4824 21.0988 13.0743 20.2147 12.7309 19.4182L7.24965 6.70929Z" fill="url(#paint0_linear_479_818)"/>
<path d="M7.24965 6.70929L1.76852 19.4182C1.42499 20.2146 2.01698 21.0988 2.8937 21.0988L11.6057 21.0988C12.4824 21.0988 13.0743 20.2147 12.7309 19.4182L7.24965 6.70929Z" fill="url(#paint1_linear_479_818)"/>
<path d="M7.24977 6.70929L3.87122 14.5431L10.6284 14.5431L7.24977 6.70929Z" fill="url(#paint2_linear_479_818)"/>
<path d="M7.24976 11.0469C9.6832 11.0469 11.6559 9.09914 11.6559 6.69648C11.6559 4.29381 9.6832 2.34607 7.24976 2.34607C4.81632 2.34607 2.84363 4.29381 2.84363 6.69648C2.84363 9.09914 4.81632 11.0469 7.24976 11.0469Z" fill="url(#paint3_linear_479_818)"/>
<path d="M1.76852 19.4182C1.42499 20.2146 2.01698 21.0987 2.8937 21.0987L11.6057 21.0987C12.4824 21.0987 13.0743 20.2147 12.7309 19.4182L11.0633 15.5516L3.43614 15.5516L1.76852 19.4182Z" fill="url(#paint4_linear_479_818)"/>
<path d="M15.5332 20.2198L11.5957 11.09C11.1589 10.077 11.9117 8.95258 13.0268 8.95258L20.7328 8.95258C21.8479 8.95258 22.6007 10.077 22.1639 11.09L18.2263 20.2198C17.7209 21.3916 16.0386 21.3916 15.5332 20.2198Z" fill="url(#paint5_linear_479_818)"/>
<path d="M15.5332 20.2198L11.5957 11.09C11.1589 10.077 11.9117 8.95258 13.0268 8.95258L20.7328 8.95258C21.8479 8.95258 22.6007 10.077 22.1639 11.09L18.2263 20.2198C17.7209 21.3916 16.0386 21.3916 15.5332 20.2198Z" fill="url(#paint6_linear_479_818)"/>
<path d="M22.1643 11.09C22.6011 10.0769 21.8483 8.95258 20.7332 8.95258L14.5953 8.95258L13.7645 9.7728L20.054 15.9828L22.1643 11.09Z" fill="url(#paint7_linear_479_818)"/>
<path d="M16.8798 11.0469C19.3132 11.0469 21.2859 9.09914 21.2859 6.69648C21.2859 4.29381 19.3132 2.34607 16.8798 2.34607C14.4463 2.34607 12.4736 4.29381 12.4736 6.69648C12.4736 9.09914 14.4463 11.0469 16.8798 11.0469Z" fill="url(#paint8_linear_479_818)"/>
<defs>
<linearGradient id="paint0_linear_479_818" x1="5.53169" y1="14.6085" x2="9.69246" y2="18.8226" gradientUnits="userSpaceOnUse">
<stop stop-color="#FEF48B"/>
<stop offset="0.1462" stop-color="#FDF07E"/>
<stop offset="0.4164" stop-color="#FCE55C"/>
<stop offset="0.778" stop-color="#FBD325"/>
<stop offset="1" stop-color="#FAC600"/>
</linearGradient>
<linearGradient id="paint1_linear_479_818" x1="8.01739" y1="14.3663" x2="10.5653" y2="13.5635" gradientUnits="userSpaceOnUse">
<stop stop-color="#FAC600" stop-opacity="0"/>
<stop offset="0.408" stop-color="#EFBD01" stop-opacity="0.408"/>
<stop offset="1" stop-color="#D7AA02"/>
</linearGradient>
<linearGradient id="paint2_linear_479_818" x1="7.24985" y1="12.9182" x2="7.24985" y2="10.7215" gradientUnits="userSpaceOnUse">
<stop stop-color="#FAC600" stop-opacity="0"/>
<stop offset="0.408" stop-color="#EFBD01" stop-opacity="0.408"/>
<stop offset="1" stop-color="#D7AA02"/>
</linearGradient>
<linearGradient id="paint3_linear_479_818" x1="5.40251" y1="4.87259" x2="9.38447" y2="8.90555" gradientUnits="userSpaceOnUse">
<stop stop-color="#FEF48B"/>
<stop offset="0.1462" stop-color="#FDF07E"/>
<stop offset="0.4164" stop-color="#FCE55C"/>
<stop offset="0.778" stop-color="#FBD325"/>
<stop offset="1" stop-color="#FAC600"/>
</linearGradient>
<linearGradient id="paint4_linear_479_818" x1="7.24973" y1="18.9135" x2="7.24973" y2="21.2668" gradientUnits="userSpaceOnUse">
<stop stop-color="#FAC600" stop-opacity="0"/>
<stop offset="0.408" stop-color="#EFBD01" stop-opacity="0.408"/>
<stop offset="1" stop-color="#D7AA02"/>
</linearGradient>
<linearGradient id="paint5_linear_479_818" x1="15.3339" y1="11.5808" x2="19.5569" y2="15.8578" gradientUnits="userSpaceOnUse">
<stop stop-color="#FEF48B"/>
<stop offset="0.1462" stop-color="#FDF07E"/>
<stop offset="0.4164" stop-color="#FCE55C"/>
<stop offset="0.778" stop-color="#FBD325"/>
<stop offset="1" stop-color="#FAC600"/>
</linearGradient>
<linearGradient id="paint6_linear_479_818" x1="17.2744" y1="14.3954" x2="19.5924" y2="15.3687" gradientUnits="userSpaceOnUse">
<stop stop-color="#FAC600" stop-opacity="0"/>
<stop offset="0.408" stop-color="#EFBD01" stop-opacity="0.408"/>
<stop offset="1" stop-color="#D7AA02"/>
</linearGradient>
<linearGradient id="paint7_linear_479_818" x1="18.9798" y1="12.8044" x2="17.8428" y2="9.37774" gradientUnits="userSpaceOnUse">
<stop stop-color="#FAC600" stop-opacity="0"/>
<stop offset="0.408" stop-color="#EFBD01" stop-opacity="0.408"/>
<stop offset="1" stop-color="#D7AA02"/>
</linearGradient>
<linearGradient id="paint8_linear_479_818" x1="15.0325" y1="4.87259" x2="19.0145" y2="8.90555" gradientUnits="userSpaceOnUse">
<stop stop-color="#FEF48B"/>
<stop offset="0.1462" stop-color="#FDF07E"/>
<stop offset="0.4164" stop-color="#FCE55C"/>
<stop offset="0.778" stop-color="#FBD325"/>
<stop offset="1" stop-color="#FAC600"/>
</linearGradient>
</defs>
</svg>
