<svg width="17" height="18" viewBox="0 0 17 18" fill="none" xmlns="http://www.w3.org/2000/svg">
<path fill-rule="evenodd" clip-rule="evenodd" d="M8.14202 11.5691L9.19468 14.01C9.22515 14.0806 9.24525 14.1522 9.25587 14.2235C9.33025 14.7223 8.94058 15.2026 8.39615 15.2026L2.21328 15.2026C1.89148 15.2026 1.62373 15.0348 1.47393 14.7945C1.4065 14.6864 1.36297 14.5636 1.34916 14.4348C1.33784 14.3291 1.34651 14.2195 1.3784 14.1106C1.38826 14.0769 1.40034 14.0433 1.41474 14.01L4.08254 7.82421C4.06356 7.81625 4.04468 7.8081 4.0259 7.79978C2.93647 7.31714 2.17768 6.23679 2.17768 4.98145C2.17768 3.27629 3.5777 1.89398 5.3047 1.89398C6.59318 1.89398 7.69965 2.66342 8.17849 3.76232C8.34145 4.13632 8.43172 4.54848 8.43172 4.98145C8.43172 5.29062 8.3857 5.58917 8.30005 5.87079C8.26584 5.98326 8.22531 6.09304 8.17887 6.19971C7.98231 6.65118 7.67983 7.04708 7.30232 7.35691C7.08551 7.53484 6.84396 7.68439 6.58351 7.79978C6.56473 7.8081 6.54585 7.81624 6.52688 7.8242L7.7025 10.55M8.01119 11.2659L7.7025 10.55L6.76687 10.9537M10.2048 14.8826C9.97588 15.6395 9.27423 16.2216 8.39615 16.2216L2.21328 16.2216C1.52003 16.2216 0.934466 15.8553 0.609252 15.3337C0.463001 15.0991 0.366673 14.8297 0.335979 14.5434C0.310713 14.3076 0.330356 14.0637 0.400495 13.8242C0.422079 13.7505 0.448283 13.6778 0.479067 13.6064C0.479061 13.6064 0.479073 13.6064 0.479067 13.6064L2.79062 8.24671C1.80196 7.4988 1.1587 6.31776 1.1587 4.98145C1.1587 2.70133 3.02719 0.875 5.3047 0.875C6.71709 0.875 7.97219 1.57738 8.7219 2.65479C9.47161 1.57738 10.7267 0.875 12.1391 0.875C14.4166 0.875 16.2851 2.70133 16.2851 4.98145C16.2851 5.33019 16.241 5.66922 16.1581 5.9931C16.8885 6.54686 17.2351 7.55204 16.825 8.50299L14.7393 13.3388L14.0304 14.9824C14.0304 14.9824 14.0304 14.9824 14.0304 14.9824C13.3179 16.6346 10.9604 16.6346 10.2478 14.9824L10.2048 14.8826ZM13.0948 14.5789L14.3916 11.572L15.8893 8.09948C16.0564 7.71211 15.9783 7.30179 15.747 7.00572C15.549 6.7523 15.2387 6.58257 14.8737 6.58257L14.8133 6.58257C14.834 6.54888 14.8541 6.51477 14.8736 6.48024C14.8736 6.48031 14.8736 6.48018 14.8736 6.48024C15.028 6.20615 15.1415 5.90623 15.2056 5.58895C15.2453 5.39254 15.2661 5.1894 15.2661 4.98145C15.2661 3.27629 13.8661 1.89398 12.1391 1.89398C10.8506 1.89398 9.74414 2.66342 9.26531 3.76232C9.10234 4.13632 9.01207 4.54848 9.01207 4.98145C9.01207 5.18941 9.0329 5.39256 9.0726 5.58899C9.11553 5.8014 9.18053 6.00596 9.26515 6.20022C9.30697 6.29623 9.35359 6.38974 9.4047 6.48043C9.42411 6.51489 9.44418 6.54894 9.46488 6.58257L9.4047 6.58257C9.30043 6.58257 9.20063 6.59643 9.10663 6.62213C8.87152 6.6864 8.67273 6.82478 8.53128 7.00589C8.35699 7.22904 8.26975 7.51706 8.30886 7.81122C8.32165 7.90733 8.34792 8.0041 8.38905 8.09948L11.1835 14.5789C11.5422 15.4105 12.7361 15.4105 13.0948 14.5789ZM8.01119 11.2659L8.14202 11.5691L8.01119 11.2659Z" fill="white"/>
<path d="M5.30468 4.99048L1.41474 14.01C1.17094 14.5752 1.59107 15.2026 2.21328 15.2026L8.39615 15.2026C9.01835 15.2026 9.43843 14.5752 9.19468 14.01L5.30468 4.99048Z" fill="url(#paint0_linear_373_1610)"/>
<path d="M5.30468 4.99048L1.41474 14.01C1.17094 14.5752 1.59107 15.2026 2.21328 15.2026L8.39615 15.2026C9.01835 15.2026 9.43843 14.5752 9.19468 14.01L5.30468 4.99048Z" fill="url(#paint1_linear_373_1610)"/>
<path d="M5.30473 4.99048L2.90698 10.5501L7.70253 10.5501L5.30473 4.99048Z" fill="url(#paint2_linear_373_1610)"/>
<path d="M5.30469 8.06892C7.0317 8.06892 8.43171 6.68661 8.43171 4.98145C8.43171 3.27629 7.0317 1.89398 5.30469 1.89398C3.57769 1.89398 2.17767 3.27629 2.17767 4.98145C2.17767 6.68661 3.57769 8.06892 5.30469 8.06892Z" fill="url(#paint3_linear_373_1610)"/>
<path d="M1.41474 14.01C1.17094 14.5752 1.59107 15.2026 2.21328 15.2026L8.39615 15.2026C9.01835 15.2026 9.43843 14.5752 9.19468 14.01L8.01123 11.2659L2.59825 11.2659L1.41474 14.01Z" fill="url(#paint4_linear_373_1610)"/>
<path d="M11.1835 14.5789L8.38904 8.09949C8.07901 7.3806 8.61327 6.58258 9.40469 6.58258L14.8736 6.58258C15.665 6.58258 16.1993 7.3806 15.8892 8.09949L13.0947 14.5789C12.7361 15.4105 11.5421 15.4105 11.1835 14.5789Z" fill="url(#paint5_linear_373_1610)"/>
<path d="M11.1835 14.5789L8.38904 8.09949C8.07901 7.3806 8.61327 6.58258 9.40469 6.58258L14.8736 6.58258C15.665 6.58258 16.1993 7.3806 15.8892 8.09949L13.0947 14.5789C12.7361 15.4105 11.5421 15.4105 11.1835 14.5789Z" fill="url(#paint6_linear_373_1610)"/>
<path d="M15.8894 8.09949C16.1994 7.38054 15.6651 6.58258 14.8737 6.58258L10.5177 6.58258L9.9281 7.16469L14.3917 11.5719L15.8894 8.09949Z" fill="url(#paint7_linear_373_1610)"/>
<path d="M12.139 8.06892C13.866 8.06892 15.2661 6.68661 15.2661 4.98145C15.2661 3.27629 13.866 1.89398 12.139 1.89398C10.412 1.89398 9.01202 3.27629 9.01202 4.98145C9.01202 6.68661 10.412 8.06892 12.139 8.06892Z" fill="url(#paint8_linear_373_1610)"/>
<defs>
<linearGradient id="paint0_linear_373_1610" x1="4.08545" y1="10.5965" x2="7.03834" y2="13.5873" gradientUnits="userSpaceOnUse">
<stop stop-color="#FEF48B"/>
<stop offset="0.1462" stop-color="#FDF07E"/>
<stop offset="0.4164" stop-color="#FCE55C"/>
<stop offset="0.778" stop-color="#FBD325"/>
<stop offset="1" stop-color="#FAC600"/>
</linearGradient>
<linearGradient id="paint1_linear_373_1610" x1="5.84955" y1="10.4247" x2="7.65777" y2="9.85491" gradientUnits="userSpaceOnUse">
<stop stop-color="#FAC600" stop-opacity="0"/>
<stop offset="0.408" stop-color="#EFBD01" stop-opacity="0.408"/>
<stop offset="1" stop-color="#D7AA02"/>
</linearGradient>
<linearGradient id="paint2_linear_373_1610" x1="5.30479" y1="9.39694" x2="5.30479" y2="7.83795" gradientUnits="userSpaceOnUse">
<stop stop-color="#FAC600" stop-opacity="0"/>
<stop offset="0.408" stop-color="#EFBD01" stop-opacity="0.408"/>
<stop offset="1" stop-color="#D7AA02"/>
</linearGradient>
<linearGradient id="paint3_linear_373_1610" x1="3.99371" y1="3.68705" x2="6.81968" y2="6.54922" gradientUnits="userSpaceOnUse">
<stop stop-color="#FEF48B"/>
<stop offset="0.1462" stop-color="#FDF07E"/>
<stop offset="0.4164" stop-color="#FCE55C"/>
<stop offset="0.778" stop-color="#FBD325"/>
<stop offset="1" stop-color="#FAC600"/>
</linearGradient>
<linearGradient id="paint4_linear_373_1610" x1="5.30474" y1="13.6518" x2="5.30474" y2="15.3219" gradientUnits="userSpaceOnUse">
<stop stop-color="#FAC600" stop-opacity="0"/>
<stop offset="0.408" stop-color="#EFBD01" stop-opacity="0.408"/>
<stop offset="1" stop-color="#D7AA02"/>
</linearGradient>
<linearGradient id="paint5_linear_373_1610" x1="11.042" y1="8.4478" x2="14.0391" y2="11.4832" gradientUnits="userSpaceOnUse">
<stop stop-color="#FEF48B"/>
<stop offset="0.1462" stop-color="#FDF07E"/>
<stop offset="0.4164" stop-color="#FCE55C"/>
<stop offset="0.778" stop-color="#FBD325"/>
<stop offset="1" stop-color="#FAC600"/>
</linearGradient>
<linearGradient id="paint6_linear_373_1610" x1="12.4192" y1="10.4453" x2="14.0642" y2="11.1361" gradientUnits="userSpaceOnUse">
<stop stop-color="#FAC600" stop-opacity="0"/>
<stop offset="0.408" stop-color="#EFBD01" stop-opacity="0.408"/>
<stop offset="1" stop-color="#D7AA02"/>
</linearGradient>
<linearGradient id="paint7_linear_373_1610" x1="13.6294" y1="9.3162" x2="12.8224" y2="6.88432" gradientUnits="userSpaceOnUse">
<stop stop-color="#FAC600" stop-opacity="0"/>
<stop offset="0.408" stop-color="#EFBD01" stop-opacity="0.408"/>
<stop offset="1" stop-color="#D7AA02"/>
</linearGradient>
<linearGradient id="paint8_linear_373_1610" x1="10.8281" y1="3.68705" x2="13.654" y2="6.54922" gradientUnits="userSpaceOnUse">
<stop stop-color="#FEF48B"/>
<stop offset="0.1462" stop-color="#FDF07E"/>
<stop offset="0.4164" stop-color="#FCE55C"/>
<stop offset="0.778" stop-color="#FBD325"/>
<stop offset="1" stop-color="#FAC600"/>
</linearGradient>
</defs>
</svg>
