<svg width="30" height="31" viewBox="0 0 30 31" fill="none" xmlns="http://www.w3.org/2000/svg">
    <g filter="url(#filter0_d_65_4065)">
        <path
            d="M12.7547 11.4509C14.203 10.9297 15.7877 10.9297 17.2359 11.4509L22.5 13.3606V10.8125C22.5 10.0666 22.2037 9.35121 21.6762 8.82376C21.1488 8.29632 20.4334 8 19.6875 8H10.3125C9.56658 8 8.85121 8.29632 8.32376 8.82376C7.79632 9.35121 7.5 10.0666 7.5 10.8125V13.3606L12.7547 11.4509Z"
            fill="white" />
        <path
            d="M5.65315 23.7069C5.75809 23.7708 5.87731 23.8075 6.00002 23.8138C6.16423 23.8148 6.32343 23.7573 6.44909 23.6516C7.58664 22.7051 9.01973 22.1868 10.4996 22.1868C11.9794 22.1868 13.4125 22.7051 14.55 23.6516C14.6762 23.7567 14.8353 23.8143 14.9996 23.8143C15.1638 23.8143 15.3229 23.7567 15.4491 23.6516C16.5866 22.7051 18.0197 22.1868 19.4996 22.1868C20.9794 22.1868 22.4125 22.7051 23.55 23.6516C23.6758 23.7578 23.8354 23.8157 24 23.8147C24.1226 23.8085 24.2418 23.7721 24.3469 23.7088L25.6875 19.3541C25.8991 18.6644 25.8376 17.9198 25.5156 17.2741C25.1937 16.6285 24.636 16.1313 23.9578 15.8853L16.6041 13.2125C15.5677 12.8403 14.4342 12.8403 13.3978 13.2125L6.04784 15.8834C5.36757 16.1284 4.80776 16.6259 4.48463 17.2727C4.1615 17.9195 4.09986 18.6658 4.31252 19.3569L5.65315 23.7069Z"
            fill="white" />
        <path
            d="M15.9375 3.3125H14.0625C13.3166 3.3125 12.6012 3.60882 12.0738 4.13626C11.5463 4.66371 11.25 5.37908 11.25 6.125H18.75C18.75 5.37908 18.4537 4.66371 17.9262 4.13626C17.3988 3.60882 16.6834 3.3125 15.9375 3.3125Z"
            fill="white" />
        <path
            d="M5.99997 27.5647C4.95851 27.5653 3.94988 27.2003 3.14996 26.5334C2.95876 26.3743 2.8386 26.1457 2.81592 25.898C2.79324 25.6503 2.8699 25.4037 3.02903 25.2125C3.18816 25.0213 3.41673 24.9011 3.66445 24.8785C3.91217 24.8558 4.15876 24.9324 4.34996 25.0916C4.81306 25.4778 5.39696 25.6893 5.99997 25.6893C6.60297 25.6893 7.18687 25.4778 7.64997 25.0916C8.45029 24.4254 9.45868 24.0607 10.5 24.0607C11.5412 24.0607 12.5496 24.4254 13.35 25.0916C13.8131 25.4778 14.397 25.6893 15 25.6893C15.603 25.6893 16.1869 25.4778 16.65 25.0916C17.4503 24.4254 18.4587 24.0607 19.5 24.0607C20.5412 24.0607 21.5496 24.4254 22.35 25.0916C22.8131 25.4778 23.397 25.6893 24 25.6893C24.603 25.6893 25.1869 25.4778 25.65 25.0916C25.8412 24.9324 26.0878 24.8558 26.3355 24.8785C26.5832 24.9011 26.8118 25.0213 26.9709 25.2125C27.13 25.4037 27.2067 25.6503 27.184 25.898C27.1613 26.1457 27.0412 26.3743 26.85 26.5334C26.0496 27.1996 25.0412 27.5643 24 27.5643C22.9587 27.5643 21.9503 27.1996 21.15 26.5334C20.6869 26.1472 20.103 25.9357 19.5 25.9357C18.897 25.9357 18.3131 26.1472 17.85 26.5334C17.0496 27.1996 16.0412 27.5643 15 27.5643C13.9587 27.5643 12.9503 27.1996 12.15 26.5334C11.6869 26.1472 11.103 25.9357 10.5 25.9357C9.89696 25.9357 9.31306 26.1472 8.84997 26.5334C8.04997 27.2002 7.04139 27.5651 5.99997 27.5647Z"
            fill="white" />
    </g>
    <defs>
        <filter id="filter0_d_65_4065" x="2.81201" y="3.3125" width="26.3759" height="26.2522"
            filterUnits="userSpaceOnUse" color-interpolation-filters="sRGB">
            <feFlood flood-opacity="0" result="BackgroundImageFix" />
            <feColorMatrix in="SourceAlpha" type="matrix"
                values="0 0 0 0 0 0 0 0 0 0 0 0 0 0 0 0 0 0 127 0" result="hardAlpha" />
            <feOffset dx="2" dy="2" />
            <feComposite in2="hardAlpha" operator="out" />
            <feColorMatrix type="matrix"
                values="0 0 0 0 0 0 0 0 0 0.184314 0 0 0 0 0.552941 0 0 0 1 0" />
            <feBlend mode="normal" in2="BackgroundImageFix" result="effect1_dropShadow_65_4065" />
            <feBlend mode="normal" in="SourceGraphic" in2="effect1_dropShadow_65_4065"
                result="shape" />
        </filter>
    </defs>
</svg>