<svg width="25" height="25" viewBox="0 0 25 25" fill="none" xmlns="http://www.w3.org/2000/svg">
    <g clip-path="url(#clip0_65_3821)">
        <g filter="url(#filter0_d_65_3821)">
            <path
                d="M21.8203 8.25004C21.3645 8.18382 20.9294 8.01561 20.5475 7.75795C20.1657 7.50028 19.8469 7.15979 19.6149 6.76183C19.3829 6.36387 19.2436 5.91869 19.2075 5.45946C19.1714 5.00022 19.2393 4.53875 19.4063 4.10941C19.5124 3.82873 19.528 3.52187 19.451 3.23185C19.3739 2.94184 19.208 2.68321 18.9766 2.49222C17.9547 1.63415 16.7916 0.96007 15.5391 0.500037C15.2539 0.394086 14.9425 0.380848 14.6493 0.462209C14.3561 0.54357 14.0961 0.71538 13.9063 0.953162C13.6205 1.31852 13.2554 1.61401 12.8385 1.81723C12.4215 2.02046 11.9638 2.12607 11.5 2.12607C11.0362 2.12607 10.5785 2.02046 10.1616 1.81723C9.74465 1.61401 9.37949 1.31852 9.09377 0.953162C8.90394 0.71538 8.64391 0.54357 8.35073 0.462209C8.05755 0.380848 7.74617 0.394086 7.46095 0.500037C6.30444 0.924757 5.22313 1.53135 4.25783 2.29691C4.0145 2.48954 3.83924 2.75501 3.7577 3.05445C3.67617 3.35389 3.69264 3.67157 3.8047 3.96097C3.98498 4.40167 4.05947 4.87848 4.02218 5.35316C3.9849 5.82784 3.83689 6.28718 3.59002 6.69432C3.34315 7.10147 3.00429 7.44509 2.60064 7.69762C2.19698 7.95015 1.73976 8.10457 1.26564 8.14847C0.957836 8.18139 0.668728 8.31225 0.440885 8.52181C0.213042 8.73137 0.0585013 9.00855 1.6883e-05 9.31254C-0.145454 10.0326 -0.218733 10.7654 -0.218733 11.5C-0.219802 12.1151 -0.170155 12.7291 -0.0702956 13.336C-0.0205965 13.6497 0.131069 13.9383 0.361251 14.1572C0.591434 14.3761 0.887313 14.5131 1.20314 14.5469C1.68767 14.5924 2.15426 14.7533 2.56385 15.0161C2.97344 15.2789 3.31413 15.636 3.55738 16.0575C3.80064 16.4789 3.9394 16.9526 3.96204 17.4387C3.98468 17.9248 3.89055 18.4093 3.68752 18.8516C3.55465 19.1393 3.52169 19.4631 3.59388 19.7717C3.66606 20.0802 3.83925 20.3558 4.08595 20.5547C5.10167 21.3972 6.25359 22.0604 7.4922 22.5157C7.6506 22.5705 7.81678 22.5995 7.98439 22.6016C8.21421 22.6011 8.44056 22.5455 8.64446 22.4395C8.84836 22.3334 9.02387 22.1801 9.15627 21.9922C9.43472 21.5865 9.80797 21.2549 10.2436 21.0262C10.6793 20.7975 11.1642 20.6785 11.6563 20.6797C12.133 20.6803 12.6031 20.7922 13.0289 21.0065C13.4548 21.2208 13.8248 21.5316 14.1094 21.9141C14.2987 22.1686 14.5668 22.3533 14.8721 22.4395C15.1773 22.5257 15.5024 22.5085 15.7969 22.3907C16.9295 21.9348 17.9838 21.3048 18.9219 20.5235C19.1575 20.3287 19.3253 20.0641 19.4011 19.7679C19.4769 19.4717 19.4568 19.1591 19.3438 18.875C19.16 18.44 19.0799 17.9682 19.1097 17.497C19.1396 17.0257 19.2785 16.5678 19.5157 16.1594C19.7528 15.751 20.0816 15.4034 20.4762 15.1439C20.8707 14.8844 21.3202 14.7201 21.7891 14.6641C22.0931 14.6221 22.3759 14.4843 22.5964 14.2708C22.817 14.0573 22.9638 13.7791 23.0156 13.4766C23.1411 12.825 23.2091 12.1636 23.2188 11.5C23.2189 10.8002 23.1535 10.1018 23.0235 9.4141C22.9707 9.11824 22.8261 8.84653 22.6101 8.63756C22.3941 8.42859 22.1178 8.293 21.8203 8.25004ZM15.4063 11.5C15.4063 12.2726 15.1772 13.0279 14.7479 13.6702C14.3187 14.3126 13.7086 14.8133 12.9949 15.1089C12.2811 15.4046 11.4957 15.482 10.7379 15.3312C9.98021 15.1805 9.28418 14.8085 8.73788 14.2622C8.19158 13.7159 7.81955 13.0198 7.66882 12.2621C7.5181 11.5044 7.59546 10.719 7.89111 10.0052C8.18677 9.29141 8.68744 8.68133 9.32982 8.25211C9.9722 7.82288 10.7274 7.59379 11.5 7.59379C12.536 7.59379 13.5296 8.00534 14.2622 8.7379C14.9947 9.47046 15.4063 10.464 15.4063 11.5Z"
                fill="white" />
        </g>
    </g>
    <defs>
        <filter id="filter0_d_65_3821" x="-0.21875" y="0.409576" width="25.4375" height="24.192"
            filterUnits="userSpaceOnUse" color-interpolation-filters="sRGB">
            <feFlood flood-opacity="0" result="BackgroundImageFix" />
            <feColorMatrix in="SourceAlpha" type="matrix"
                values="0 0 0 0 0 0 0 0 0 0 0 0 0 0 0 0 0 0 127 0" result="hardAlpha" />
            <feOffset dx="2" dy="2" />
            <feComposite in2="hardAlpha" operator="out" />
            <feColorMatrix type="matrix" values="0 0 0 0 0 0 0 0 0 0 0 0 0 0 0 0 0 0 0.25 0" />
            <feBlend mode="normal" in2="BackgroundImageFix" result="effect1_dropShadow_65_3821" />
            <feBlend mode="normal" in="SourceGraphic" in2="effect1_dropShadow_65_3821"
                result="shape" />
        </filter>
        <clipPath id="clip0_65_3821">
            <rect width="25" height="25" fill="white" />
        </clipPath>
    </defs>
</svg>