<svg width="22" height="22" viewBox="0 0 22 22" fill="none" xmlns="http://www.w3.org/2000/svg">
<path d="M13.4493 2.49049C13.6828 1.99591 14.253 1.79422 14.7228 2.04001C17.8486 3.67514 20.0001 7.07218 20.0001 11C20.0001 14.9278 17.8486 18.3249 14.7228 19.96C14.253 20.2058 13.6828 20.0041 13.4493 19.5095C13.2158 19.0149 13.4074 18.4148 13.8773 18.169C16.3821 16.8587 18.1001 14.1396 18.1001 11C18.1001 7.86038 16.3821 5.14131 13.8773 3.83104C13.4074 3.58525 13.2158 2.98507 13.4493 2.49049Z" fill="#002060"/>
<path fill-rule="evenodd" clip-rule="evenodd" d="M12.545 2.06353C13.0077 1.0834 14.1856 0.630352 15.1863 1.15394C18.6461 2.96381 21 6.70488 21 11C21 15.295 18.6462 19.0361 15.1863 20.846C14.1856 21.3697 13.0077 20.9166 12.545 19.9364C12.0942 18.9817 12.4445 17.7899 13.4137 17.2829C15.584 16.1476 17.1 13.7727 17.1 11C17.1 8.22722 15.584 5.85241 13.4137 4.71711C12.4444 4.21008 12.0942 3.01818 12.545 2.06353ZM14.7227 19.96C17.8485 18.3249 20 14.9278 20 11C20 7.07216 17.8485 3.67512 14.7227 2.03999C14.2529 1.7942 13.6828 1.99589 13.4492 2.49047C13.2157 2.98505 13.4073 3.58523 13.8772 3.83102C16.382 5.14129 18.1 7.86036 18.1 11C18.1 14.1396 16.382 16.8587 13.8772 18.169C13.4073 18.4148 13.2157 19.0149 13.4492 19.5095C13.6828 20.0041 14.2529 20.2058 14.7227 19.96Z" fill="#053CAB"/>
<path d="M4.8 7.00005H2.9C1.85066 7.00005 1 7.89548 1 9.00005V13C1 14.1046 1.85066 15 2.9 15H4.8L8.94181 18.6332C9.56054 19.176 10.5 18.7128 10.5 17.865V4.1351C10.5 3.28726 9.56054 2.8241 8.94181 3.36687L4.8 7.00005Z" fill="#002060"/>
<path fill-rule="evenodd" clip-rule="evenodd" d="M4.42356 6.00005L8.28236 2.61512C8.28236 2.61512 8.28237 2.61511 8.28237 2.61511C9.62624 1.43625 11.5 2.53392 11.5 4.1351V17.865C11.5 19.4661 9.62624 20.5639 8.28234 19.385L4.42355 16H2.9C1.25067 16 0 14.608 0 13V9.00005C0 7.39215 1.25066 6.00005 2.9 6.00005H4.42356ZM4.8 15H2.9C1.85066 15 1 14.1046 1 13V9.00005C1 7.89548 1.85066 7.00005 2.9 7.00005H4.8L8.94181 3.36687C9.56054 2.8241 10.5 3.28726 10.5 4.1351V17.865C10.5 18.7128 9.56054 19.176 8.94181 18.6332L4.8 15Z" fill="#053CAB"/>
<path d="M15.06 7.39948C14.7448 6.95789 14.1494 6.8688 13.7299 7.20049C13.3103 7.53218 13.2257 8.15904 13.5408 8.60063C14.0178 9.26905 14.3001 10.0985 14.3001 11.0001C14.3001 11.9017 14.0178 12.7311 13.5408 13.3995C13.2257 13.8411 13.3103 14.468 13.7299 14.7997C14.1494 15.1314 14.7448 15.0423 15.06 14.6007C15.7756 13.5978 16.2001 12.3497 16.2001 11.0001C16.2001 9.65045 15.7756 8.40236 15.06 7.39948Z" fill="#002060"/>
<path d="M18.985 17.5003L21.7693 14.716C22.0769 14.4084 22.0769 13.9096 21.7693 13.6025L21.3981 13.2313C21.0904 12.9236 20.5916 12.9236 20.2845 13.2313L17.5003 16.0155L14.716 13.2307C14.4084 12.9231 13.9096 12.9231 13.6025 13.2307L13.2307 13.6019C12.9231 13.9096 12.9231 14.4084 13.2307 14.7155L16.0155 17.5003L13.2313 20.2845C12.9236 20.5922 12.9236 21.0909 13.2313 21.3981L13.6025 21.7693C13.9101 22.0769 14.4089 22.0769 14.716 21.7693L17.5003 18.985L20.2845 21.7693C20.5922 22.0769 21.0909 22.0769 21.3981 21.7693L21.7693 21.3981C22.0769 21.0904 22.0769 20.5916 21.7693 20.2845L18.985 17.5003Z" fill="#FF0101"/>
</svg>
