<svg width="31" height="32" viewBox="0 0 31 32" fill="none" xmlns="http://www.w3.org/2000/svg">
    <g clip-path="url(#clip0_65_4048)">
        <path
            d="M16.7579 28.6402H11.6568L2.79566 23.0328L1.77148 15.2514L5.40274 13.0858L9.24056 4.71289L19.0897 3.50061L24.0244 9.18564L27.717 10.9552L29.2285 22.6821L16.7579 28.6402Z"
            fill="#968F96" />
        <path fill-rule="evenodd" clip-rule="evenodd"
            d="M17.2112 30.6402H11.0772L0.93502 24.2221L-0.383057 14.2077L3.84398 11.6868L7.88788 2.86431L19.9022 1.38553L25.2629 7.56134L29.5618 9.62145L31.3972 23.8625L17.2112 30.6402ZM24.0245 9.18565L19.0897 3.50062L9.24064 4.7129L5.40281 13.0858L1.77156 15.2514L2.79573 23.0328L11.6569 28.6402H16.7579L29.2285 22.6821L27.7171 10.9553L24.0245 9.18565Z"
            fill="#3E3631" />
        <path
            d="M16.7579 28.6402H11.6568L2.79566 23.0328L1.77148 15.2514L5.40274 13.0858L9.24056 4.71289L19.0897 3.50061L24.0244 9.18564L27.717 10.9552L29.2285 22.6821L16.7579 28.6402Z"
            fill="#968F96" />
        <path
            d="M10.8572 11.9135L12.2328 15.0195L10.0534 16.7354L5.40283 13.0861L9.24076 4.71289L10.8572 11.9135Z"
            fill="#685E68" />
        <path
            d="M11.6568 28.6399L2.79601 23.0332L1.77173 15.2517L10.0536 16.7354L12.5594 22.6822L11.6568 28.6399Z"
            fill="#685E68" />
        <path
            d="M29.2288 22.6822L16.7582 28.6399L16.1699 22.7571L19.7802 16.7353L27.7172 10.9553L29.2288 22.6822Z"
            fill="#685E68" />
        <path
            d="M24.0247 9.18547L19.7802 16.7351L16.7583 28.6396H11.6569L10.0537 16.7351L10.8575 11.9132L19.0902 3.50006L24.0247 9.18547Z"
            fill="#7F737F" />
        <path
            d="M26.5567 14.4477C26.3278 14.4477 26.1423 14.2347 26.1423 13.968V13.9615C26.1423 13.6948 26.3278 13.4786 26.5567 13.4786C26.7855 13.4786 26.971 13.6948 26.971 13.9615C26.971 14.2282 26.7855 14.4477 26.5567 14.4477Z"
            fill="#685E68" />
        <path
            d="M27.0974 16.0266C26.8685 16.0266 26.6831 15.8104 26.6831 15.5437V15.5373C26.6831 15.2705 26.8686 15.0543 27.0974 15.0543C27.3263 15.0543 27.5118 15.2705 27.5118 15.5373V15.5437C27.5118 15.8104 27.3263 16.0266 27.0974 16.0266Z"
            fill="#685E68" />
        <path
            d="M25.8704 15.8328C25.6415 15.8328 25.4561 15.6165 25.4561 15.3498V15.3434C25.4561 15.0767 25.6416 14.8604 25.8704 14.8604C26.0992 14.8604 26.2847 15.0767 26.2847 15.3434V15.3498C26.2848 15.6165 26.0993 15.8328 25.8704 15.8328Z"
            fill="#685E68" />
        <path
            d="M4.17751 22.3233C3.94868 22.3233 3.76318 22.1071 3.76318 21.8404V21.834C3.76318 21.5672 3.94868 21.351 4.17751 21.351C4.40633 21.351 4.59183 21.5672 4.59183 21.834V21.8404C4.59183 22.107 4.40633 22.3233 4.17751 22.3233Z"
            fill="#685E68" />
        <path
            d="M5.37526 23.1707C5.14643 23.1707 4.96094 22.9576 4.96094 22.6909V22.6845C4.96094 22.4178 5.14643 22.2015 5.37526 22.2015C5.60409 22.2015 5.78958 22.4178 5.78958 22.6845C5.78958 22.9512 5.60409 23.1707 5.37526 23.1707Z"
            fill="#685E68" />
        <path
            d="M5.40285 21.672C5.17402 21.672 4.98853 21.4589 4.98853 21.1922V21.1858C4.98853 20.9191 5.17402 20.7029 5.40285 20.7029C5.63168 20.7029 5.81717 20.9191 5.81717 21.1858C5.81717 21.4525 5.63168 21.672 5.40285 21.672Z"
            fill="#685E68" />
        <path
            d="M7.31398 13.0836C7.08515 13.0836 6.89966 12.8674 6.89966 12.6007V12.5943C6.89966 12.3275 7.08515 12.1113 7.31398 12.1113C7.54281 12.1113 7.7283 12.3275 7.7283 12.5943V12.6007C7.7283 12.8674 7.54281 13.0836 7.31398 13.0836Z"
            fill="#685E68" />
        <path
            d="M7.8279 11.7992C7.59907 11.7992 7.41357 11.5861 7.41357 11.3194V11.313C7.41357 11.0463 7.59907 10.83 7.8279 10.83C8.05672 10.83 8.24222 11.0463 8.24222 11.313C8.24222 11.5797 8.05672 11.7992 7.8279 11.7992Z"
            fill="#685E68" />
    </g>
    <defs>
        <clipPath id="clip0_65_4048">
            <rect width="31" height="31" fill="white" transform="translate(0 0.500061)" />
        </clipPath>
    </defs>
</svg>