<svg width="18" height="18" viewBox="0 0 18 18" fill="none" xmlns="http://www.w3.org/2000/svg">
<g clip-path="url(#clip0_373_1552)">
<path d="M9.57499 16.0786H6.66037L1.59733 12.8747L1.01215 8.42853L3.08696 7.19117L5.2798 2.40711L10.9073 1.71445L13.7269 4.96274L15.8368 5.97384L16.7004 12.6743L9.57499 16.0786Z" fill="#968F96"/>
<path fill-rule="evenodd" clip-rule="evenodd" d="M9.83397 17.2213H6.32918L0.534184 13.5542L-0.218933 7.8322L2.19629 6.39182L4.50688 1.35089L11.3715 0.505951L14.4346 4.03466L16.8908 5.21176L17.9395 13.3488L9.83397 17.2213ZM13.727 4.96275L10.9074 1.71446L5.27981 2.40713L3.08697 7.19118L1.01216 8.42855L1.59735 12.8747L6.66038 16.0786H9.57501L16.7004 12.6743L15.8368 5.97386L13.727 4.96275Z" fill="white"/>
<path d="M9.57499 16.0786H6.66037L1.59733 12.8747L1.01215 8.42853L3.08696 7.19117L5.2798 2.40711L10.9073 1.71445L13.7269 4.96274L15.8368 5.97384L16.7004 12.6743L9.57499 16.0786Z" fill="#968F96"/>
<path d="M6.20356 6.52138L6.98953 8.29609L5.74427 9.27648L3.08704 7.19141L5.27994 2.40714L6.20356 6.52138Z" fill="#685E68"/>
<path d="M6.6604 16.0785L1.59758 12.8749L1.01233 8.42877L5.74438 9.27648L7.17615 12.6743L6.6604 16.0785Z" fill="#685E68"/>
<path d="M16.7006 12.6743L9.57527 16.0785L9.23914 12.7172L11.3019 9.27647L15.837 5.97389L16.7006 12.6743Z" fill="#685E68"/>
<path d="M13.7271 4.96262L11.3019 9.27626L9.57521 16.0782H6.6604L5.74438 9.27626L6.20367 6.52117L10.9076 1.71411L13.7271 4.96262Z" fill="#7F737F"/>
<path d="M15.1737 7.96931C15.043 7.96931 14.937 7.84759 14.937 7.69519V7.69151C14.937 7.53911 15.043 7.41557 15.1737 7.41557C15.3045 7.41557 15.4105 7.53911 15.4105 7.69151C15.4105 7.84391 15.3045 7.96931 15.1737 7.96931Z" fill="#685E68"/>
<path d="M15.4827 8.87149C15.3519 8.87149 15.246 8.74795 15.246 8.59555V8.59187C15.246 8.43947 15.352 8.31593 15.4827 8.31593C15.6135 8.31593 15.7194 8.43947 15.7194 8.59187V8.59555C15.7194 8.74795 15.6135 8.87149 15.4827 8.87149Z" fill="#685E68"/>
<path d="M14.7817 8.76069C14.6509 8.76069 14.545 8.63715 14.545 8.48476V8.48108C14.545 8.32868 14.651 8.20514 14.7817 8.20514C14.9125 8.20514 15.0185 8.32868 15.0185 8.48108V8.48476C15.0185 8.63712 14.9125 8.76069 14.7817 8.76069Z" fill="#685E68"/>
<path d="M2.38688 12.4693C2.25613 12.4693 2.15015 12.3457 2.15015 12.1933V12.1897C2.15015 12.0373 2.25613 11.9137 2.38688 11.9137C2.51763 11.9137 2.62361 12.0373 2.62361 12.1897V12.1933C2.62361 12.3457 2.51763 12.4693 2.38688 12.4693Z" fill="#685E68"/>
<path d="M3.07127 12.9534C2.94052 12.9534 2.83453 12.8317 2.83453 12.6793V12.6756C2.83453 12.5232 2.94052 12.3997 3.07127 12.3997C3.20201 12.3997 3.308 12.5232 3.308 12.6756C3.308 12.828 3.20201 12.9534 3.07127 12.9534Z" fill="#685E68"/>
<path d="M3.08701 12.0971C2.95627 12.0971 2.85028 11.9754 2.85028 11.823V11.8193C2.85028 11.6669 2.95627 11.5434 3.08701 11.5434C3.21776 11.5434 3.32375 11.6669 3.32375 11.8193C3.32375 11.9717 3.21776 12.0971 3.08701 12.0971Z" fill="#685E68"/>
<path d="M4.17899 7.18997C4.04825 7.18997 3.94226 7.06643 3.94226 6.91403V6.91035C3.94226 6.75795 4.04825 6.63441 4.17899 6.63441C4.30974 6.63441 4.41573 6.75795 4.41573 6.91035V6.91403C4.41573 7.06643 4.30974 7.18997 4.17899 7.18997Z" fill="#685E68"/>
<path d="M4.47264 6.456C4.34189 6.456 4.2359 6.33428 4.2359 6.18188V6.17821C4.2359 6.02581 4.34189 5.90227 4.47264 5.90227C4.60338 5.90227 4.70937 6.02581 4.70937 6.17821C4.70937 6.3306 4.60338 6.456 4.47264 6.456Z" fill="#685E68"/>
</g>
<defs>
<clipPath id="clip0_373_1552">
<rect width="17.7126" height="17.7126" fill="white"/>
</clipPath>
</defs>
</svg>
