<svg width="30" height="27" viewBox="0 0 30 27" fill="none" xmlns="http://www.w3.org/2000/svg">
    <g clip-path="url(#clip0_45_589)">
        <g filter="url(#filter0_d_45_589)">
            <path fill-rule="evenodd" clip-rule="evenodd"
                d="M27.4068 8.76195L25.4139 2.50786C25.3475 2.29967 25.2072 2.11653 25.0144 1.98615C24.8215 1.85578 24.5865 1.78527 24.345 1.78528H19.2533L20.8096 8.76195H27.4068ZM27.6753 9.7586H1V10.7553C1 11.2839 1.23424 11.7909 1.6512 12.1648C2.06816 12.5386 2.63367 12.7486 3.22333 12.7486H6.55833C7.148 12.7486 7.71351 12.5386 8.13047 12.1648C8.54742 11.7909 8.78167 11.2839 8.78167 10.7553C8.78167 11.2839 9.01591 11.7909 9.43287 12.1648C9.84982 12.5386 10.4153 12.7486 11.005 12.7486H17.675C18.2647 12.7486 18.8302 12.5386 19.2471 12.1648C19.6641 11.7909 19.8983 11.2839 19.8983 10.7553C19.8983 11.2839 20.1326 11.7909 20.5495 12.1648C20.9665 12.5386 21.532 12.7486 22.1217 12.7486H25.4567C26.0463 12.7486 26.6118 12.5386 27.0288 12.1648C27.4458 11.7909 27.68 11.2839 27.68 10.7553V9.7586H27.6753ZM4.33497 1.78528H9.42668L7.87035 8.76195H1.27316L3.2661 2.50786C3.33252 2.29967 3.47277 2.11653 3.66562 1.98615C3.85847 1.85578 4.09344 1.78527 4.33497 1.78528ZM16.986 1.78528H11.6939L10.1376 8.76195H18.5424L16.986 1.78528ZM19.8983 12.9821C20.5088 13.474 21.3008 13.7459 22.1217 13.7453H25.4567C25.8356 13.7446 26.2116 13.6856 26.5683 13.5709V24.7086C26.5683 24.9729 26.4512 25.2265 26.2427 25.4134C26.0342 25.6003 25.7515 25.7053 25.4567 25.7053H13.2283V16.7353C13.2283 16.4709 13.1112 16.2174 12.9027 16.0305C12.6942 15.8436 12.4115 15.7386 12.1167 15.7386H6.55832C6.26349 15.7386 5.98073 15.8436 5.77225 16.0305C5.56377 16.2174 5.44665 16.4709 5.44665 16.7353V25.7053H3.22332C2.92849 25.7053 2.64573 25.6003 2.43725 25.4134C2.22877 25.2265 2.11165 24.9729 2.11165 24.7086V13.5709C2.46836 13.6856 2.84437 13.7446 3.22332 13.7453H6.55832C7.37915 13.7459 8.17116 13.474 8.78165 12.9821C9.39214 13.474 10.1842 13.7459 11.005 13.7453H17.675C18.4958 13.7459 19.2878 13.474 19.8983 12.9821ZM22.9077 20.43C23.1162 20.2431 23.2333 19.9896 23.2333 19.7253V16.7353C23.2333 16.4709 23.1162 16.2174 22.9077 16.0305C22.6992 15.8436 22.4165 15.7386 22.1217 15.7386H16.5633C16.2685 15.7386 15.9857 15.8436 15.7773 16.0305C15.5688 16.2174 15.4517 16.4709 15.4517 16.7353V19.7253C15.4517 19.9896 15.5688 20.2431 15.7773 20.43C15.9857 20.6169 16.2685 20.7219 16.5633 20.7219H22.1217C22.4165 20.7219 22.6992 20.6169 22.9077 20.43Z"
                fill="white" />
        </g>
    </g>
    <defs>
        <filter id="filter0_d_45_589" x="1" y="1.78528" width="28.6799" height="24.92"
            filterUnits="userSpaceOnUse" color-interpolation-filters="sRGB">
            <feFlood flood-opacity="0" result="BackgroundImageFix" />
            <feColorMatrix in="SourceAlpha" type="matrix"
                values="0 0 0 0 0 0 0 0 0 0 0 0 0 0 0 0 0 0 127 0" result="hardAlpha" />
            <feOffset dx="2" dy="1" />
            <feComposite in2="hardAlpha" operator="out" />
            <feColorMatrix type="matrix"
                values="0 0 0 0 0 0 0 0 0 0.184314 0 0 0 0 0.552941 0 0 0 1 0" />
            <feBlend mode="normal" in2="BackgroundImageFix" result="effect1_dropShadow_45_589" />
            <feBlend mode="normal" in="SourceGraphic" in2="effect1_dropShadow_45_589" result="shape" />
        </filter>
        <clipPath id="clip0_45_589">
            <rect width="30" height="26" fill="white" transform="translate(0 0.499985)" />
        </clipPath>
    </defs>
</svg>