<svg width="55" height="56" viewBox="0 0 55 56" fill="none" xmlns="http://www.w3.org/2000/svg">
    <g clip-path="url(#clip0_567_3502)">
        <path
            d="M48.2242 14.0152C47.7855 13.7136 47.2285 13.6716 46.7579 13.8838L46.6987 13.514C46.6339 13.1086 46.4057 12.7474 46.0673 12.5148L38.524 7.32906C38.3847 7.2333 38.233 7.16348 38.0756 7.1198C37.9211 6.91049 37.7102 6.73889 37.454 6.63051L34.7347 5.47997L34.7286 5.39916C34.6942 4.94306 34.4536 4.52756 34.0752 4.27071L32.0616 2.90418C32.0601 2.90315 32.0586 2.90211 32.0571 2.90108C31.525 2.53666 30.8231 2.30855 30.1759 2.24912C29.6151 2.19762 28.5178 2.2282 27.8088 3.11248C27.801 3.12224 27.7933 3.1321 27.7857 3.14205L15.1881 19.6876L2.11055 33.803C2.08621 33.8293 2.06282 33.8564 2.04042 33.8844C1.74865 34.2484 1.57736 34.7103 1.47628 35.0404C1.36089 35.4172 1.27302 35.8411 1.22481 36.2569C1.17778 36.6627 1.16035 37.1296 1.22556 37.5724C1.27698 37.9216 1.43839 38.6935 2.13075 39.1695L2.13085 39.1695L3.10941 39.8422L3.10967 39.8423L3.67879 40.2337L3.67907 40.2339L5.92857 41.7801C6.23849 41.9931 6.60827 42.077 6.96526 42.0322C7.05149 42.3825 7.26302 42.6975 7.57202 42.91L10.0599 44.6205C10.2826 44.7737 10.5345 44.8593 10.7894 44.8797C10.8996 45.1101 11.0696 45.3144 11.2923 45.4675L13.1856 46.7693C13.3374 46.8736 13.5026 46.9466 13.6729 46.989C13.7834 47.1278 13.9195 47.2482 14.0772 47.3424L15.9911 48.4856C16.0345 48.5115 16.0789 48.5351 16.1241 48.5563C16.1728 48.6013 16.2247 48.6434 16.2796 48.682L17.6523 49.6486C17.7177 49.6946 17.7856 49.7347 17.8556 49.7691C17.9176 49.8391 17.9867 49.9038 18.0621 49.962L19.0265 50.706C19.1456 50.7979 19.2762 50.8702 19.4138 50.922C19.4719 50.9777 19.5349 51.0291 19.6024 51.0755L20.5388 51.7191C20.6874 51.8212 20.8481 51.893 21.0134 51.9356C21.0355 51.9561 21.0583 51.976 21.0816 51.9953L22.5271 53.1842C22.5603 53.2115 22.5947 53.2374 22.6301 53.2618C23.8351 54.0904 25.5466 53.8908 26.4895 52.7138C26.4991 52.7017 26.5086 52.6895 26.5178 52.6772L38.8671 36.2474L51.8878 20.0015C52.8898 18.7514 52.5617 16.9972 51.2929 16.1247L51.2927 16.1246L48.2242 14.0152Z"
            fill="#7C472A" stroke="#3E3631" stroke-width="3" stroke-linejoin="round" />
        <path
            d="M37.682 35.3276L50.7174 19.0634C51.1496 18.5242 51.0265 17.7619 50.443 17.3607L47.3745 15.2514L45.1045 16.9887L45.3903 14.8315L45.2176 13.7509L37.6742 8.56515L36.3703 9.35942L36.8696 8.01195L33.3076 6.50493L33.2328 5.51186L31.2117 4.14017C30.6282 3.73896 29.4114 3.51162 28.9792 4.05073L16.3377 20.6539L3.21089 34.8225C2.77883 35.3616 2.39693 37.5322 2.98052 37.9334L3.95934 38.6062L4.52873 38.9977L6.77822 40.5439L8.07631 39.6302L9.45689 38.2662L8.71875 40.0719L8.42186 41.6739L10.9098 43.3845L14.3746 40.0226C14.3746 40.0226 12.9805 41.2459 12.3049 42.5375C12.3049 42.5375 12.2272 44.0401 12.1421 44.2314L14.0355 45.5332L14.8764 44.665L15.004 44.393L14.8464 46.0546L16.7603 47.1978L17.042 45.7939L17.1432 47.4556L18.5159 48.4221L18.9971 47.959L18.9784 48.7744L19.9427 49.5183L20.0749 49.218L20.4483 49.1471L20.452 49.8393L21.3884 50.4829L21.6526 50.1301L21.8251 50.245L22.0345 50.8368L23.48 52.0258C24.0635 52.427 24.8868 52.3152 25.3188 51.776L37.682 35.3276Z"
            fill="#7C472A" />
        <path
            d="M36.7575 33.6405L49.3836 18.1456C49.8019 17.632 49.6843 16.9066 49.1204 16.5253L46.1559 14.5208L44.2916 16.5005L45.0367 13.764L42.0131 11.7196L39.6904 14.2445C39.6904 14.2445 41.1131 12.0499 41.4395 11.3317L37.4761 8.6518L35.0318 10.1161L36.6694 8.10633L33.6581 6.07025C32.9336 6.78094 32.0004 7.70655 31.796 7.95937C31.9591 7.67544 32.5831 6.48633 33.0243 5.64166L30.5397 3.9615C29.9758 3.5801 29.1792 3.68756 28.7609 4.20111L16.135 19.696L2.93347 34.5371C2.5149 35.0507 2.63275 35.776 3.19663 36.1573L7.81006 39.2769L9.19381 37.9322L8.45398 39.7122L10.8577 41.3376L14.2567 38.5715C14.2567 38.5715 12.3781 41.4135 12.0484 42.1427L15.9573 44.7857L18.4994 43.2626L16.7962 45.3529L19.7975 47.3825C20.5313 46.6634 21.5234 45.6811 21.735 45.4193C21.5658 45.7137 20.9012 46.9815 20.4584 47.8294L23.0026 49.5493C23.5662 49.9305 24.3628 49.8234 24.781 49.3097L36.7575 33.6405Z"
            fill="#AB6739" />
        <path d="M4.48975 37.1103L5.03657 37.4872L32.6375 5.1693L31.8961 4.6582L4.48975 37.1103Z"
            fill="#7F4B28" />
        <path
            d="M35.5356 7.16818L34.7688 6.63928L7.19531 38.9759L8.13344 39.6227L9.50832 38.2604L9.36557 38.6104L35.5356 7.16818Z"
            fill="#7F4B28" />
        <path d="M14.3047 43.8778L15.0321 44.3795L39.5812 9.95764L38.3504 9.10864L14.3047 43.8778Z"
            fill="#7F4B28" />
        <path
            d="M48.1888 15.8925L37.7371 29.234L21.6167 48.9195L22.2254 49.3393C25.0499 45.7915 36.8232 31.0604 41.7191 25.8467C45.4805 21.8413 48.0086 18.4338 49.2583 16.6361C49.2315 16.6142 49.2045 16.5928 49.1755 16.5727L48.1888 15.8925Z"
            fill="#7F4B28" />
        <path
            d="M43.9626 13.5891L44.2684 12.8183L43.7407 12.4443L17.6265 43.8819L16.0977 45.8487L18.1295 47.2888L43.9626 13.5891Z"
            fill="#7F4B28" />
    </g>
    <defs>
        <clipPath id="clip0_567_3502">
            <rect width="55" height="56" fill="white" />
        </clipPath>
    </defs>
</svg>