<svg width="56" height="56" viewBox="0 0 56 56" fill="none" xmlns="http://www.w3.org/2000/svg">
    <g clip-path="url(#clip0_685_661)">
        <path
            d="M48.7242 14.0154C48.2855 13.7138 47.7285 13.6717 47.2579 13.884L47.1987 13.5142C47.1339 13.1087 46.9057 12.7475 46.5673 12.5149L39.024 7.32921C38.8847 7.23345 38.733 7.16363 38.5756 7.11995C38.4211 6.91064 38.2102 6.73904 37.954 6.63066L35.2347 5.48012L35.2286 5.39932C35.1942 4.94321 34.9536 4.52771 34.5752 4.27086L32.5616 2.90434C32.5601 2.9033 32.5586 2.90227 32.5571 2.90123C32.025 2.53681 31.3231 2.30871 30.6759 2.24927C30.1151 2.19777 29.0178 2.22835 28.3088 3.11263C28.301 3.12239 28.2933 3.13225 28.2857 3.1422L15.6881 19.6878L2.61055 33.8032C2.58621 33.8294 2.56282 33.8566 2.54042 33.8845C2.24865 34.2486 2.07736 34.7104 1.97628 35.0405C1.86089 35.4174 1.77302 35.8412 1.72481 36.2571C1.67778 36.6628 1.66035 37.1297 1.72556 37.5725C1.77698 37.9217 1.93839 38.6936 2.63075 39.1696L2.63085 39.1697L3.60941 39.8423L3.60967 39.8425L4.17879 40.2339L4.17907 40.2341L6.42857 41.7802C6.73849 41.9932 7.10827 42.0771 7.46526 42.0324C7.55149 42.3827 7.76302 42.6976 8.07202 42.9101L10.5599 44.6207C10.7826 44.7738 11.0345 44.8595 11.2894 44.8799C11.3996 45.1102 11.5696 45.3145 11.7923 45.4676L13.6856 46.7694C13.8374 46.8738 14.0026 46.9467 14.1729 46.9891C14.2834 47.128 14.4195 47.2483 14.5772 47.3426L16.4911 48.4858C16.5345 48.5117 16.5789 48.5352 16.6241 48.5564C16.6728 48.6015 16.7247 48.6435 16.7796 48.6822L18.1523 49.6487C18.2177 49.6947 18.2856 49.7349 18.3556 49.7692C18.4176 49.8393 18.4867 49.904 18.5621 49.9622L19.5265 50.7062C19.6456 50.798 19.7762 50.8703 19.9138 50.9222C19.9719 50.9779 20.0349 51.0293 20.1024 51.0757L21.0388 51.7192C21.1874 51.8213 21.3481 51.8931 21.5134 51.9358C21.5355 51.9563 21.5583 51.9762 21.5816 51.9954L23.0271 53.1844C23.0603 53.2117 23.0947 53.2376 23.1301 53.2619C24.3351 54.0905 26.0466 53.8909 26.9895 52.7139C26.9991 52.7019 27.0086 52.6897 27.0178 52.6774L39.3671 36.2476L52.3878 20.0017C53.3898 18.7515 53.0617 16.9974 51.7929 16.1249L51.7927 16.1248L48.7242 14.0154Z"
            fill="#7C472A" stroke="white" stroke-width="3" stroke-linejoin="round" />
        <path
            d="M38.182 35.3277L51.2174 19.0635C51.6496 18.5243 51.5265 17.7621 50.943 17.3609L47.8745 15.2515L45.6045 16.9889L45.8903 14.8317L45.7176 13.751L38.1742 8.5653L36.8703 9.35957L37.3696 8.0121L33.8076 6.50509L33.7328 5.51201L31.7117 4.14032C31.1282 3.73911 29.9114 3.51178 29.4792 4.05088L16.8377 20.6541L3.71089 34.8226C3.27883 35.3617 2.89693 37.5323 3.48052 37.9335L4.45934 38.6063L5.02873 38.9979L7.27822 40.544L8.57631 39.6304L9.95689 38.2664L9.21875 40.072L8.92186 41.6741L11.4098 43.3847L14.8746 40.0228C14.8746 40.0228 13.4805 41.2461 12.8049 42.5376C12.8049 42.5376 12.7272 44.0402 12.6421 44.2316L14.5355 45.5334L15.3764 44.6652L15.504 44.3931L15.3464 46.0548L17.2603 47.198L17.542 45.794L17.6432 47.4557L19.0159 48.4222L19.4971 47.9592L19.4784 48.7745L20.4427 49.5185L20.5749 49.2181L20.9483 49.1472L20.952 49.8395L21.8884 50.483L22.1526 50.1303L22.3251 50.2451L22.5345 50.837L23.98 52.0259C24.5635 52.4271 25.3868 52.3153 25.8188 51.7761L38.182 35.3277Z"
            fill="#7C472A" />
        <path
            d="M37.2575 33.6407L49.8836 18.1458C50.3019 17.6322 50.1843 16.9067 49.6204 16.5254L46.6559 14.5209L44.7916 16.5006L45.5367 13.7642L42.5131 11.7197L40.1904 14.2447C40.1904 14.2447 41.6131 12.05 41.9395 11.3319L37.9761 8.65195L35.5318 10.1163L37.1694 8.10648L34.1581 6.07041C33.4336 6.78109 32.5004 7.70671 32.296 7.95952C32.4591 7.67559 33.0831 6.48648 33.5243 5.64181L31.0397 3.96165C30.4758 3.58025 29.6792 3.68771 29.2609 4.20127L16.635 19.6962L3.43347 34.5372C3.0149 35.0509 3.13275 35.7762 3.69663 36.1575L8.31006 39.277L9.69381 37.9323L8.95398 39.7124L11.3577 41.3378L14.7567 38.5716C14.7567 38.5716 12.8781 41.4137 12.5484 42.1428L16.4573 44.7858L18.9994 43.2627L17.2962 45.3531L20.2975 47.3826C21.0313 46.6636 22.0234 45.6812 22.235 45.4195C22.0658 45.7138 21.4012 46.9817 20.9584 47.8296L23.5026 49.5495C24.0662 49.9306 24.8628 49.8235 25.281 49.3099L37.2575 33.6407Z"
            fill="#AB6739" />
        <path d="M4.98975 37.1104L5.53657 37.4873L33.1375 5.16939L32.3961 4.65829L4.98975 37.1104Z"
            fill="#7F4B28" />
        <path
            d="M36.0356 7.1683L35.2688 6.6394L7.69531 38.976L8.63344 39.6229L10.0083 38.2605L9.86557 38.6105L36.0356 7.1683Z"
            fill="#7F4B28" />
        <path d="M14.8047 43.8779L15.5321 44.3795L40.0812 9.9577L38.8504 9.1087L14.8047 43.8779Z"
            fill="#7F4B28" />
        <path
            d="M48.6888 15.8926L38.2371 29.2341L22.1167 48.9197L22.7254 49.3394C25.5499 45.7916 37.3232 31.0605 42.2191 25.8468C45.9805 21.8414 48.5086 18.4339 49.7583 16.6362C49.7315 16.6143 49.7045 16.5929 49.6755 16.5728L48.6888 15.8926Z"
            fill="#7F4B28" />
        <path
            d="M44.4626 13.5892L44.7684 12.8184L44.2407 12.4444L18.1265 43.882L16.5977 45.8488L18.6295 47.2889L44.4626 13.5892Z"
            fill="#7F4B28" />
    </g>
    <defs>
        <clipPath id="clip0_685_661">
            <rect width="55" height="56" fill="white" transform="translate(0.5)" />
        </clipPath>
    </defs>
</svg>