<svg width="28" height="33" viewBox="0 0 28 33" fill="none" xmlns="http://www.w3.org/2000/svg">
    <g clip-path="url(#clip0_65_3925)">
        <path
            d="M27.5339 27.5C27.5339 25.5 26.5339 24.3334 26.0339 24L22.0338 25C21.8672 27.5 22.2339 32.5 25.0339 32.5C28.5339 32.5 27.5339 30 27.5339 27.5Z"
            fill="#875230" />
        <path fill-rule="evenodd" clip-rule="evenodd"
            d="M21.3365 11.9237C21.8495 12.3384 22.1775 12.9728 22.1775 13.6838C22.1775 14.7194 21.4815 15.5925 20.5318 15.8609C20.4515 17.2363 19.9464 18.4976 19.1457 19.5155C19.2536 19.7915 19.2601 20.1083 19.1381 20.4058L17.2744 24.9526C17.1549 25.244 16.7988 25.3536 16.5361 25.1798L14 23.5009L15.4338 21.859C14.9724 21.9622 14.4926 22.0166 14 22.0166C13.5075 22.0166 13.0277 21.9622 12.5662 21.8591L14 23.5009L11.4639 25.1798C11.2012 25.3536 10.8451 25.244 10.7256 24.9526L8.86187 20.4058C8.73994 20.1083 8.74649 19.7915 8.8543 19.5155C8.0536 18.4976 7.54844 17.2363 7.46815 15.8608C6.51851 15.5925 5.82255 14.7194 5.82255 13.6838C5.82255 12.9728 6.15059 12.3384 6.66359 11.9237C6.03604 11.7492 5.66742 11.0933 5.85066 10.4627L5.8573 10.4398C6.01338 9.90269 6.52075 9.55938 7.06123 9.59438C7.27478 7.8677 8.11786 6.33611 9.35371 5.23636L9.23657 4.82298C9.14818 4.51114 9.32936 4.18667 9.64126 4.09828C9.94851 4.01119 10.268 4.18578 10.3619 4.48926C10.914 4.1522 11.5165 3.88955 12.1555 3.71526C12.1987 3.04608 12.756 2.50003 13.4544 2.50003L13.7108 2.50003L14.2894 2.50003L14.5457 2.50003C15.2441 2.50003 15.8014 3.04608 15.8447 3.71527C16.4836 3.88957 17.0861 4.15221 17.6382 4.48926C17.7321 4.18578 18.0516 4.01119 18.3588 4.09828C18.6707 4.18667 18.8519 4.51114 18.7635 4.82299L18.6464 5.23635C18.9155 5.47585 19.166 5.73583 19.3954 6.01384C20.2196 7.01244 20.7718 8.24373 20.9388 9.59439C21.4794 9.55934 21.9868 9.9027 22.1429 10.4398L22.1495 10.4627C22.3327 11.0933 21.964 11.7492 21.3365 11.9237ZM24.6401 29.8545C24.684 29.9902 24.73 30.1255 24.7782 30.2602C24.8062 30.3388 24.8343 30.4181 24.8612 30.4973C24.8393 30.4995 24.8167 30.5 24.7941 30.5L22.8071 30.5L21.8298 30.5L20.4599 30.5L20.4599 30.5L14 30.5L14 30.4774C14 29.1945 14.4277 27.9563 15.2034 26.9518L20.4599 26.9518L20.4599 21.2685C20.4599 21.0528 20.6841 20.9107 20.8796 21.0019C21.4879 21.2859 22.0608 21.6323 22.5908 22.0328C22.7003 22.1156 22.7736 22.2359 22.7981 22.3686C23.0402 22.5673 23.2724 22.7777 23.4937 22.9989L23.4997 23.005C23.8204 23.3263 23.9992 23.7592 24.0058 24.208C24.0069 24.2636 24.0053 24.3192 24.0009 24.3747C23.9706 24.7515 23.9552 25.13 23.9552 25.5079C23.9552 25.9896 23.9798 26.4715 24.0291 26.9518L24.0296 26.9518C24.1232 27.8637 24.3054 28.7697 24.5778 29.6567C24.5981 29.7228 24.6189 29.7887 24.6401 29.8545Z"
            fill="url(#paint0_linear_65_3925)" />
        <path
            d="M24.0699 9.90407C24.2955 10.6807 24.2114 11.4724 23.8919 12.1478C24.0762 12.6243 24.1775 13.1423 24.1775 13.6838C24.1775 15.1229 23.4652 16.3928 22.3755 17.1641C22.2335 17.8707 22.0043 18.546 21.6999 19.1778L21.7251 19.1894C22.4623 19.5335 23.1561 19.9532 23.7966 20.4372C24.0516 20.63 24.265 20.8667 24.4285 21.132C24.5926 21.2783 24.7524 21.4293 24.9079 21.5847L24.9153 21.5921C25.6081 22.2862 25.9902 23.2159 26.0055 24.1736C26.0077 24.2935 26.0041 24.4131 25.9947 24.5323L25.9945 24.5348C25.9684 24.8593 25.9552 25.1843 25.9552 25.5079C25.9552 25.9075 25.9749 26.3072 26.0144 26.7056C26.0161 26.7195 26.0177 26.7336 26.0191 26.7477C26.0995 27.531 26.256 28.3086 26.4897 29.0697C26.5071 29.1263 26.5249 29.1828 26.5431 29.2391C26.5808 29.3555 26.6203 29.4718 26.6616 29.5875C26.6904 29.6681 26.7227 29.7593 26.7546 29.853C26.9511 30.4305 26.8733 31.0662 26.5433 31.5792C26.2133 32.0923 25.6672 32.4267 25.0602 32.4874C24.9419 32.4992 24.8435 32.5 24.7941 32.5L20.4599 32.5L20.4447 32.5L14 32.5C12.8955 32.5 12 31.6045 12 30.5L12 30.4774C12 29.0633 12.3858 27.6898 13.0981 26.4965L12.5679 26.8474C11.254 27.717 9.47273 27.1692 8.87506 25.7111L7.01131 21.1643C6.85914 20.793 6.78219 20.4093 6.7729 20.0307C6.2279 19.1678 5.8326 18.1996 5.62447 17.164C4.53484 16.3927 3.82256 15.1228 3.82256 13.6838C3.82256 13.1423 3.92392 12.6242 4.10821 12.1477C3.78866 11.4723 3.7044 10.6814 3.9301 9.90462L3.93674 9.88179C4.1669 9.09014 4.67902 8.45468 5.33378 8.05611C5.69706 6.74483 6.34926 5.55512 7.2157 4.55968C7.25894 3.4717 7.99159 2.48708 9.09585 2.17409C9.57493 2.03831 10.0607 2.04679 10.5068 2.17368C10.5398 2.15976 10.5729 2.14603 10.6061 2.13249C11.1755 1.16238 12.2278 0.50003 13.4544 0.50003L14.5457 0.50003C15.7723 0.50003 16.8247 1.16239 17.3941 2.13252C17.4272 2.14605 17.4603 2.15977 17.4933 2.17368C17.9394 2.04678 18.4251 2.03828 18.9042 2.17408C20.0085 2.48707 20.7411 3.47166 20.7844 4.55961C20.8364 4.61932 20.8876 4.67972 20.938 4.74081C21.7279 5.69803 22.3247 6.82357 22.6662 8.05603C23.3212 8.45468 23.8333 9.08988 24.0634 9.88175L24.0699 9.90407Z"
            fill="#875230" />
        <path
            d="M0.08 26C0.08 24.4 3.74667 20.6667 5.58 19L7.57996 15L15.58 33H1.08C-0.42 33 0.08 28 0.08 26Z"
            fill="#875230" />
        <path
            d="M24.9536 30.5H3.04647C2.52517 30.5 2.10254 30.0773 2.10254 29.556C2.10254 24.52 6.18505 20.4375 11.2212 20.4375H16.7789C21.815 20.4375 25.8975 24.52 25.8975 29.556C25.8975 30.0774 25.4749 30.5 24.9536 30.5Z"
            fill="url(#paint1_linear_65_3925)" />
        <path
            d="M25.8974 29.5561C25.8974 24.52 21.8149 20.4374 16.7788 20.4374H11.2211C11.1286 20.4374 11.0366 20.4392 10.9448 20.442V25.2046L16.2402 30.5H24.9535C25.4748 30.5 25.8974 30.0774 25.8974 29.5561Z"
            fill="url(#paint2_linear_65_3925)" />
        <path
            d="M2.10254 29.556C2.10254 30.0774 2.52517 30.5 3.04647 30.5H24.9536C25.4749 30.5 25.8975 30.0773 25.8975 29.556C25.8975 28.424 25.6906 27.3404 25.3136 26.3403H2.68642C2.30941 27.3404 2.10254 28.424 2.10254 29.556Z"
            fill="url(#paint3_linear_65_3925)" />
        <path
            d="M14 23.501C15.458 23.501 16.64 22.319 16.64 20.861C16.64 19.403 15.458 18.221 14 18.221C12.542 18.221 11.36 19.403 11.36 20.861C11.36 22.319 12.542 23.501 14 23.501Z"
            fill="url(#paint4_linear_65_3925)" />
        <path
            d="M14 23.501C15.458 23.501 16.64 22.319 16.64 20.861C16.64 19.403 15.458 18.221 14 18.221C12.542 18.221 11.36 19.403 11.36 20.861C11.36 22.319 12.542 23.501 14 23.501Z"
            fill="url(#paint5_linear_65_3925)" />
        <path
            d="M23.5167 30.5H24.9536C25.4749 30.5 25.8975 30.0773 25.8975 29.556C25.8975 27.1891 24.9955 25.0329 23.5167 23.4121V30.5Z"
            fill="url(#paint6_linear_65_3925)" />
        <path
            d="M12.3107 26.3991L11.2545 25.3434C10.1483 24.2366 9.34844 22.8817 8.90889 21.4091C8.84125 21.1825 8.68885 21.0064 8.49795 20.903C8.28504 20.7869 8.02376 20.7611 7.77841 20.8573C6.5407 21.3408 5.42948 22.0758 4.50641 22.9989C4.50422 23.0011 4.50257 23.0027 4.50037 23.0049C4.17969 23.3262 4.00088 23.7591 3.99429 24.208C3.99319 24.2636 3.99484 24.3191 3.99923 24.3747C4.02948 24.7515 4.04491 25.13 4.04491 25.5079C4.04491 27.1125 3.77205 28.7199 3.22198 30.2602C3.19393 30.3388 3.16587 30.4181 3.13892 30.4972C3.16093 30.4994 3.1835 30.5 3.20601 30.5H14.0001V30.4774C14.0001 28.9477 13.3922 27.4811 12.3107 26.3991Z"
            fill="url(#paint7_linear_65_3925)" />
        <path
            d="M6.92584 30.5H11.0516V25.1339C10.0501 24.0674 9.3211 22.79 8.90889 21.4091C8.84126 21.1825 8.68885 21.0064 8.49795 20.903C8.28504 20.7869 8.02377 20.7611 7.77841 20.8573C7.48682 20.9712 7.20249 21.0996 6.92578 21.2406L6.92584 30.5Z"
            fill="url(#paint8_linear_65_3925)" />
        <path
            d="M7.54022 21.2685V30.5H5.19299V22.4676C5.19299 22.2968 5.27315 22.1358 5.40936 22.0328C5.93928 21.6323 6.51218 21.2859 7.12049 21.002C7.31594 20.9108 7.54022 21.0528 7.54022 21.2685Z"
            fill="url(#paint9_linear_65_3925)" />
        <path
            d="M3.22198 30.2602C3.19393 30.3389 3.16587 30.4181 3.13892 30.4972C3.16093 30.4994 3.1835 30.5 3.20601 30.5H14.0001V30.4774C14.0001 29.1945 13.5724 27.9563 12.7967 26.9518H3.97052C3.85561 28.0716 3.60696 29.1823 3.22198 30.2602Z"
            fill="url(#paint10_linear_65_3925)" />
        <path
            d="M15.6893 26.3991L16.7455 25.3434C17.8518 24.2366 18.6516 22.8817 19.0912 21.4091C19.1588 21.1825 19.3112 21.0064 19.5021 20.903C19.715 20.7869 19.9763 20.7611 20.2217 20.8573C21.4594 21.3408 22.5706 22.0758 23.4936 22.9989L23.4997 23.0049C23.8204 23.3262 23.9992 23.7591 24.0058 24.208C24.0069 24.2636 24.0052 24.3191 24.0008 24.3747C23.9706 24.7515 23.9552 25.13 23.9552 25.5079C23.9552 27.1125 24.228 28.7199 24.7781 30.2602C24.8061 30.3388 24.8342 30.4181 24.8611 30.4972C24.8391 30.4994 24.8166 30.5 24.7941 30.5H14V30.4774C14 28.9477 14.6079 27.4811 15.6893 26.3991Z"
            fill="url(#paint11_linear_65_3925)" />
        <path
            d="M23.9552 25.5079C23.9552 25.13 23.9706 24.7515 24.0009 24.3747C24.0053 24.3192 24.0069 24.2636 24.0058 24.2081C23.9992 23.7592 23.8204 23.3263 23.4997 23.005C23.4975 23.0028 23.4959 23.0011 23.4937 22.9989C22.9916 22.4968 22.4334 22.0509 21.8298 21.6703V30.5H24.7942C24.8167 30.5 24.8393 30.4995 24.8612 30.4973C24.8343 30.4181 24.8062 30.3388 24.7782 30.2602C24.228 28.7199 23.9552 27.1125 23.9552 25.5079Z"
            fill="url(#paint12_linear_65_3925)" />
        <path
            d="M20.4598 21.2685V30.5H22.8071V22.4676C22.8071 22.2968 22.727 22.1358 22.5907 22.0328C22.0608 21.6323 21.4879 21.2859 20.8796 21.002C20.6841 20.9108 20.4598 21.0528 20.4598 21.2685Z"
            fill="url(#paint13_linear_65_3925)" />
        <path
            d="M24.7781 30.2602C24.8061 30.3389 24.8342 30.4181 24.8611 30.4972C24.8391 30.4994 24.8166 30.5 24.7941 30.5H14V30.4774C14 29.1945 14.4276 27.9563 15.2034 26.9518H24.0295C24.1445 28.0716 24.3931 29.1823 24.7781 30.2602Z"
            fill="url(#paint14_linear_65_3925)" />
        <path
            d="M14 23.5009L9.83449 18.7311L9.58298 18.8171C8.93014 19.0403 8.60013 19.7674 8.86179 20.4058L10.7255 24.9526C10.845 25.244 11.2011 25.3536 11.4638 25.1798L14 23.5009Z"
            fill="url(#paint15_linear_65_3925)" />
        <path
            d="M14 23.5009L18.1655 18.7311L18.417 18.8171C19.0698 19.0403 19.3998 19.7674 19.1381 20.4058L17.2744 24.9526C17.1549 25.244 16.7988 25.3536 16.5361 25.1798L14 23.5009Z"
            fill="url(#paint16_linear_65_3925)" />
        <path
            d="M5.82251 13.6838C5.82251 12.6141 6.56506 11.7178 7.56285 11.4823C7.82956 11.4193 8.08453 11.6256 8.08453 11.8996V15.4681C8.08453 15.7421 7.82956 15.9483 7.56285 15.8854C6.56511 15.6499 5.82251 14.7536 5.82251 13.6838Z"
            fill="url(#paint17_linear_65_3925)" />
        <path
            d="M22.1774 13.6838C22.1774 12.6141 21.4349 11.7178 20.4371 11.4823C20.1704 11.4193 19.9154 11.6256 19.9154 11.8996V15.4681C19.9154 15.7421 20.1704 15.9483 20.4371 15.8854C21.4348 15.6499 22.1774 14.7536 22.1774 13.6838Z"
            fill="url(#paint18_linear_65_3925)" />
        <path
            d="M13.9999 22.0166C10.3862 22.0166 7.45679 19.0872 7.45679 15.4735V12.1181C7.45679 8.50444 10.3862 5.57498 13.9999 5.57498C17.6135 5.57498 20.543 8.50444 20.543 12.1181V15.4735C20.5431 19.0872 17.6136 22.0166 13.9999 22.0166Z"
            fill="url(#paint19_linear_65_3925)" />
        <path
            d="M13.9999 5.57483C10.3862 5.57483 7.45679 8.50429 7.45679 12.1179V15.4734C7.45679 15.7656 7.47622 16.0533 7.51334 16.3353H20.4865C20.5236 16.0532 20.543 15.7656 20.543 15.4734V12.1179C20.5431 8.50429 17.6136 5.57483 13.9999 5.57483Z"
            fill="url(#paint20_linear_65_3925)" />
        <path
            d="M16.0039 19.123H11.9961C11.8445 19.123 11.7216 19.0001 11.7216 18.8485C11.7216 17.8934 12.4958 17.1191 13.451 17.1191H14.549C15.5041 17.1191 16.2784 17.8934 16.2784 18.8485C16.2784 19.0001 16.1555 19.123 16.0039 19.123Z"
            fill="url(#paint21_linear_65_3925)" />
        <path
            d="M14.3614 17.1191H13.6385C13.036 17.1191 12.5799 16.5747 12.6854 15.9815L13.0998 13.6518H14.9001L15.3145 15.9815C15.4201 16.5747 14.9639 17.1191 14.3614 17.1191Z"
            fill="url(#paint22_linear_65_3925)" />
        <path
            d="M11.0995 15.0917C10.5743 15.0917 10.1486 14.666 10.1486 14.1408V13.6532C10.1486 13.1281 10.5743 12.7023 11.0995 12.7023C11.6246 12.7023 12.0504 13.128 12.0504 13.6532V14.1408C12.0504 14.666 11.6247 15.0917 11.0995 15.0917Z"
            fill="url(#paint23_linear_65_3925)" />
        <path
            d="M16.9005 15.0917C16.3753 15.0917 15.9496 14.666 15.9496 14.1408V13.6532C15.9496 13.1281 16.3753 12.7023 16.9005 12.7023C17.4256 12.7023 17.8514 13.128 17.8514 13.6532V14.1408C17.8513 14.666 17.4256 15.0917 16.9005 15.0917Z"
            fill="url(#paint24_linear_65_3925)" />
        <path
            d="M20.6839 11.1759C20.6416 11.3529 20.5167 11.5005 20.3453 11.5618C20.3445 11.5621 20.3436 11.5624 20.3427 11.5627C19.5327 11.8504 18.6703 11.4483 18.7238 10.8058C18.7918 9.99491 18.2284 9.20861 17.1871 8.90648C17.1576 8.89792 17.1286 8.8899 17.0989 8.88243C17.521 8.23201 18.4686 7.3079 19.498 6.72308C19.5756 6.81148 19.6502 6.9013 19.7208 6.99315C20.6902 8.24085 21.0294 9.73006 20.6839 11.1759Z"
            fill="url(#paint25_linear_65_3925)" />
        <path
            d="M10.9013 8.88259C10.8716 8.89005 10.8426 8.89801 10.8131 8.90663C9.77179 9.20876 9.20827 9.99512 9.27635 10.8059C9.32988 11.4484 8.46748 11.8505 7.65746 11.5628C7.65652 11.5625 7.65565 11.5622 7.65471 11.5619C7.48765 11.5022 7.36088 11.361 7.31921 11.1886C6.94236 9.63068 7.36099 8.02238 8.50212 6.72324C9.53159 7.30805 10.4792 8.23216 10.9013 8.88259Z"
            fill="url(#paint26_linear_65_3925)" />
        <path
            d="M14 3.46939C10.1384 3.46939 7.00793 6.59985 7.00793 10.4614H20.9921C20.992 6.59985 17.8616 3.46939 14 3.46939Z"
            fill="url(#paint27_linear_65_3925)" />
        <path
            d="M14.0001 3.46939C12.6433 3.46939 11.3771 3.85623 10.3049 4.52505L10.4321 8.75552L12.1381 10.4615H20.9921C20.9921 6.59985 17.8616 3.46939 14.0001 3.46939Z"
            fill="url(#paint28_linear_65_3925)" />
        <path
            d="M14 3.46939C13.7117 3.46939 13.4274 3.48701 13.1482 3.521V9.09838L14.5113 10.4615H20.992C20.992 6.59985 17.8616 3.46939 14 3.46939Z"
            fill="url(#paint29_linear_65_3925)" />
        <path
            d="M17.9453 4.68835L16.7965 8.79294L18.465 10.4614H20.9921C20.9921 8.06356 19.7849 5.94797 17.9453 4.68835Z"
            fill="url(#paint30_linear_65_3925)" />
        <path
            d="M7.00793 10.4615H20.9921C20.9921 9.16594 20.6393 7.953 20.0252 6.91266H7.97476C7.36068 7.95294 7.00793 9.16589 7.00793 10.4615Z"
            fill="url(#paint31_linear_65_3925)" />
        <path
            d="M21.2959 11.9343C16.4819 13.0936 11.5181 13.0936 6.70417 11.9343C6.05204 11.7772 5.6635 11.1068 5.85066 10.4627C5.85286 10.455 5.85505 10.4475 5.8573 10.4398C6.03261 9.83651 6.65108 9.47773 7.26186 9.62487C11.7101 10.6963 16.2902 10.6963 20.7383 9.62487C21.3491 9.47773 21.9676 9.83657 22.1429 10.4398C22.1451 10.4475 22.1473 10.455 22.1495 10.4627C22.3366 11.1068 21.948 11.7772 21.2959 11.9343Z"
            fill="url(#paint32_linear_65_3925)" />
        <path
            d="M14.0001 9.42822C13.3443 9.42822 12.791 8.94031 12.7089 8.28961L12.1633 3.96438C12.0652 3.18713 12.671 2.50003 13.4545 2.50003H14.5458C15.3292 2.50003 15.9351 3.18713 15.837 3.96438L15.2914 8.28961C15.2093 8.94031 14.6559 9.42822 14.0001 9.42822Z"
            fill="url(#paint33_linear_65_3925)" />
        <path
            d="M14.0001 6.17336C13.6524 6.17336 13.359 5.91466 13.3154 5.56965L13.0262 3.2764C12.9742 2.86436 13.2954 2.50003 13.7108 2.50003H14.2894C14.7048 2.50003 15.026 2.86436 14.974 3.27645L14.6847 5.56971C14.6412 5.91466 14.3478 6.17336 14.0001 6.17336Z"
            fill="url(#paint34_linear_65_3925)" />
        <path
            d="M11.0056 8.91303C10.6937 9.00142 10.3693 8.82024 10.2809 8.50834L9.23663 4.823C9.14823 4.51115 9.32941 4.18668 9.64131 4.09829C9.95315 4.0099 10.2776 4.19107 10.366 4.50297L11.4103 8.18832C11.4987 8.50016 11.3175 8.82464 11.0056 8.91303Z"
            fill="url(#paint35_linear_65_3925)" />
        <path
            d="M16.9946 8.91303C17.3065 9.00142 17.6309 8.82024 17.7193 8.50834L18.7636 4.823C18.8519 4.51115 18.6708 4.18668 18.3589 4.09829C18.047 4.0099 17.7226 4.19107 17.6342 4.50297L16.5899 8.18832C16.5015 8.50016 16.6827 8.82464 16.9946 8.91303Z"
            fill="url(#paint36_linear_65_3925)" />
    </g>
    <defs>
        <linearGradient id="paint0_linear_65_3925" x1="17.7644" y1="6.21349" x2="19.0267"
            y2="6.67502" gradientUnits="userSpaceOnUse">
            <stop stop-color="#FEE45A" />
            <stop offset="1" stop-color="#FEA613" />
        </linearGradient>
        <linearGradient id="paint1_linear_65_3925" x1="11.1118" y1="22.7357" x2="14.798"
            y2="30.2233" gradientUnits="userSpaceOnUse">
            <stop stop-color="#F9F5F3" />
            <stop offset="1" stop-color="#EFE2DD" />
        </linearGradient>
        <linearGradient id="paint2_linear_65_3925" x1="18.9302" y1="26.6217" x2="14.3096"
            y2="20.1858" gradientUnits="userSpaceOnUse">
            <stop stop-color="#9E9797" stop-opacity="0" />
            <stop offset="0.3107" stop-color="#979090" stop-opacity="0.311" />
            <stop offset="0.7858" stop-color="#817A7A" stop-opacity="0.786" />
            <stop offset="1" stop-color="#766E6E" />
        </linearGradient>
        <linearGradient id="paint3_linear_65_3925" x1="14" y1="28.0262" x2="14" y2="31.1793"
            gradientUnits="userSpaceOnUse">
            <stop stop-color="#9E9797" stop-opacity="0" />
            <stop offset="0.3107" stop-color="#979090" stop-opacity="0.311" />
            <stop offset="0.7858" stop-color="#817A7A" stop-opacity="0.786" />
            <stop offset="1" stop-color="#766E6E" />
        </linearGradient>
        <linearGradient id="paint4_linear_65_3925" x1="12.3098" y1="19.1707" x2="15.1548"
            y2="22.0157" gradientUnits="userSpaceOnUse">
            <stop stop-color="#FFDFCF" />
            <stop offset="1" stop-color="#FFA78F" />
        </linearGradient>
        <linearGradient id="paint5_linear_65_3925" x1="14" y1="25.2964" x2="14" y2="21.8857"
            gradientUnits="userSpaceOnUse">
            <stop stop-color="#F89580" stop-opacity="0" />
            <stop offset="0.9972" stop-color="#C5715A" />
        </linearGradient>
        <linearGradient id="paint6_linear_65_3925" x1="25.5032" y1="26.68" x2="23.8896" y2="27.0467"
            gradientUnits="userSpaceOnUse">
            <stop stop-color="#9E9797" stop-opacity="0" />
            <stop offset="0.3107" stop-color="#979090" stop-opacity="0.311" />
            <stop offset="0.7858" stop-color="#817A7A" stop-opacity="0.786" />
            <stop offset="1" stop-color="#766E6E" />
        </linearGradient>
        <linearGradient id="paint7_linear_65_3925" x1="4.43845" y1="23.6973" x2="9.00426"
            y2="30.0784" gradientUnits="userSpaceOnUse">
            <stop stop-color="#FEE45A" />
            <stop offset="1" stop-color="#FEA613" />
        </linearGradient>
        <linearGradient id="paint8_linear_65_3925" x1="9.33351" y1="25.6688" x2="6.28046"
            y2="25.9438" gradientUnits="userSpaceOnUse">
            <stop stop-color="#FEA613" stop-opacity="0" />
            <stop offset="1" stop-color="#E94444" />
        </linearGradient>
        <linearGradient id="paint9_linear_65_3925" x1="5.41716" y1="24.8837" x2="7.94759"
            y2="27.3866" gradientUnits="userSpaceOnUse">
            <stop stop-color="#F9F5F3" />
            <stop offset="1" stop-color="#EFE2DD" />
        </linearGradient>
        <linearGradient id="paint10_linear_65_3925" x1="8.56949" y1="28.6114" x2="8.56949"
            y2="30.9236" gradientUnits="userSpaceOnUse">
            <stop stop-color="#FEA613" stop-opacity="0" />
            <stop offset="1" stop-color="#E94444" />
        </linearGradient>
        <linearGradient id="paint11_linear_65_3925" x1="16.711" y1="24.2923" x2="20.4883"
            y2="28.8398" gradientUnits="userSpaceOnUse">
            <stop stop-color="#FEE45A" />
            <stop offset="1" stop-color="#FEA613" />
        </linearGradient>
        <linearGradient id="paint12_linear_65_3925" x1="24.6838" y1="25.8761" x2="22.5567"
            y2="26.2062" gradientUnits="userSpaceOnUse">
            <stop stop-color="#FEA613" stop-opacity="0" />
            <stop offset="1" stop-color="#E94444" />
        </linearGradient>
        <linearGradient id="paint13_linear_65_3925" x1="22.583" y1="24.8837" x2="20.0525"
            y2="27.3866" gradientUnits="userSpaceOnUse">
            <stop stop-color="#F9F5F3" />
            <stop offset="1" stop-color="#EFE2DD" />
        </linearGradient>
        <linearGradient id="paint14_linear_65_3925" x1="19.4306" y1="28.6114" x2="19.4306"
            y2="30.9236" gradientUnits="userSpaceOnUse">
            <stop stop-color="#FEA613" stop-opacity="0" />
            <stop offset="1" stop-color="#E94444" />
        </linearGradient>
        <linearGradient id="paint15_linear_65_3925" x1="11.6816" y1="21.0855" x2="10.1138"
            y2="23.561" gradientUnits="userSpaceOnUse">
            <stop stop-color="#F9F5F3" />
            <stop offset="1" stop-color="#EFE2DD" />
        </linearGradient>
        <linearGradient id="paint16_linear_65_3925" x1="16.2544" y1="21.068" x2="18.0697"
            y2="23.3234" gradientUnits="userSpaceOnUse">
            <stop stop-color="#F9F5F3" />
            <stop offset="1" stop-color="#EFE2DD" />
        </linearGradient>
        <linearGradient id="paint17_linear_65_3925" x1="6.48814" y1="12.7059" x2="8.30754"
            y2="14.5253" gradientUnits="userSpaceOnUse">
            <stop stop-color="#FFDFCF" />
            <stop offset="1" stop-color="#FFA78F" />
        </linearGradient>
        <linearGradient id="paint18_linear_65_3925" x1="19.2102" y1="12.3603" x2="21.7562"
            y2="14.9062" gradientUnits="userSpaceOnUse">
            <stop stop-color="#FFDFCF" />
            <stop offset="1" stop-color="#FFA78F" />
        </linearGradient>
        <linearGradient id="paint19_linear_65_3925" x1="9.60719" y1="10.8427" x2="18.3354"
            y2="16.7104" gradientUnits="userSpaceOnUse">
            <stop stop-color="#FFDFCF" />
            <stop offset="1" stop-color="#FFA78F" />
        </linearGradient>
        <linearGradient id="paint20_linear_65_3925" x1="13.9999" y1="15.0726" x2="13.9999"
            y2="11.3114" gradientUnits="userSpaceOnUse">
            <stop stop-color="#F89580" stop-opacity="0" />
            <stop offset="0.9972" stop-color="#C5715A" />
        </linearGradient>
        <linearGradient id="paint21_linear_65_3925" x1="14" y1="17.5098" x2="14" y2="18.7406"
            gradientUnits="userSpaceOnUse">
            <stop stop-color="#5A5A5A" />
            <stop offset="1" stop-color="#444444" />
        </linearGradient>
        <linearGradient id="paint22_linear_65_3925" x1="14" y1="14.9934" x2="14" y2="17.5605"
            gradientUnits="userSpaceOnUse">
            <stop stop-color="#F89580" stop-opacity="0" />
            <stop offset="0.9972" stop-color="#C5715A" />
        </linearGradient>
        <linearGradient id="paint23_linear_65_3925" x1="10.4793" y1="13.4405" x2="11.7995"
            y2="14.4123" gradientUnits="userSpaceOnUse">
            <stop stop-color="#5A5A5A" />
            <stop offset="1" stop-color="#444444" />
        </linearGradient>
        <linearGradient id="paint24_linear_65_3925" x1="16.2159" y1="13.3836" x2="17.3894"
            y2="14.2638" gradientUnits="userSpaceOnUse">
            <stop stop-color="#5A5A5A" />
            <stop offset="1" stop-color="#444444" />
        </linearGradient>
        <linearGradient id="paint25_linear_65_3925" x1="17.0988" y1="9.19021" x2="20.8156"
            y2="9.19021" gradientUnits="userSpaceOnUse">
            <stop stop-color="#5A5A5A" />
            <stop offset="1" stop-color="#444444" />
        </linearGradient>
        <linearGradient id="paint26_linear_65_3925" x1="7.18431" y1="9.19031" x2="10.9013"
            y2="9.19031" gradientUnits="userSpaceOnUse">
            <stop stop-color="#5A5A5A" />
            <stop offset="1" stop-color="#444444" />
        </linearGradient>
        <linearGradient id="paint27_linear_65_3925" x1="11.3435" y1="5.59942" x2="16.5828"
            y2="12.9923" gradientUnits="userSpaceOnUse">
            <stop stop-color="#FEE45A" />
            <stop offset="1" stop-color="#FEA613" />
        </linearGradient>
        <linearGradient id="paint28_linear_65_3925" x1="13.1076" y1="7.2249" x2="9.57188"
            y2="7.43919" gradientUnits="userSpaceOnUse">
            <stop stop-color="#FEA613" stop-opacity="0" />
            <stop offset="1" stop-color="#E94444" />
        </linearGradient>
        <linearGradient id="paint29_linear_65_3925" x1="16.8021" y1="7.6185" x2="14.07" y2="6.71849"
            gradientUnits="userSpaceOnUse">
            <stop stop-color="#FEA613" stop-opacity="0" />
            <stop offset="1" stop-color="#E94444" />
        </linearGradient>
        <linearGradient id="paint30_linear_65_3925" x1="19.5099" y1="8.30486" x2="17.2117"
            y2="7.01911" gradientUnits="userSpaceOnUse">
            <stop stop-color="#FEA613" stop-opacity="0" />
            <stop offset="1" stop-color="#E94444" />
        </linearGradient>
        <linearGradient id="paint31_linear_65_3925" x1="14" y1="8.06977" x2="14" y2="11.1796"
            gradientUnits="userSpaceOnUse">
            <stop stop-color="#FEA613" stop-opacity="0" />
            <stop offset="1" stop-color="#E94444" />
        </linearGradient>
        <linearGradient id="paint32_linear_65_3925" x1="14" y1="10.5632" x2="14" y2="12.4983"
            gradientUnits="userSpaceOnUse">
            <stop stop-color="#FEE45A" />
            <stop offset="1" stop-color="#FEA613" />
        </linearGradient>
        <linearGradient id="paint33_linear_65_3925" x1="12.5216" y1="5.96412" x2="16.0297"
            y2="5.96412" gradientUnits="userSpaceOnUse">
            <stop stop-color="#FEE45A" />
            <stop offset="1" stop-color="#FEA613" />
        </linearGradient>
        <linearGradient id="paint34_linear_65_3925" x1="14.8358" y1="4.33672" x2="12.987"
            y2="4.33672" gradientUnits="userSpaceOnUse">
            <stop stop-color="#FEE45A" />
            <stop offset="1" stop-color="#FEA613" />
        </linearGradient>
        <linearGradient id="paint35_linear_65_3925" x1="9.57784" y1="6.71871" x2="11.1528"
            y2="6.26873" gradientUnits="userSpaceOnUse">
            <stop stop-color="#FEE45A" />
            <stop offset="1" stop-color="#FEA613" />
        </linearGradient>
        <linearGradient id="paint36_linear_65_3925" x1="17.0367" y1="6.2135" x2="18.5153"
            y2="6.88852" gradientUnits="userSpaceOnUse">
            <stop stop-color="#FEE45A" />
            <stop offset="1" stop-color="#FEA613" />
        </linearGradient>
        <clipPath id="clip0_65_3925">
            <rect width="28" height="32" fill="white" transform="translate(0 0.500031)" />
        </clipPath>
    </defs>
</svg>